<svg width="50" height="50" viewBox="0 0 50 50" fill="none" xmlns="http://www.w3.org/2000/svg">
<circle cx="25" cy="25" r="25" fill="#181A20"/>
<path fill-rule="evenodd" clip-rule="evenodd" d="M30.008 21.8121C31.584 22.9381 33.515 23.6001 35.6 23.6001V19.5891C35.205 19.5891 34.812 19.548 34.426 19.4661V22.623C32.341 22.623 30.411 21.96 28.834 20.835V29.019C28.834 33.113 25.513 36.4321 21.417 36.4321C19.889 36.4321 18.468 35.9701 17.288 35.1781C18.635 36.5541 20.513 37.4081 22.591 37.4081C26.687 37.4081 30.008 34.0891 30.008 29.9951V21.8121ZM31.457 17.7661C30.652 16.8871 30.123 15.7501 30.008 14.4931V13.9771H28.895C29.175 15.5741 30.131 16.9391 31.457 17.7661ZM19.879 32.0371C19.429 31.4471 19.186 30.7261 19.187 29.9841C19.187 28.1111 20.706 26.5931 22.58 26.5931C22.929 26.5931 23.276 26.6461 23.609 26.7521V22.6521C23.22 22.5991 22.828 22.576 22.435 22.5841V25.7751C22.102 25.6691 21.755 25.616 21.405 25.616C19.531 25.616 18.012 27.1341 18.012 29.0071C18.013 30.3321 18.772 31.4791 19.879 32.0371Z" fill="#EC407A"/>
<path fill-rule="evenodd" clip-rule="evenodd" d="M28.834 20.835C30.41 21.961 32.341 22.623 34.426 22.623V19.4661C33.262 19.2181 32.232 18.6101 31.457 17.765C30.131 16.938 29.176 15.5741 28.896 13.9771H25.973V29.9951C25.966 31.8621 24.45 33.3741 22.58 33.3741C21.478 33.3741 20.499 32.849 19.879 32.036C18.772 31.478 18.013 30.3311 18.013 29.0071C18.013 27.1341 19.532 25.616 21.406 25.616C21.765 25.616 22.111 25.6721 22.436 25.7751V22.585C18.412 22.668 15.176 25.9541 15.176 29.9961C15.176 32.0141 15.982 33.8431 17.29 35.1791C18.47 35.9711 19.891 36.4331 21.419 36.4331C25.515 36.4331 28.836 33.1141 28.836 29.0201L28.834 20.835Z" fill="white"/>
<path fill-rule="evenodd" clip-rule="evenodd" d="M34.426 19.467V18.613C33.376 18.615 32.348 18.321 31.457 17.765C32.245 18.628 33.283 19.223 34.426 19.467ZM28.895 13.977C28.868 13.824 28.848 13.671 28.834 13.516V13H24.798V29.019C24.792 30.886 23.275 32.398 21.405 32.398C20.856 32.398 20.338 32.268 19.879 32.036C20.499 32.849 21.478 33.374 22.58 33.374C24.45 33.374 25.966 31.862 25.973 29.995V13.977H28.895ZM22.435 22.585V21.676C22.098 21.63 21.758 21.607 21.417 21.607C17.32 21.607 14 24.926 14 29.02C14 31.587 15.305 33.849 17.288 35.179C15.98 33.843 15.174 32.014 15.174 29.996C15.174 25.954 18.411 22.668 22.435 22.585Z" fill="#81D4FA"/>
</svg>
