<svg width="50" height="50" viewBox="0 0 50 50" fill="none" xmlns="http://www.w3.org/2000/svg">
<circle cx="25" cy="25" r="25" fill="#7294C7"/>
<path d="M37.2576 31.3941C37.2576 31.2903 37.1539 31.2903 37.1539 31.1865C36.7387 30.3563 35.8047 29.3185 34.5594 28.1769C33.9367 27.658 33.6254 27.2429 33.4178 27.0354C33.1065 26.6203 33.1065 26.3089 33.2103 25.8938C33.3141 25.5825 33.7292 25.0636 34.4556 24.1296C34.8707 23.6107 35.0783 23.2993 35.3896 22.988C36.9463 20.9124 37.6727 19.5633 37.4652 18.9406L37.3614 18.8369C37.2577 18.7331 37.1538 18.6293 36.9463 18.6293C36.7387 18.5255 36.4274 18.5255 36.1161 18.6293H32.1725C32.0687 18.6293 32.0687 18.6293 31.8611 18.6293C31.7574 18.6293 31.6536 18.6293 31.6536 18.6293H31.5498H31.446L31.3422 18.7331C31.2385 18.8369 31.2385 18.8368 31.2385 18.9406C30.8233 20.0822 30.3045 21.0162 29.7856 22.054C29.4742 22.5729 29.1629 23.0918 28.8516 23.5069C28.5402 23.922 28.3327 24.2333 28.1251 24.4409C27.9175 24.6485 27.71 24.7522 27.6062 24.9598C27.5024 25.0636 27.2949 25.1674 27.2949 25.0636C27.1911 25.0636 27.0873 25.0636 27.0873 24.9598C26.9835 24.856 26.8798 24.7522 26.776 24.6485C26.6722 24.5447 26.6722 24.3371 26.5684 24.1296C26.5684 23.922 26.5684 23.7144 26.5684 23.6107C26.5684 23.5069 26.5684 23.1956 26.5684 22.988C26.5684 22.6767 26.5684 22.4691 26.5684 22.3653C26.5684 22.054 26.5684 21.6389 26.5684 21.2238C26.5684 20.8087 26.5684 20.4973 26.5684 20.2898C26.5684 20.0822 26.5684 19.7709 26.5684 19.5633C26.5684 19.252 26.5684 19.0444 26.5684 18.9406C26.5684 18.8368 26.4647 18.6293 26.4647 18.5255C26.3609 18.4217 26.2571 18.318 26.1533 18.2142C26.0495 18.1104 25.842 18.1104 25.7382 18.0066C25.2193 17.9028 24.5967 17.7991 23.8702 17.7991C22.2097 17.7991 21.0682 17.9029 20.6531 18.1104C20.4455 18.2142 20.2379 18.318 20.1342 18.5255C19.9266 18.7331 19.9266 18.8369 20.0304 18.8369C20.5493 18.9406 20.9644 19.1482 21.172 19.4595L21.2757 19.6671C21.3795 19.7709 21.3795 19.9784 21.4833 20.2898C21.5871 20.6011 21.5871 20.9124 21.5871 21.3275C21.5871 21.9502 21.5871 22.5729 21.5871 22.988C21.5871 23.5069 21.4833 23.8182 21.4833 24.1296C21.4833 24.4409 21.3795 24.6485 21.2757 24.7522C21.172 24.9598 21.1719 25.0636 21.0682 25.0636C21.0682 25.0636 21.0682 25.1673 20.9644 25.1673C20.8606 25.1673 20.7568 25.2711 20.5493 25.2711C20.4455 25.2711 20.2379 25.1674 20.1342 25.0636C19.9266 24.9598 19.7191 24.7522 19.6153 24.5447C19.4077 24.3371 19.2002 24.0258 18.9926 23.6107C18.785 23.1956 18.4737 22.7804 18.2661 22.1578L18.0586 21.7427C17.9548 21.5351 17.7473 21.12 17.5397 20.6011C17.3321 20.0822 17.1246 19.6671 16.917 19.1482C16.8132 18.9406 16.7095 18.8369 16.6057 18.7331H16.5019C16.5019 18.7331 16.3981 18.6293 16.2943 18.6293C16.1906 18.6293 16.0868 18.5255 15.983 18.5255H12.247C11.8319 18.5255 11.6243 18.6293 11.5205 18.7331L11.4167 18.8369C11.4167 18.8369 11.4167 18.9406 11.4167 19.0444C11.4167 19.1482 11.4168 19.252 11.5205 19.4595C12.0394 20.7049 12.6621 21.9502 13.2848 23.1956C13.9074 24.3371 14.5301 25.3749 14.9452 26.1014C15.4641 26.8278 15.8792 27.5543 16.3981 28.1769C16.917 28.7996 17.2283 29.2147 17.3321 29.4223C17.5397 29.6298 17.6435 29.7336 17.7472 29.8374L18.0586 30.1487C18.2661 30.3563 18.5775 30.6676 18.9926 30.979C19.4077 31.2903 19.9266 31.6016 20.4455 31.913C20.9644 32.2243 21.5871 32.4319 22.2097 32.6394C22.9362 32.847 23.5589 32.9508 24.1815 32.847H25.7382C26.0495 32.847 26.2571 32.7432 26.4647 32.5356L26.5684 32.4319C26.5684 32.3281 26.6722 32.3281 26.6722 32.2243C26.6722 32.1205 26.6722 32.0167 26.6722 31.8092C26.6722 31.3941 26.6722 31.0827 26.776 30.7714C26.8798 30.4601 26.8798 30.2525 26.9836 30.045C27.0873 29.8374 27.1911 29.7336 27.2949 29.6298C27.3987 29.5261 27.5025 29.4223 27.5025 29.4223H27.6062C27.8138 29.3185 28.1251 29.4223 28.3327 29.6298C28.644 29.8374 28.9553 30.1487 29.1629 30.4601C29.3704 30.7714 29.6818 31.0827 30.0969 31.4979C30.512 31.913 30.8234 32.2243 31.0309 32.3281L31.3422 32.5356C31.5498 32.6394 31.7574 32.7432 32.0687 32.847C32.38 32.9508 32.5876 32.9507 32.7951 32.9507L36.3236 32.847C36.635 32.847 36.9463 32.7432 37.1539 32.6394C37.3614 32.5356 37.4652 32.4319 37.4652 32.2243C37.4652 32.1205 37.4652 31.913 37.4652 31.8092C37.2576 31.6016 37.2576 31.4978 37.2576 31.3941Z" fill="white"/>
</svg>
