<svg width="24" height="24" viewBox="0 0 24 24" fill="none" xmlns="http://www.w3.org/2000/svg">
<path d="M6.3 12.9C5.80294 12.9 5.4 12.4971 5.4 12C5.4 11.5029 5.80294 11.1 6.3 11.1H15.0213L12.9514 9.03015C12.6 8.67868 12.6 8.10883 12.9514 7.75736C13.3029 7.40589 13.8727 7.40589 14.2242 7.75736L17.7032 11.2363C18.125 11.6581 18.125 12.3419 17.7032 12.7637L14.2242 16.2426C13.8728 16.5941 13.3029 16.5941 12.9514 16.2426C12.6 15.8912 12.6 15.3213 12.9514 14.9698L15.0213 12.9H6.3Z" fill="#FFDB59"/>
<path fill-rule="evenodd" clip-rule="evenodd" d="M12 24C18.6274 24 24 18.6274 24 12C24 5.37258 18.6274 -2.89694e-07 12 0C5.37258 2.89694e-07 -2.89694e-07 5.37258 0 12C2.89694e-07 18.6274 5.37258 24 12 24ZM12 22.2C17.6333 22.2 22.2 17.6333 22.2 12C22.2 6.3667 17.6333 1.8 12 1.8C6.3667 1.8 1.8 6.3667 1.8 12C1.8 17.6333 6.3667 22.2 12 22.2Z" fill="#FFDB59"/>
</svg>
