<svg width="22" height="19" viewBox="0 0 22 19" fill="none" xmlns="http://www.w3.org/2000/svg">
<path d="M6.46558 1.00793C3.04214 1.00793 1.06558 3.78859 1.02429 6.14066C1.02413 6.143 1.02413 6.14534 1.02429 6.14768C1.02429 8.7751 2.40538 11.0174 4.29036 12.9357C6.17546 14.8538 8.57821 16.4771 10.745 17.9148C10.8989 18.018 11.1013 18.018 11.2552 17.9148C13.4217 16.4769 15.8244 14.8537 17.7099 12.9357C19.5949 11.0174 20.9759 8.7751 20.9759 6.14768C20.9761 6.14534 20.9761 6.143 20.9759 6.14066C20.9345 3.7884 18.9581 1.00793 15.5346 1.00793C13.6108 1.00793 11.9292 1.91456 11.0002 3.15896C10.0713 1.91452 8.38947 1.00793 6.46558 1.00793ZM6.46558 1.90191C8.33805 1.90191 10.0151 2.9702 10.5959 4.11563C10.6734 4.26527 10.8295 4.35927 10.9999 4.35927C11.1702 4.35927 11.3263 4.26527 11.4038 4.11563C11.9848 2.9702 13.6618 1.90191 15.5341 1.90191C18.4553 1.90191 20.0317 4.27788 20.0685 6.14793V6.15494C20.066 8.47089 18.8497 10.4903 17.0574 12.3145C15.3325 14.0698 13.0909 15.6091 10.9999 17.0006C8.90875 15.6092 6.66713 14.07 4.94243 12.3145C3.15013 10.4906 1.93385 8.47101 1.9313 6.15494V6.14793C1.96799 4.27796 3.54445 1.90191 6.46558 1.90191Z" fill="#7F86E8" stroke="#7F86E8" stroke-width="0.8"/>
</svg>
