<svg width="270" height="79" viewBox="0 0 270 79" fill="none" xmlns="http://www.w3.org/2000/svg">
<path fill-rule="evenodd" clip-rule="evenodd" d="M172.856 27.5039C172.15 25.1305 172.101 22.5379 172.847 20.2473C174.255 15.9392 178.016 15.0327 181.975 14.8524C184.501 14.7354 187.028 14.7549 189.559 14.7549C195.755 14.7549 202.434 16.0074 207.279 20.1596C207.797 20.5982 208.281 21.0709 208.736 21.5632C212.516 14.5551 218.3 13.6291 226.155 13.6291C228.41 13.6291 230.443 14.6769 231.75 16.3583C232.147 16.1926 232.549 16.0415 232.95 15.9051C237.442 14.365 243.26 13.9654 246.004 18.756C246.556 19.7161 247.074 20.7054 247.567 21.6996C248.066 20.954 248.574 20.2132 249.102 19.4822C250.573 17.4353 252.025 15.5249 254.576 14.7793C256.836 14.1214 259.677 14.5941 261.923 15.2033C263.748 15.6955 265.587 16.4655 267.053 17.6887C269.106 19.3993 270.151 21.7727 269.88 24.4726C269.73 26.0126 269.13 27.3821 268.104 28.5371C263.932 33.24 259.295 40.3212 257.383 46.3886C257.209 47.4364 257.373 49.4784 257.417 50.5555C257.494 52.3976 257.581 54.2691 257.833 56.0966C258.22 58.9281 256.981 61.6816 254.687 63.3386C250.955 66.0239 242.248 66.1506 238.584 63.1193C235.428 64.9517 231.179 65.5609 228.062 65.1661C224.035 64.6544 221.717 61.36 220.269 57.8316C219.621 57.8998 218.972 57.9826 218.329 58.0752C218.261 61.3746 215.904 64.3182 212.569 65.0004C207.676 66.0044 198.784 64.4887 197.323 58.8063C196.8 56.7643 197.071 54.4006 197.57 52.1735C196.689 52.5292 195.788 52.846 194.879 53.1189C194.893 53.27 194.903 53.4259 194.912 53.577C194.956 54.1082 195.009 54.6346 195.116 55.1609C195.59 57.5489 194.879 59.9125 193.17 61.6329C190.489 64.3328 186.694 64.9566 183.059 64.9566C181.322 64.9566 179.618 64.6837 178.05 63.8942C178.045 63.8942 178.04 63.8893 178.035 63.8893C176.709 64.4595 175.247 64.7568 173.824 64.9078C171.733 65.1272 169.236 65.1661 167.247 64.4497C166.564 64.2061 165.935 63.86 165.374 63.4409C163.496 64.4351 161.313 64.8347 159.188 64.9176C158.186 64.9566 157.175 64.9322 156.178 64.8006C154.033 64.5228 152.141 63.5433 150.868 62.0617C148.191 63.8211 145.036 64.7519 141.594 64.7519C138.047 64.7519 134.649 63.7967 131.764 61.8863C130.83 62.5929 129.785 63.168 128.715 63.6505C126.866 64.479 124.553 65.2441 122.52 65.2441C121.257 65.2441 120.071 64.942 119.001 64.3815C117.346 64.9225 115.589 65.2197 113.875 65.2197C110.788 65.2197 107.845 64.323 105.425 62.6368C105.163 62.8854 104.883 63.1193 104.583 63.3386C103.668 63.9965 102.647 64.4449 101.562 64.7421C100.26 65.0979 98.8907 65.249 97.5452 65.3026C94.4282 65.4293 90.7449 65.1564 88.3055 62.9731C86.7615 61.589 85.9194 59.703 85.9194 57.6171C85.9194 55.0975 86.113 52.5877 86.234 50.073C86.2969 48.6987 86.3888 47.0368 86.1662 45.6625C85.9484 44.9753 85.4547 44.0445 85.1595 43.4256C84.3318 41.676 83.4364 39.9557 82.512 38.2548C81.5536 36.5052 80.5566 34.7703 79.4772 33.0987C79.0078 32.3677 78.2672 31.1639 77.6477 30.5693C74.0854 27.1579 74.3904 21.7971 78.0156 18.5611C79.395 17.3281 81.1132 16.4947 82.8459 15.9051C87.3375 14.365 93.1552 13.9654 95.8995 18.756C96.4513 19.7161 96.9692 20.7054 97.4629 21.6996C97.9614 20.954 98.4696 20.2132 98.9972 19.4822C100.469 17.4353 101.921 15.5249 104.471 14.7793C106.732 14.1214 109.573 14.5941 111.818 15.2033C113.643 15.6955 115.482 16.4655 116.949 17.6887C119.001 19.3993 120.047 21.7727 119.776 24.4726C119.713 25.1305 119.563 25.7592 119.34 26.3489C123.328 27.0117 126.992 28.6346 129.562 31.544C135.636 25.2573 146.105 23.8488 152.872 29.0878C155.345 27.0848 158.467 26.3538 161.642 26.3538C162.47 26.3538 163.283 26.4171 164.091 26.6121C164.725 26.7632 165.34 26.9971 165.911 27.2992C166.956 27.0751 168.026 26.9678 169.1 26.9678C170.441 26.9678 171.695 27.153 172.856 27.5039Z" fill="white"/>
<path fill-rule="evenodd" clip-rule="evenodd" d="M103.586 55.5947C103.6 55.6921 103.61 55.7847 103.624 55.8773C103.837 57.4368 103.145 58.9135 101.882 59.82C101.306 60.2391 100.648 60.512 99.9652 60.6972C98.9294 60.9847 97.7871 61.0968 96.7175 61.1407C94.6217 61.2235 91.5386 61.1455 89.9075 59.6835C89.0944 58.9574 88.6782 58.0168 88.6782 56.9202C88.6782 54.4543 88.8718 52.0078 88.9879 49.5418C89.0654 47.8458 89.1476 45.8574 88.8379 44.1761C88.6007 43.3184 87.9618 42.0415 87.5795 41.2374C86.7228 39.4293 85.7983 37.6408 84.84 35.8863C83.8478 34.0685 82.8023 32.2556 81.6794 30.5109C81.0599 29.5557 80.1548 28.1472 79.3369 27.3626C77.2314 25.345 77.5073 22.3429 79.6127 20.4666C80.6292 19.5553 81.9892 18.9315 83.267 18.4929C86.0306 17.5523 90.4448 16.6848 92.2259 19.7941C93.6586 22.2991 94.8976 25.0916 96.0786 27.733C96.156 27.9036 96.2335 28.0741 96.3061 28.2447C96.9256 27.1969 97.5258 26.2368 98.0001 25.4766C98.9875 23.8976 100.014 22.3332 101.098 20.8224C102.032 19.5212 103.135 17.8886 104.742 17.4207C106.286 16.9723 108.687 17.4402 110.231 17.8593C112.878 18.5757 115.986 20.1109 115.657 23.4346C115.579 24.2436 115.284 24.921 114.742 25.5302C113.856 26.5292 112.946 27.6306 112.051 28.8052C112.782 28.7613 113.508 28.771 114.166 28.771C121.048 28.771 126.75 31.2711 128.526 37.2753C129.151 36.0423 129.92 34.8775 130.83 33.8297C136.546 27.231 147.775 26.5877 152.62 33.8931C152.809 33.0353 153.143 32.2458 153.738 31.6415C155.655 29.7165 158.331 29.1317 160.955 29.1317C161.506 29.1317 162.068 29.1658 162.605 29.2925C163.37 29.4777 164.052 29.8627 164.575 30.389C165.766 29.965 167.048 29.7409 168.413 29.7409C172.759 29.7409 175.605 32.3335 177.053 36.0715C177.086 33.7079 177.12 31.3491 177.154 28.9952C175.257 26.768 174.57 23.2884 175.436 20.6323C176.317 17.9227 179.114 17.7326 181.443 17.6254C183.901 17.5133 186.404 17.5279 188.867 17.5279C194.186 17.5279 200.178 18.527 204.355 22.109C206.432 23.8878 207.821 26.1345 208.435 28.6151C209.06 27.0702 209.699 25.5399 210.352 24.0291C213.469 16.831 218.406 16.407 225.468 16.407C227.283 16.407 228.802 17.7082 229.093 19.5114C229.161 19.9549 229.233 20.4033 229.311 20.8663C229.436 20.7298 229.572 20.5933 229.717 20.4666C230.734 19.5553 232.094 18.9315 233.371 18.4929C236.135 17.5523 240.549 16.6848 242.33 19.7941C243.763 22.2991 245.002 25.0916 246.183 27.733C246.26 27.9036 246.338 28.0741 246.411 28.2447C247.03 27.1969 247.63 26.2368 248.105 25.4766C249.092 23.8976 250.118 22.3332 251.202 20.8224C252.136 19.5212 253.24 17.8886 254.847 17.4207C256.391 16.9723 258.791 17.4402 260.335 17.8593C262.983 18.5757 266.09 20.1109 265.761 23.4346C265.684 24.2436 265.388 24.921 264.846 25.5302C260.34 30.6083 255.365 38.2792 253.351 44.834C253.085 45.9744 253.23 48.762 253.283 50.0048C253.361 51.9201 253.467 53.9815 253.729 55.8773C253.942 57.4368 253.249 58.9135 251.986 59.82C249.373 61.706 242.209 61.6475 240.012 59.6835C239.199 58.9574 238.783 58.0168 238.783 56.9202C238.783 54.4543 238.976 52.0078 239.092 49.5418C239.17 47.8458 239.252 45.8574 238.942 44.1761C238.705 43.3184 238.066 42.0415 237.684 41.2374C236.827 39.4293 235.903 37.6408 234.944 35.8863C233.952 34.0685 232.907 32.2556 231.784 30.5109C231.469 30.0235 231.082 29.4241 230.666 28.8441C232.273 37.5969 234.577 47.3682 238.279 53.7574C238.623 54.3519 238.778 54.9367 238.778 55.6239C238.778 60.1172 231.208 61.4575 227.801 61.0286C224.611 60.6241 222.956 56.7887 221.949 53.5039C219.442 53.5819 216.964 53.9231 214.5 54.4055C214.311 55.1658 214.152 55.9358 214.113 56.4865C214.529 58.4651 213.237 60.4876 211.194 60.9067C207.874 61.5842 200.837 60.6046 199.97 57.2419C199.394 54.9952 200.386 51.4766 201.016 49.2786C201.534 47.4657 202.114 45.6576 202.729 43.8642C202.4 44.1615 202.056 44.449 201.713 44.7219C198.475 47.2902 194.627 48.9326 190.61 49.7562C190.643 50.8918 190.702 52.0321 190.789 53.153C190.842 53.8402 190.915 54.4786 191.045 55.1463C191.292 56.3939 190.939 57.583 190.043 58.4846C188.088 60.4535 184.995 60.7947 182.372 60.7947C181.186 60.7947 179.976 60.6387 178.902 60.0977C178.355 59.82 177.904 59.435 177.566 58.972C176.385 60.1514 174.444 60.5851 172.774 60.7605C171.264 60.9214 169.139 60.9993 167.716 60.4876C166.337 59.9905 165.422 58.777 165.296 57.3637C165.117 57.8267 164.856 58.2653 164.464 58.6601C162.915 60.2147 160.48 60.6728 158.365 60.7557C157.562 60.7898 156.729 60.7703 155.931 60.6679C153.675 60.3755 151.633 58.8355 152.01 56.2136C152.092 55.6239 152.165 55.0342 152.228 54.4348C149.755 58.2556 145.849 60.59 140.907 60.59C136.812 60.59 133.265 59.0694 130.724 56.4085C129.959 58.0168 128.236 59.0597 126.624 59.7858C125.269 60.3902 123.314 61.0773 121.832 61.0773C120.593 61.0773 119.587 60.5656 118.778 59.7907C116.992 60.6143 115.003 61.0529 113.183 61.0529C108.972 61.0529 105.415 58.972 103.586 55.5947ZM219.703 41.5103C219.301 39.5268 219.098 38.4644 218.861 36.7002C218.687 35.3746 217.075 39.8582 216.852 41.6614L219.703 41.5103ZM103.135 45.6528C103.919 43.6936 105.192 41.9587 106.804 40.5454C106.277 40.1945 105.851 39.7071 105.56 39.1369C104.607 41.0717 103.813 42.9967 103.247 44.834C103.193 45.0533 103.16 45.3311 103.135 45.6528ZM190.556 36.3834C191.563 36.0276 192.507 35.5403 193.281 34.8921C193.954 34.3268 194.719 33.4106 194.69 32.4651C194.666 31.7731 194.177 31.2858 193.606 30.9592C192.778 30.4865 191.723 30.3013 190.663 30.2769C190.648 30.9202 190.643 31.5538 190.634 32.1191C190.6 33.5422 190.571 34.9652 190.556 36.3834ZM140.907 48.0359C141.265 48.0359 141.875 46.6567 141.967 46.3887C142.408 45.1118 142.577 43.1722 142.03 41.9148C141.706 41.1594 141.096 41.4762 140.612 41.983C139.765 42.8749 139.586 45.0436 139.77 46.2327C139.867 46.8614 140.084 48.0359 140.907 48.0359Z" fill="black"/>
<path d="M219.48 28.4981C219.35 28.001 217.859 28.1521 217.67 28.5176C217.123 29.5947 214.335 37.3045 212.143 44.2833C214.819 43.8496 218.45 43.4889 222.53 43.6303C221.087 37.168 219.945 30.238 219.48 28.4981ZM210.488 49.8488C209.65 52.924 209.181 55.2584 209.471 55.8432C209.587 56.0723 202.656 55.6044 202.477 54.9075C201.509 51.1549 211.47 26.8558 212.666 24.0974C214.839 19.0826 217.622 18.6927 224.417 18.6927C226.092 29.0927 228.735 45.0143 234.064 54.2155C234.064 55.2974 228.473 56.1112 227.21 55.9553C226.029 55.8042 224.809 52.6023 223.691 48.4209C218.241 48.1675 213.203 49.2348 210.488 49.8488Z" fill="#7F86E8"/>
<path d="M185.813 45.1654C185.949 52.115 186.196 53.4406 186.399 54.464C185.586 55.2827 183.896 55.6921 181.322 55.6921C180.513 55.6921 179.903 55.5898 179.497 55.3851C179.497 50.3752 179.599 40.5454 179.802 25.9006C178.543 25.3157 177.125 22.6646 177.871 20.3789C178.035 19.8769 181.559 19.8185 187.817 19.8185C212.714 19.8185 206.587 43.2842 185.813 45.1654ZM185.813 39.4927C201.703 38.0648 200.464 22.7864 186.142 25.4912C185.973 26.7144 185.813 33.1572 185.813 39.4927Z" fill="#7F86E8"/>
<path d="M155.03 36.2713C155.006 34.1611 155.118 33.0207 155.287 32.8501C156.231 31.8949 157.775 31.4173 159.904 31.4173C160.616 31.4173 160.988 31.5051 160.969 31.6708C160.93 32.0509 160.64 35.3502 160.969 35.3502C161.003 35.3502 161.066 35.3259 161.124 35.2479C162.755 33.1133 164.827 32.0314 167.363 32.0314C170.209 32.0314 172.092 33.7858 172.997 37.2947C174.008 41.2179 174.173 50.3898 173.94 54.8344C173.902 55.6434 169.071 56.0186 167.905 55.5995C168.278 52.2222 168.529 44.025 167.721 40.8719C166.559 36.3493 160.94 38.3328 160.969 41.944C160.984 43.5523 161.153 54.3032 160.819 54.6394C159.459 56.0089 154.537 55.7506 154.595 55.3315C155.413 49.6198 155.108 42.1633 155.03 36.2713Z" fill="#FFDB59"/>
<path d="M139.857 55.4874C128.972 55.4874 126.261 42.1097 132.548 34.8483C137.103 29.5946 146.662 29.195 149.397 36.2469C152.083 43.1819 149.813 55.4874 139.857 55.4874ZM136.914 38.016C133.816 41.2666 134.175 50.3264 139.857 50.3264C144.198 50.3264 146.096 43.0698 144.348 39.0346C142.916 35.7206 139.174 35.6426 136.914 38.016Z" fill="#FFDB59"/>
<path d="M124.383 42.7628C124.383 47.0173 124.436 49.5077 124.538 50.2241C124.804 52.0955 125.535 52.3489 126.416 53.1628C126.416 54.3129 122.07 55.9748 120.782 55.9748C119.969 55.9748 119.146 53.7086 119.006 53.1335C118.962 52.9532 118.856 53.0556 118.793 53.1335C117.457 54.7662 114.64 55.9504 112.138 55.9504C103.435 55.9504 101.974 44.2394 110.986 40.1019C113.454 38.9712 115.705 38.4205 117.738 38.4205C117.772 38.4205 117.806 38.401 117.839 38.3669C117.839 36.6953 115.739 35.8619 111.547 35.8619C109.887 35.8619 108.663 36.0666 107.84 36.0666H107.792C107.792 34.2634 108.372 32.7039 109.568 31.4173C109.795 31.1688 110.986 31.0616 113.12 31.0616C120.627 31.0616 124.383 34.0929 124.383 40.1555V42.7628ZM118.754 44.0884C118.754 43.3427 118.735 42.9675 118.701 42.9675C117.21 42.9675 115.744 43.2745 114.287 43.8837C108.222 46.4325 110.821 53.6209 116.973 49.7124C118.938 48.4696 118.754 46.0962 118.754 44.0884Z" fill="#FFDB59"/>
<path d="M245.66 34.8288C246.261 31.5099 254.005 19.799 254.818 19.5602C255.747 19.2921 261.192 20.3594 261.061 21.6558C254.227 29.3558 250.171 37.8649 248.787 42.3583C248.163 44.3905 248.714 52.5536 249.044 54.9757C249.223 56.2867 242.306 56.3257 241.401 55.5167C241.401 50.6188 242.19 45.6966 241.488 42.022C241.057 39.7851 234.185 26.4074 230.922 23.2786C228.914 21.3536 237.418 19.0387 238.1 20.2327C240.206 23.9024 243.555 31.9485 244.91 34.9311C245.167 35.5013 245.588 35.2479 245.66 34.8288Z" fill="#7F86E8"/>
<path d="M95.5559 34.8288C96.156 31.5099 103.9 19.799 104.713 19.5602C105.643 19.2921 111.088 20.3594 110.957 21.6558C104.123 29.3558 100.062 37.8649 98.6825 42.3583C98.0582 44.3905 98.6099 52.5536 98.9391 54.9757C99.1181 56.2867 92.2017 56.3257 91.2966 55.5167C91.2966 50.6188 92.0856 45.6966 91.3837 42.022C90.953 39.7851 84.0801 26.4074 80.8179 23.2786C78.8093 21.3536 87.3133 19.0387 87.9957 20.2327C90.1011 23.9024 93.4504 31.9485 94.8057 34.9311C95.0622 35.5013 95.4833 35.2479 95.5559 34.8288Z" fill="#FFDB59"/>
<path fill-rule="evenodd" clip-rule="evenodd" d="M179.778 21.2805C179.942 20.7785 182.982 20.7201 189.245 20.7201C194.036 20.7201 197.676 21.5875 200.29 23.0057C197.647 21.0661 193.557 19.8185 187.817 19.8185C181.559 19.8185 178.035 19.8769 177.871 20.3789C177.125 22.6646 178.543 25.3157 179.802 25.9006C179.599 40.5454 179.497 50.3752 179.497 55.3851C179.831 55.5508 180.305 55.6531 180.92 55.6824C180.93 50.5067 181.031 40.8816 181.225 26.7973C180.174 26.3148 179.032 23.5662 179.778 21.2805Z" fill="white"/>
<path fill-rule="evenodd" clip-rule="evenodd" d="M224.417 18.6927C217.622 18.6927 214.839 19.0826 212.666 24.0974C211.47 26.8558 201.509 51.1549 202.477 54.9075C202.526 55.0976 203.073 55.2681 203.842 55.4143C203.523 50.6188 212.932 27.6745 214.089 24.9941C215.875 20.876 218.072 19.8769 222.573 19.6528C224.142 19.5748 224.49 18.9705 224.417 18.6927Z" fill="white"/>
<path fill-rule="evenodd" clip-rule="evenodd" d="M220.903 29.3997C220.811 29.0488 220.173 28.196 219.258 28.2739C219.374 28.3227 219.456 28.3958 219.48 28.4981C219.945 30.238 221.087 37.168 222.53 43.6303C218.45 43.4889 214.819 43.8496 212.138 44.2833C212.003 44.7122 212.37 45.1947 212.951 45.1118C215.637 44.7463 219.873 44.3905 223.953 44.5319C222.51 38.0696 221.368 31.1347 220.903 29.3997Z" fill="white"/>
<path fill-rule="evenodd" clip-rule="evenodd" d="M225.114 49.3225C224.993 48.8156 224.364 48.4453 223.691 48.4209C224.809 52.6023 226.029 55.8042 227.21 55.9553C227.302 55.965 227.418 55.9699 227.554 55.9748C226.687 54.7272 225.816 52.2807 225.114 49.3225Z" fill="white"/>
<path fill-rule="evenodd" clip-rule="evenodd" d="M241.488 42.022C242.19 45.6966 241.401 50.6188 241.401 55.5167C241.614 55.7019 242.142 55.8432 242.829 55.9358C242.877 51.1988 243.589 46.4764 242.911 42.9236C242.485 40.6818 235.879 27.0361 232.612 23.9073C230.985 22.3478 236 20.8029 238.42 20.8078C238.313 20.608 238.207 20.413 238.1 20.2327C237.418 19.0387 228.919 21.3536 230.922 23.2786C234.185 26.4074 241.057 39.7851 241.488 42.022Z" fill="white"/>
<path fill-rule="evenodd" clip-rule="evenodd" d="M244.91 34.9311C245.196 36.169 246.275 37.0511 246.885 35.438C249.252 29.2048 255.428 20.7006 256.241 20.4618C256.841 20.2863 259.319 20.6713 260.969 21.3097C260.243 20.1742 255.66 19.3165 254.818 19.5602C254.005 19.799 246.261 31.5099 245.66 34.8288C245.588 35.2479 245.167 35.5013 244.91 34.9311Z" fill="white"/>
<path fill-rule="evenodd" clip-rule="evenodd" d="M187.236 40.3943C199.477 39.3367 201.553 30.004 195.329 27.002C199.694 30.6327 196.989 38.4888 185.813 39.4927C185.808 40.2676 186.607 40.4479 187.236 40.3943Z" fill="white"/>
<path fill-rule="evenodd" clip-rule="evenodd" d="M155.03 36.2713C155.108 42.1633 155.413 49.6198 154.595 55.3315C154.575 55.4777 155.151 55.6044 155.969 55.6483C156.724 49.9853 156.434 42.7141 156.357 36.9439C156.328 34.8336 156.439 33.6932 156.608 33.5227C157.513 32.6113 158.956 32.1337 160.93 32.0947C160.95 31.8901 160.964 31.739 160.969 31.6708C160.989 31.5051 160.616 31.4173 159.904 31.4173C157.775 31.4173 156.231 31.8949 155.287 32.8501C155.118 33.0207 155.006 34.1611 155.03 36.2713Z" fill="white"/>
<path fill-rule="evenodd" clip-rule="evenodd" d="M160.897 35.2771C160.959 36.3347 162.16 35.9984 162.445 35.7109C164.338 33.8053 166.153 32.7039 168.689 32.7039C169.323 32.7039 169.909 32.7917 170.446 32.9622C169.589 32.3433 168.563 32.0314 167.363 32.0314C164.827 32.0314 162.755 33.1133 161.124 35.2479C161.066 35.3259 161.003 35.3502 160.969 35.3502C160.94 35.3502 160.916 35.3259 160.897 35.2771Z" fill="white"/>
<path fill-rule="evenodd" clip-rule="evenodd" d="M167.721 40.8719C168.529 44.025 168.278 52.2222 167.905 55.5995C168.186 55.7019 168.684 55.7555 169.28 55.7701C169.623 52.1442 169.817 44.5513 169.042 41.5444C168.515 39.4829 166.835 38.0599 164.948 38.2597C166.148 38.3425 167.271 39.1174 167.721 40.8719Z" fill="white"/>
<path fill-rule="evenodd" clip-rule="evenodd" d="M141.183 50.999C145.52 50.999 147.417 43.7423 145.675 39.7071C145.079 38.3328 144.092 37.514 142.974 37.1973C143.53 37.631 144.005 38.2402 144.348 39.0346C146.096 43.0698 144.198 50.3264 139.857 50.3264C139.378 50.3264 138.937 50.2582 138.535 50.1412C139.237 50.6773 140.118 50.999 141.183 50.999Z" fill="white"/>
<path fill-rule="evenodd" clip-rule="evenodd" d="M133.875 35.5208C136.914 32.0119 142.19 30.6668 146.168 32.2653C142.112 29.7116 135.941 30.9349 132.548 34.8483C127.186 41.0424 128.371 51.691 135.593 54.6833C129.567 51.0038 128.855 41.3154 133.875 35.5208Z" fill="white"/>
<path fill-rule="evenodd" clip-rule="evenodd" d="M109.152 35.9838C109.292 34.4974 109.868 33.1913 110.889 32.0899C111.121 31.8462 112.312 31.7341 114.442 31.7341C116.983 31.7341 119.093 32.0801 120.777 32.7722C118.933 31.6318 116.378 31.0616 113.12 31.0616C110.986 31.0616 109.795 31.1688 109.568 31.4173C108.372 32.7039 107.792 34.2634 107.792 36.0666H107.84C108.198 36.0666 108.634 36.0276 109.152 35.9838Z" fill="white"/>
<path fill-rule="evenodd" clip-rule="evenodd" d="M114.906 36.1154C116.862 36.476 117.839 37.2265 117.839 38.3669C117.806 38.401 117.772 38.4205 117.738 38.4205C115.705 38.4205 113.454 38.9712 110.986 40.1019C103.087 43.7277 103.237 53.1774 109.253 55.4533C104.587 52.383 105.038 44.1127 112.312 40.7793C114.781 39.6438 117.031 39.0882 119.059 39.0882C119.093 39.0882 119.127 39.0736 119.161 39.0394C119.161 37.8454 117.762 36.3785 114.906 36.1154Z" fill="white"/>
<path fill-rule="evenodd" clip-rule="evenodd" d="M118.754 44.0884C118.754 46.0962 118.938 48.4696 116.973 49.7124C114.655 51.189 112.835 51.0818 111.799 50.2436C112.724 51.4132 115.652 52.0662 118.299 50.3849C120.264 49.1422 120.076 46.7688 120.076 44.7609C120.076 44.0348 120.168 42.9528 118.701 42.9675C118.735 42.9675 118.754 43.3427 118.754 44.0884Z" fill="white"/>
<path fill-rule="evenodd" clip-rule="evenodd" d="M120.332 53.8061C120.182 53.2018 119.567 52.3002 118.836 53.0848C118.895 53.0263 118.972 52.9922 119.006 53.1335C119.146 53.7086 119.969 55.9748 120.782 55.9748C120.908 55.9748 121.063 55.9602 121.237 55.9309C120.782 55.2243 120.424 54.1911 120.332 53.8061Z" fill="white"/>
<path fill-rule="evenodd" clip-rule="evenodd" d="M91.3838 42.022C92.0856 45.6966 91.2966 50.6188 91.2966 55.5167C91.5048 55.7019 92.0372 55.8432 92.7245 55.9358C92.7729 51.1988 93.4843 46.4764 92.8067 42.9236C92.3808 40.6818 85.7741 27.0361 82.5071 23.9073C80.8808 22.3478 85.8951 20.8029 88.3152 20.8078C88.2087 20.608 88.1022 20.413 87.9957 20.2327C87.3133 19.0387 78.8093 21.3536 80.8179 23.2786C84.0801 26.4074 90.953 39.7851 91.3838 42.022Z" fill="white"/>
<path fill-rule="evenodd" clip-rule="evenodd" d="M94.8057 34.9311C95.0913 36.169 96.1706 37.0511 96.7804 35.438C99.1472 29.2048 105.323 20.7006 106.136 20.4618C106.736 20.2863 109.215 20.6713 110.865 21.3097C110.139 20.1742 105.555 19.3165 104.713 19.5602C103.9 19.799 96.1561 31.5099 95.5559 34.8288C95.4833 35.2479 95.0622 35.5013 94.8057 34.9311Z" fill="white"/>
<path fill-rule="evenodd" clip-rule="evenodd" d="M57.0999 21.425C62.2851 17.858 67.125 21.7673 66.3424 27.9444C65.9107 31.3317 64.6447 35.328 63.3843 38.6863C69.3349 47.4503 71.3089 58.7953 62.8779 66.7763C60.2249 69.2878 56.3863 71.225 52.7895 72.3561C47.6964 79.583 37.3548 80.7663 29.8388 76.625C28.3023 75.7781 27.1743 75.0125 25.7931 73.9743C24.9989 73.3769 23.5602 72.8781 22.6509 72.5359C15.8716 69.978 8.92541 65.2973 4.64374 59.3638C-1.34715 51.0696 -1.70971 41.6849 4.54015 34.3304C3.11292 31.4825 3.61936 27.6544 6.10549 25.2937C6.77306 24.6615 7.46941 24.1917 8.20604 23.8727C8.34416 22.4807 8.60313 21.1002 9.0405 19.8068C11.0202 13.9545 17.5751 10.9094 22.1445 16.1817C22.5128 16.5993 22.8639 17.0459 23.2034 17.4984C25.9773 14.8825 29.2 12.5798 32.8487 11.9302C34.0399 9.62176 35.5592 7.35391 37.0325 5.32966C38.6726 3.0792 40.9861 0.440141 43.9039 0.051532C46.8044 -0.337077 48.9394 1.51897 50.0904 4.04203C51.5119 7.1451 51.932 11.936 52.0298 15.8047C54.0901 17.2315 55.7533 19.2442 57.0999 21.425Z" fill="white"/>
<path fill-rule="evenodd" clip-rule="evenodd" d="M49.9465 68.4352C64.1555 62.9018 67.0099 53.7144 59.1314 40.4843C57.6466 37.9844 56.7719 33.5531 55.5806 28.3794C53.3937 18.8672 46.9482 15.9323 36.3246 16.4891C28.918 16.8719 21.4884 27.0164 13.1035 34.4231C-0.48968 46.1452 4.63796 57.7629 28.4749 69.2762C35.0643 73.8757 44.7844 76.306 49.9465 68.4352Z" fill="#F2C1A2"/>
<path fill-rule="evenodd" clip-rule="evenodd" d="M33.9709 16.0077C34.414 16.1353 34.8168 16.4427 35.1967 16.9415C35.9506 17.9623 35.7261 18.7686 34.5349 19.3602C32.1408 20.9726 30.7021 26.5059 27.2836 28.0256C23.8134 28.101 21.3043 29.6148 21.7474 32.2017C20.5619 34.8059 20.3029 37.1318 28.1008 41.9227C30.7596 43.5584 27.9109 45.2926 24.9644 44.9504C13.3912 43.0189 13.2243 51.2203 18.7433 58.1457C22.1387 62.1884 27.8131 65.0943 32.3825 70.0708C29.3899 69.2936 27.3067 68.9804 18.4613 64.3924C7.91254 55.9184 1.36918 44.9388 11.118 35.3396C11.8374 34.8639 13.7768 33.0659 15.7162 31.4825C17.6614 29.899 19.9058 27.927 21.8395 25.9375C26.57 21.048 30.2877 16.0077 33.9709 16.0077Z" fill="#D18F78"/>
<path fill-rule="evenodd" clip-rule="evenodd" d="M45.7397 51.6902C50.9997 53.3026 52.8413 50.4431 49.2675 47.6765C48.0302 46.7194 46.5857 44.5792 48.4906 42.4622C48.5999 42.7986 48.6747 42.9494 48.7898 43.1582C49.7106 44.8228 50.7465 45.5594 51.7824 46.296C54.3721 48.1289 53.6815 50.9999 51.299 52.5602C49.5034 53.7318 48.2604 53.3664 46.108 53.1866L45.2045 52.6936C45.2045 52.4036 45.7282 52.334 45.7397 51.6902Z" fill="white"/>
<path fill-rule="evenodd" clip-rule="evenodd" d="M57.474 53.5404C45.2045 61.6084 34.2644 53.7376 23.4796 49.3121C20.8957 48.2507 20.2684 51.1972 21.3791 53.2968C23.7156 57.6933 38.7935 71.631 53.7103 61.2372C54.9706 60.3614 57.6754 57.6063 58.2337 56.2259C58.6768 55.1355 58.7516 52.6994 57.474 53.5404Z" fill="white"/>
<path fill-rule="evenodd" clip-rule="evenodd" d="M45.7454 16.9647C53.1405 19.4588 56.5417 33.1877 57.8193 39.2837C63.9253 47.7693 65.0187 57.2931 58.3085 63.6501C55.3735 66.4283 46.5684 70.2506 44.1628 69.6358C57.0769 64.0967 64.6677 55.5473 55.1145 40.9657C53.4455 38.4194 54.9821 24.8413 45.7627 18.67C45.826 18.1654 45.7915 17.4809 45.7454 16.9647Z" fill="white"/>
<path fill-rule="evenodd" clip-rule="evenodd" d="M53.0427 39.3707C51.0515 25.752 41.5501 27.0222 31.6171 35.705C34.3449 37.155 35.9506 38.1004 38.1662 38.9647C45.0951 41.6733 47.2475 40.6235 53.0427 39.3707Z" fill="white"/>
<path fill-rule="evenodd" clip-rule="evenodd" d="M47.9438 20.439C48.2488 20.2012 47.4086 9.26215 45.8951 5.20205C45.4462 4.00142 45.2275 3.99562 44.2549 4.83084C42.7241 6.14167 34.7938 17.7304 37.5965 19.2558C40.5545 20.874 46.39 21.6744 47.9438 20.439Z" fill="white"/>
<path fill-rule="evenodd" clip-rule="evenodd" d="M35.6801 19.1978C34.8456 15.0159 40.7502 8.12532 42.2119 6.12427C42.914 5.15564 44.1801 3.1256 45.3138 4.54083C43.7945 6.22867 39.4956 17.1561 40.1229 20.3462L38.4885 20.1838C38.0166 20.1838 38.5575 20.0388 37.3202 20.0388C37.2224 20.0388 36.175 19.2616 35.6801 19.1978Z" fill="#B3B3B3"/>
<path fill-rule="evenodd" clip-rule="evenodd" d="M57.8481 36.9172C59.8623 34.1505 61.1054 30.9373 61.5888 27.289C62.0952 24.7717 61.6521 23.8205 60.2594 24.4411C59.7184 24.7253 58.1819 25.6881 55.6497 27.3296L57.8481 36.9172Z" fill="#D18F78"/>
<path fill-rule="evenodd" clip-rule="evenodd" d="M57.0194 36.7142C58.5214 34.3884 60.035 30.1427 60.6738 26.825C60.8579 25.8506 60.5817 24.5513 59.6379 25.2183C56.9733 27.0976 56.323 27.7472 55.3217 27.9792C54.9994 28.0546 54.9994 27.0686 54.6138 27.0744C54.7577 26.9758 57.2266 25.2879 58.6998 24.1453C61.6406 21.8717 63.3556 23.8611 62.9412 27.1324C62.383 31.5753 59.753 38.2861 59.4019 39.0749C58.6595 40.7743 56.277 38.4079 57.0194 36.7142Z" fill="black"/>
<path fill-rule="evenodd" clip-rule="evenodd" d="M47.9726 17.2083C55.3677 19.6966 58.7631 33.4255 60.0407 39.5273C66.1524 48.0071 67.2459 57.5309 60.5356 63.8879C56.8064 67.4201 49.0891 70.3202 44.1628 69.6358C58.5272 64.9377 67.9422 57.3859 57.3416 41.2035C55.6727 38.6572 55.7303 23.4435 47.9899 18.9078C48.0532 18.4032 48.0186 17.7187 47.9726 17.2083Z" fill="black"/>
<path fill-rule="evenodd" clip-rule="evenodd" d="M32.6415 28.8144C37.7576 21.9934 52.5478 19.5864 53.5376 32.2887C49.7279 23.9249 43.4205 24.0873 32.6415 28.8144Z" fill="black"/>
<path fill-rule="evenodd" clip-rule="evenodd" d="M38.3216 45.6174C35.1621 48.9757 38.9489 50.0719 40.4739 49.0859C41.4235 48.4653 42.068 48.1579 42.4306 48.7321C45.7339 53.9522 54.821 50.0951 51.5522 47.4502C50.3321 46.47 48.3697 45.2752 48.7898 43.1581C50.3782 45.368 52.0413 45.5884 53.2038 46.412C55.7936 48.2507 55.1087 51.1159 52.7204 52.6762C49.2329 54.9556 43.9557 55.0542 41.2106 51.4987C35.8009 53.7492 32.2731 47.2066 38.3216 45.6174Z" fill="black"/>
<path fill-rule="evenodd" clip-rule="evenodd" d="M55.4598 55.205C45.5728 62.5886 34.1493 57.6063 27.6001 55.4197C26.2708 54.973 25.3097 56.4695 25.6032 57.8499C23.4796 58.4415 19.313 51.0289 20.8554 48.6683C21.5344 48.6973 22.2711 48.8829 23.025 49.2425C35.2254 55.1064 42.7644 60.5296 55.4598 54.335C55.4828 54.944 55.4828 54.5902 55.4598 55.205Z" fill="#B3B3B3"/>
<path fill-rule="evenodd" clip-rule="evenodd" d="M57.1344 54.2074C45.6821 62.2754 34.4888 55.6169 24.4234 51.1972C23.376 50.7389 22.8753 51.6612 23.4911 52.9024C25.6722 57.3047 40.3588 69.6358 53.5204 60.2338C54.7116 59.387 57.2438 57.2177 57.7675 55.8373C58.1818 54.7468 58.3315 53.3606 57.1344 54.2074ZM53.6585 62.2928C44.088 69.8794 30.8287 65.2799 22.72 57.5367C15.8198 50.9535 19.9346 45.9306 24.7687 48.2507C37.0152 54.1378 44.5657 59.5842 57.3474 53.2794C59.189 52.3688 59.3213 54.3234 58.7976 56.0171C58.2221 57.8905 55.126 61.127 53.6585 62.2928Z" fill="black"/>
<path fill-rule="evenodd" clip-rule="evenodd" d="M37.3605 31.2447C44.8247 28.1648 49.6185 29.2088 51.7306 34.3767C48.5884 42.2301 42.3155 39.7303 39.9445 37.8394C38.5345 36.7142 37.6713 34.516 37.3605 31.2447Z" fill="#7F86E8"/>
<path d="M52.0989 35.2236C50.8501 38.6167 47.7539 41.0121 44.0938 40.7453C39.7431 40.4321 36.4858 36.4648 36.3592 31.9233L38.5345 30.8619C38.3158 32.9151 38.8741 34.9974 40.1574 36.5982C41.2681 37.9786 42.8392 38.8951 44.6232 39.0227C47.7884 39.2547 50.3782 36.981 51.1839 33.9185C51.4198 34.3014 51.7766 34.7538 52.0989 35.2236Z" fill="black"/>
<path fill-rule="evenodd" clip-rule="evenodd" d="M49.2214 30.7864C49.5092 31.4709 49.653 32.2307 49.6185 33.0311C49.4919 35.6122 47.5007 37.5668 45.1699 37.3986C42.8392 37.2304 41.0494 34.9973 41.176 32.4163C41.2278 31.3027 41.6307 30.3108 42.2522 29.551C43.6276 29.0116 45.5498 28.6752 49.2214 30.7864Z" fill="black"/>
<path fill-rule="evenodd" clip-rule="evenodd" d="M54.8037 39.9159C52.0816 38.5993 49.7566 44.1616 37.4123 40.3915C33.9133 39.3185 31.7207 38.0772 28.6245 36.8418C26.6333 36.0472 25.5917 36.0646 24.245 36.2502C25.6722 34.5508 27.5944 34.284 29.5108 34.6842C33.3263 31.4187 38.6151 28.1474 43.1097 27.753C48.5481 27.2716 53.5319 30.6415 53.388 39.0227C54.0901 38.9763 54.6483 39.4345 54.8037 39.9159ZM52.6686 39.0633C50.8156 27.0918 41.9702 28.2054 32.7163 35.8384C35.26 37.1144 36.7505 37.9438 38.8165 38.7095C45.2678 41.0875 47.2705 40.1653 52.6686 39.0633Z" fill="black"/>
<path fill-rule="evenodd" clip-rule="evenodd" d="M49.5667 68.6788C49.4804 68.934 50.9076 68.47 50.7868 68.6962C46.7468 76.3001 37.09 76.3117 31.4847 73.2261C26.7427 70.6102 29.0562 70.9002 23.8537 68.934C17.5866 66.5675 11.2331 62.2522 7.41187 56.9625C1.2023 48.3609 2.49141 39.8695 9.43185 33.9243L18.7088 27.0338C22.766 22.7939 29.0619 13.8037 36.1175 14.9231C35.893 15.0101 35.4211 16.8951 35.1967 16.9415C29.9194 18.0842 26.8175 21.7557 22.6222 26.651C19.221 30.6125 16.05 33.2979 12.2172 36.5866C6.37023 41.6153 7.15866 49.0163 10.6346 54.5728C13.7193 59.4971 19.4685 63.2672 25.022 65.7439C28.9641 67.4955 31.151 69.1776 32.5667 70.0998C37.9706 73.5857 43.478 74.5659 49.5667 68.6788Z" fill="black"/>
<path fill-rule="evenodd" clip-rule="evenodd" d="M16.683 35.357C18.116 34.5218 19.7044 33.4081 21.7474 32.2017C24.245 32.2481 26.2995 30.4733 27.2836 28.0256C23.8594 27.1034 21.0741 22.6373 19.29 20.468C16.5852 17.1735 14.0703 17.771 13.3625 21.8542C12.3669 29.1102 13.4718 33.8547 15.509 36.0878L16.683 35.357Z" fill="#F2C1A2"/>
<path fill-rule="evenodd" clip-rule="evenodd" d="M16.591 36.778C18.4959 36.343 20.0554 36.4358 20.8266 33.3037C16.7521 30.7981 16.2399 27.637 16.8269 23.6929C15.9752 22.6605 14.7091 22.5967 14.2084 24.0003C12.856 28.8144 13.1898 33.1181 16.0212 36.9056L16.591 36.778Z" fill="#D18F78"/>
<path fill-rule="evenodd" clip-rule="evenodd" d="M27.2836 28.0256C19.831 30.7633 16.1075 15.9381 14.1278 24.3425C13.5293 26.883 12.8963 31.2505 15.6241 36.0182C14.5077 35.0264 13.9207 35.9254 12.7524 30.8619C12.0791 27.9618 11.8489 24.4875 13.0402 20.9436C14.1451 17.6898 16.0788 16.6689 18.8929 19.917C21.0223 22.3647 24.4407 25.5721 27.2836 28.0256Z" fill="white"/>
<path fill-rule="evenodd" clip-rule="evenodd" d="M46.4648 36.0472C46.108 36.1864 45.7224 36.2502 45.3196 36.2212C43.6909 36.0994 42.4364 34.5391 42.5227 32.7353C42.5515 32.2249 42.6781 31.7493 42.891 31.3317C42.8047 33.7619 44.1686 35.7572 46.4648 36.0472Z" fill="white"/>
<path fill-rule="evenodd" clip-rule="evenodd" d="M18.7433 58.1457C9.24768 49.6775 15.5263 40.6061 24.9644 44.9504C16.0212 44.3646 13.9264 49.0801 18.7433 58.1457Z" fill="black"/>
<path fill-rule="evenodd" clip-rule="evenodd" d="M33.4472 53.697C33.4472 56.1215 33.4874 59.3406 32.63 61.7998C32.5034 62.1652 32.3365 62.2696 32.1696 62.606C31.9739 60.6688 32.2271 57.0611 31.853 54.045C31.761 53.6042 32.0372 53.1692 32.4746 53.0706C32.912 52.972 33.3493 53.2562 33.4472 53.697Z" fill="black"/>
<path fill-rule="evenodd" clip-rule="evenodd" d="M34.46 62.5596C35.8067 61.011 38.4079 57.3801 39.5647 56.1331L39.9215 56.4463C39.9445 57.2931 36.0426 63.3658 35.893 63.5979C35.6283 63.9575 34.9953 63.9749 34.6327 63.7081C34.2701 63.4412 34.1953 62.925 34.46 62.5596Z" fill="black"/>
<path fill-rule="evenodd" clip-rule="evenodd" d="M24.0091 56.4057C24.0494 56.3767 29.6662 52.0962 30.2647 52.247C30.2532 52.2876 30.2647 52.2528 30.2417 52.3398L30.2704 52.3688L30.2877 52.2354L30.4373 52.1716L30.5812 52.334C30.351 53.378 25.7989 57.6875 25.4018 58.0877C24.9414 58.4763 24.2565 58.4125 23.871 57.9485C23.4854 57.4845 23.5487 56.7943 24.0091 56.4057ZM30.3395 52.45L30.3798 52.5022L30.4373 52.479L30.3395 52.45Z" fill="black"/>
<path fill-rule="evenodd" clip-rule="evenodd" d="M47.3511 19.8126C47.6216 19.6038 46.8734 9.85376 45.5268 6.23448C45.1297 5.16725 44.8247 5.16145 44.065 5.90387C42.7759 7.1567 35.6283 17.3997 38.1317 18.7628C40.7674 20.2012 45.9699 20.9146 47.3511 19.8126ZM48.5481 20.7232C48.4503 22.2951 40.7099 23.4203 35.1506 20.0098C32.0084 18.0842 37.9187 9.58696 39.7948 7.0059C43.5873 1.79737 45.757 2.44119 46.977 5.11505C48.8243 9.15775 48.7092 18.2524 48.5481 20.7232Z" fill="black"/>
<path fill-rule="evenodd" clip-rule="evenodd" d="M42.6838 56.7653C43.3514 59.3231 44.1456 62.7104 43.5068 65.4597C42.914 63.7312 42.2868 60.2338 41.2739 57.5309C41.0725 57.1481 41.1991 56.6377 41.6019 56.4347C41.999 56.2317 42.4882 56.3825 42.6838 56.7653Z" fill="black"/>
<path fill-rule="evenodd" clip-rule="evenodd" d="M45.17 64.0039C46.1253 62.2348 47.8575 58.0645 48.7093 56.5507L48.8589 56.6087C49.0833 57.4207 46.6605 64.2475 46.5742 64.5085C46.4073 64.9319 45.9296 65.1349 45.5152 64.9609C45.0951 64.7927 45.0031 64.4215 45.17 64.0039Z" fill="black"/>
<path fill-rule="evenodd" clip-rule="evenodd" d="M50.758 56.5507C51.4025 58.3081 52.237 60.5122 51.8514 62.4552C51.2817 61.2836 50.6659 58.952 49.7336 57.1133C49.5552 56.8523 49.5667 56.5159 49.8775 56.3651C50.1883 56.2085 50.5853 56.2897 50.758 56.5507Z" fill="black"/>
<path fill-rule="evenodd" clip-rule="evenodd" d="M53.0369 60.7442C53.6412 59.0505 54.2685 56.1505 54.8555 54.5322L54.9821 54.567C55.2238 55.1877 54.3203 60.8892 54.2743 61.1038C54.1764 61.446 53.8196 61.649 53.4801 61.5504C53.1348 61.4518 52.9391 61.0922 53.0369 60.7442Z" fill="black"/>
<path fill-rule="evenodd" clip-rule="evenodd" d="M56.4093 54.3292C56.7719 55.4371 57.169 57.0611 56.887 58.2617C56.8525 58.1805 56.7028 58.2559 56.6798 58.1573C56.5244 57.3569 56.1734 55.7039 55.69 54.6541C55.5288 54.3988 56.2367 54.0566 56.4093 54.3292Z" fill="black"/>
<path fill-rule="evenodd" clip-rule="evenodd" d="M27.2836 28.0256C21.5978 29.5046 16.7751 14.1053 14.7954 22.5097C14.1969 25.0501 13.5696 31.5057 16.2917 36.2792C15.8659 36.5982 13.3049 37.0854 12.1367 32.0161C11.4633 29.116 11.0893 24.0989 12.2863 20.5492C13.3855 17.2953 16.7464 14.8303 19.5663 18.0842C21.6898 20.5318 24.4407 25.5721 27.2836 28.0256Z" fill="black"/>
<path fill-rule="evenodd" clip-rule="evenodd" d="M15.44 24.9341C15.6587 23.6059 16.5795 22.4865 17.2873 24.6383C17.9146 26.535 19.0771 30.2297 21.7474 32.2017C16.1363 36.9056 14.6746 29.522 15.44 24.9341Z" fill="black"/>
<path d="M47.7194 33.8605C48.4409 33.8605 49.0258 33.2035 49.0258 32.3931C49.0258 31.5827 48.4409 30.9257 47.7194 30.9257C46.9979 30.9257 46.413 31.5827 46.413 32.3931C46.413 33.2035 46.9979 33.8605 47.7194 33.8605Z" fill="white"/>
<path fill-rule="evenodd" clip-rule="evenodd" d="M16.5046 30.1021C14.6516 30.4385 14.3408 30.8039 14.3408 31.4071C14.3408 32.6135 12.9826 33.8895 12.1424 34.1215C6.6004 35.0496 6.20907 29.5626 8.45349 27.434C9.71957 26.2334 10.813 26.3436 12.1136 26.5582C12.5683 28.8202 15.8083 28.4026 17.0571 29.058C18.3002 29.7134 16.873 30.0324 16.5046 30.1021Z" fill="black"/>
<path fill-rule="evenodd" clip-rule="evenodd" d="M17.4715 29.3016C14.3753 29.2784 10.7497 29.8816 11.095 30.7111C11.1583 30.8561 11.5727 30.9895 11.9237 30.9953C11.9928 31.3607 12.0618 31.7029 12.1367 32.0161C12.1539 32.1031 12.1712 32.1785 12.1942 32.2597C9.58146 33.1123 8.59162 30.7343 9.29372 29.1334C10.6174 26.1173 15.2155 27.1672 17.3506 28.3504C18.0527 28.739 17.8455 29.3016 17.4715 29.3016Z" fill="#FFDB59"/>
<path fill-rule="evenodd" clip-rule="evenodd" d="M11.5209 28.1822C11.7511 28.0952 11.987 28.0198 12.2345 27.956C13.5294 27.6312 15.0199 27.6602 16.3378 27.898C16.3723 27.9038 16.4068 27.9154 16.4413 27.9212C16.4298 27.9154 16.4126 27.9096 16.4011 27.9038C16.0155 27.7472 15.6011 27.608 15.1638 27.492C14.8415 27.405 14.5077 27.3296 14.1739 27.2774C13.9552 27.2426 13.7308 27.2136 13.5121 27.1962C13.4718 27.1904 13.4315 27.1904 13.3912 27.1846C13.2243 27.173 13.0574 27.1672 12.8963 27.1672C12.7121 27.1672 12.5222 27.173 12.3438 27.1846C12.2805 27.1904 12.2172 27.1962 12.1539 27.2078C11.918 27.231 11.682 27.2774 11.4576 27.3354C11.1698 27.4166 10.8936 27.521 10.6404 27.6602C10.0649 27.9676 9.59298 28.449 9.29372 29.1334C8.99447 29.812 9.00598 30.6299 9.30523 31.2853C9.18438 29.7946 10.2145 28.6984 11.5209 28.1822Z" fill="white"/>
</svg>
