<?xml version="1.0" encoding="UTF-8"?>
<!DOCTYPE svg PUBLIC "-//W3C//DTD SVG 1.1//EN" "http://www.w3.org/Graphics/SVG/1.1/DTD/svg11.dtd">
<!-- Creator: CorelDRAW 2021 (64-Bit) -->
<svg xmlns="http://www.w3.org/2000/svg" xml:space="preserve" width="3353px" height="1080px" version="1.1" style="shape-rendering:geometricPrecision; text-rendering:geometricPrecision; image-rendering:optimizeQuality; fill-rule:evenodd; clip-rule:evenodd"
viewBox="0 0 3627.82 1168.73"
 xmlns:xlink="http://www.w3.org/1999/xlink"
 xmlns:xodm="http://www.corel.com/coreldraw/odm/2003">
 <defs>
  <style type="text/css">
   <![CDATA[
    .fil5 {fill:black}
    .fil0 {fill:white}
    .fil8 {fill:#B3B3B3}
    .fil1 {fill:black}
    .fil9 {fill:#7F86E8}
    .fil3 {fill:white}
    .fil6 {fill:#F2C1A2}
    .fil7 {fill:#D18F78}
    .fil11 {fill:#FFDB59}
    .fil10 {fill:black;fill-rule:nonzero}
    .fil4 {fill:#7F86E8;fill-rule:nonzero}
    .fil2 {fill:#FFDB59;fill-rule:nonzero}
   ]]>
  </style>
 </defs>
 <g id="Слой_x0020_1">
  <metadata id="CorelCorpID_0Corel-Layer"/>
  <g id="_3185619061840">
   <path class="fil0" d="M1431.7 961.34c-1.97,1.63 -4.02,3.2 -6.12,4.7 -12.71,9.1 -26.88,15.32 -41.92,19.44 -17.56,4.8 -35.88,6.82 -54.04,7.54 -42.98,1.69 -92.28,-2.4 -125.89,-32.29 -22.01,-19.58 -34.02,-46.33 -34.02,-75.79 0,-32.44 2.52,-64.69 4.06,-97.06 0.78,-16.52 1.99,-37.1 -0.66,-53.79 -2.7,-8.21 -8.67,-19.23 -12.25,-26.72 -10.62,-22.25 -22.03,-44.12 -33.92,-65.73 -12.2,-22.19 -24.91,-44.17 -38.73,-65.41 -5.52,-8.49 -14.89,-23.73 -22.15,-30.63 -50.02,-47.63 -45.97,-122.86 4.96,-168.01 18.79,-16.65 42.01,-27.94 65.63,-35.97 62.63,-21.24 141.72,-25.05 179.74,40.83 4.51,7.8 8.83,15.71 13.01,23.7 3.54,-5.11 7.12,-10.17 10.77,-15.2 20.41,-28.21 40.38,-53.57 75.73,-63.81 31,-8.98 69.09,-2.95 99.89,5.33 61.2,16.45 116.81,58.34 109.74,129 -0.53,5.34 -1.45,10.54 -2.74,15.58 45.95,9.22 88,28.42 119.59,60.21 80.83,-76.29 211.77,-92.57 300.19,-29.72 32.58,-23.61 72.45,-32.59 113.19,-32.59 11.41,0 22.7,0.93 33.82,3.58 7.84,1.85 15.42,4.58 22.59,8.08 13.07,-2.57 26.38,-3.81 39.78,-3.81 33.16,0 62.9,8.42 88.17,23.81 67.2,-130.93 204.76,-208.48 360.98,-186.04 24.1,3.46 46.43,11.65 66,24.2 9.19,-5.42 19.02,-10 29.17,-13.94 24.58,-9.54 50.4,-15.58 76.9,-15.58 9.61,0 19.12,0.42 28.62,1.94 54.45,8.7 94.61,56.38 89.11,112.16 -0.57,5.8 -1.01,11.6 -1.42,17.42 -0.7,9.9 -1.34,19.79 -1.91,29.7 23.14,-1.04 47.6,0.47 68.47,7.92 5.34,1.91 10.45,4.23 15.31,6.92 25.42,-14.3 55.1,-20.29 84.45,-21.71 0.47,-33.21 3.18,-66.29 25.62,-93.76 26.4,-32.34 66.81,-49.72 106.92,-57.62 14.92,-2.94 30.29,-4.7 45.53,-4.37 63.73,1.42 116.23,50.99 108.19,117.02 -2.06,16.91 -3.68,33.86 -4.8,50.85 117.69,23.24 190.56,117.63 190.56,247.5 0,154.9 -110.67,266.82 -263.06,250.3 -44.45,20.64 -105.29,19.48 -150.91,-1.09 -41.87,15.8 -87.06,20.41 -124.33,-5.85 -48.47,16.67 -100.21,15.46 -143.86,-9.02 -13.79,7.67 -28.8,13.41 -44.02,17.98 -23.1,6.94 -50.19,13.19 -74.3,13.19 -33.62,0 -60.06,-14.45 -79.63,-37.21 -47.29,22.73 -98.09,34.84 -151.13,34.84 -66.01,0 -128.48,-15.75 -180.46,-52.4 -19.48,34.68 -65.35,44.08 -102.3,47.94 -28.52,2.98 -61.86,3.34 -89.03,-6.37 -7.78,-2.78 -15.06,-6.43 -21.76,-10.82 -24.19,11.51 -51.57,16.35 -78.54,17.39 -13.46,0.53 -27.05,0.16 -40.41,-1.56 -27.05,-3.49 -51.23,-14.99 -68.84,-32.32 -34.53,20.77 -74.64,31.77 -117.98,31.77 -45.39,0 -88.93,-11.6 -126.41,-34.72 -11.15,7.72 -23.28,14.2 -35.75,19.75 -25.15,11.2 -56.18,21.25 -83.79,21.25 -16.44,0 -31.98,-3.6 -46.18,-10.3 -21.21,6.45 -43.47,9.98 -65.32,9.98 -39.13,0 -76.6,-10.6 -108.11,-30.61z"/>
   <g>
    <path class="fil1" d="M1416.05 867.96c0.15,1.2 0.32,2.41 0.47,3.61 2.76,19.97 -6.16,38.84 -22.42,50.49 -7.47,5.34 -15.93,8.83 -24.73,11.25 -13.37,3.66 -28.07,5.12 -41.88,5.66 -27,1.06 -66.78,0.05 -87.81,-18.66 -10.47,-9.3 -15.88,-21.35 -15.88,-35.37 0,-31.59 2.49,-62.96 3.99,-94.49 1.03,-21.75 2.09,-47.21 -1.93,-68.72 -3.01,-11 -11.27,-27.36 -16.19,-37.66 -11.05,-23.15 -22.97,-46.02 -35.33,-68.51 -12.82,-23.29 -26.27,-46.52 -40.79,-68.82 -7.97,-12.26 -19.62,-30.27 -30.19,-40.32 -27.14,-25.85 -23.59,-64.29 3.54,-88.35 13.11,-11.61 30.64,-19.62 47.14,-25.22 35.61,-12.09 92.53,-23.16 115.51,16.64 18.51,32.08 34.49,67.87 49.7,101.66 0.98,2.19 1.97,4.38 2.94,6.58 7.96,-13.44 15.7,-25.75 21.84,-35.49 12.72,-20.17 25.98,-40.26 39.96,-59.59 12.05,-16.65 26.24,-37.55 46.97,-43.56 19.88,-5.76 50.89,0.27 70.79,5.62 34.14,9.18 74.21,28.86 69.96,71.38 -1.05,10.38 -4.85,19.03 -11.81,26.83 -11.46,12.81 -23.14,26.91 -34.73,41.94 9.46,-0.53 18.84,-0.41 27.32,-0.41 88.74,0 162.23,31.98 185.17,108.92 8.05,-15.84 17.98,-30.71 29.71,-44.16 73.65,-84.46 218.5,-92.73 280.95,0.82 2.4,-10.98 6.73,-21.11 14.43,-28.82 24.68,-24.68 59.22,-32.17 93.01,-32.17 7.13,0 14.35,0.45 21.31,2.11 9.87,2.34 18.64,7.28 25.41,14.04 15.32,-5.45 31.85,-8.3 49.47,-8.3 52.72,0 88.35,29.37 107.93,72.71 34.59,-151.03 166.4,-259.5 333.53,-235.49 32.6,4.68 57.56,21.16 74.12,44.85 8.75,-18.87 28.4,-29.98 48.31,-37.7 18.27,-7.1 37.64,-11.92 57.33,-11.92 6.66,0 13.5,0.2 20.08,1.26 26.12,4.17 46.55,25.72 43.82,53.44 -0.63,6.3 -1.1,12.61 -1.55,18.92 -2.31,32.81 -3.97,65.86 -5.18,98.93 13.18,-5.82 28.43,-8.61 42.25,-10.06 19.5,-2.03 46.87,-3.06 65.25,3.5 17.42,6.22 29.12,21.29 31.14,38.92 2.17,-8.71 6.01,-16.87 13.04,-23.88 19.96,-19.95 51.37,-25.78 78.64,-26.84 10.33,-0.4 21.09,-0.17 31.36,1.15 6.09,0.78 12.04,2.25 17.62,4.4 -0.05,-12.91 -0.02,-25.83 0.08,-38.73 0.22,-23.7 -2.06,-61.13 13.59,-80.3 17.94,-21.96 48.28,-33.4 75.47,-38.76 10.97,-2.15 22.71,-3.6 33.88,-3.36 31.31,0.7 59.94,21.59 55.71,56.4 -4.31,35.34 -6.75,70.57 -6.99,105.94 112.29,1.13 192.35,71.6 192.35,198.95 0,133.45 -95.23,216.45 -219.7,194.14 -31.75,23.91 -102.79,22.91 -136.54,-5.65 -6.14,3.2 -12.35,5.99 -18.36,8.41 -26.77,10.79 -60.98,19.72 -84.87,-3.05 -5.48,-5.22 -9.92,-9.98 -13.68,-14.53 -55.61,31.15 -116.38,29.57 -155.99,-14.39 -12.39,18.91 -36.7,29.04 -58.51,35.59 -17.18,5.16 -40.95,10.9 -58.74,10.9 -27.34,0 -42.96,-19.52 -53.13,-41.72 -2.02,-4.44 -3.88,-9.51 -5.56,-15.16 -8.97,5.89 -18.14,11.05 -26.37,15.65 -45.12,25.26 -93.99,38.86 -145.7,38.86 -70.92,0 -137.08,-20.68 -185.37,-74.76 -13.84,-15.5 -24.98,-32.28 -33.73,-49.99 0.89,41.69 -0.73,78.77 -7.5,97.69 -5.31,14.83 -40.25,20.64 -61.79,22.89 -19.48,2.04 -46.85,3.06 -65.2,-3.5 -17.77,-6.35 -29.59,-21.93 -31.22,-40.02 -2.32,5.95 -5.72,11.56 -10.77,16.6 -19.95,19.95 -51.35,25.8 -78.61,26.88 -10.34,0.38 -21.12,0.16 -31.4,-1.17 -29.09,-3.75 -55.39,-23.45 -50.53,-57.04 1.07,-7.5 2.01,-15.09 2.79,-22.77 -31.86,48.95 -82.27,78.82 -145.99,78.82 -52.79,0 -98.49,-19.46 -131.29,-53.55 -9.87,20.58 -32.06,33.99 -52.88,43.26 -17.42,7.76 -42.64,16.57 -61.78,16.57 -15.95,0 -28.96,-6.55 -39.36,-16.5 -23.01,10.54 -48.65,16.18 -72.14,16.18 -54.3,0 -100.16,-26.67 -123.76,-69.9zm1337.45 -149.97c-0.22,-44.09 1.07,-90.47 2.77,-133.64 -24.36,16.57 -55.46,21.07 -84.61,21.07 -26.1,0 -47.38,-21.28 -47.38,-47.39l0 -4.01c0,-1.67 -0.01,-3.98 -0.1,-6.42 -62.74,6.53 -89.39,83.93 -89.39,139.02 0,19.87 3.7,39.6 15.11,56.21 12.2,17.77 28.91,22.99 50.02,22.99 34.91,0 65.41,-21.29 89.44,-44.77 9.18,-8.99 20.26,-13.5 33.12,-13.5 12.1,0 22.09,4.1 31.02,10.44zm629.24 43.43c32.15,-3.08 39.37,-66.14 0.24,-66.81 0.8,20.25 -0.35,46.6 -0.24,66.81zm-1972.23 -20.81c10.12,-25.04 31.27,-54.18 55.25,-71.16 -9.93,-1.92 -20.18,-9.59 -21.33,-18.76 -10.84,21.78 -38.13,63.91 -33.92,89.92zm500.42 9.46c5.68,-16.37 7.86,-41.2 0.85,-57.28 -4.22,-9.7 -12.05,-5.66 -18.32,0.87 -10.91,11.38 -13.23,39.18 -10.87,54.36 4.71,30.1 18.49,30.44 28.34,2.05z"/>
    <path class="fil2" d="M1315.75 605.23c7.73,-42.5 107.6,-192.44 118.08,-195.48 11.94,-3.46 82.16,10.19 80.49,26.83 -88.12,98.59 -140.45,207.56 -158.25,265.11 -8.04,26.01 -0.98,130.57 3.28,161.53 2.32,16.84 -86.85,17.31 -98.51,6.93 0,-62.68 10.13,-125.72 1.09,-172.76 -5.52,-28.69 -94.14,-199.98 -136.23,-240.06 -25.87,-24.63 83.73,-54.29 92.57,-38.98 27.12,47.01 70.34,150.03 87.79,188.21 3.33,7.28 8.73,4.04 9.69,-1.33zm571.22 264.55c-140.35,0 -175.3,-171.29 -94.22,-264.26 58.7,-67.31 181.98,-72.44 217.23,17.91 34.65,88.78 5.39,246.35 -123.01,246.35zm-37.95 -223.68c-39.94,41.62 -35.35,157.59 37.95,157.59 55.98,0 80.42,-92.91 57.92,-144.59 -18.48,-42.46 -66.7,-43.41 -95.87,-13zm233.63 -22.37c-0.36,-27.04 1.09,-41.66 3.27,-43.84 12.21,-12.21 32.06,-18.33 59.54,-18.33 9.17,0 13.97,1.13 13.75,3.27 -0.49,4.82 -4.24,47.12 0,47.12 0.44,0 1.23,-0.34 1.97,-1.31 21.05,-27.37 47.77,-41.22 80.48,-41.22 36.65,0 60.96,22.46 72.64,67.39 13.06,50.24 15.16,167.7 12.18,224.6 -0.54,10.39 -62.8,15.2 -77.86,9.82 4.8,-43.23 8.05,-148.21 -2.38,-188.6 -14.95,-57.89 -87.38,-32.5 -87.03,13.74 0.16,20.57 2.35,158.25 -1.96,162.56 -17.54,17.53 -81.02,14.25 -80.25,8.88 10.58,-73.13 6.65,-168.65 5.65,-244.08zm-395.18 83.11c0,54.53 0.64,86.38 1.97,95.53 3.47,24 12.87,27.23 24.22,37.7 0,14.69 -56.06,35.99 -72.64,35.99 -10.49,0 -21.07,-29.04 -22.91,-36.38 -0.59,-2.33 -1.91,-1 -2.74,0 -17.26,20.89 -53.56,36.06 -85.85,36.06 -112.18,0 -131.01,-150 -14.8,-202.93 31.8,-14.49 60.85,-21.6 87.03,-21.6 0.44,0 0.87,-0.22 1.3,-0.65 0,-21.37 -27.04,-32.07 -81.14,-32.07 -21.37,0 -37.15,2.63 -47.76,2.63l-0.66 0c0,-23.13 7.52,-43.08 22.91,-59.56 2.94,-3.15 18.32,-4.57 45.8,-4.57 96.85,0 145.27,38.82 145.27,116.48l0 33.37zm-72.63 17.01c0,-9.6 -0.22,-14.39 -0.65,-14.39 -19.2,0 -38.17,3.94 -56.94,11.78 -78.18,32.62 -44.68,124.63 34.68,74.62 25.31,-15.96 22.91,-46.35 22.91,-72.01z"/>
    <path class="fil3" d="M2082.65 623.73c1.01,75.42 4.92,170.95 -5.65,244.08 -0.27,1.86 7.16,3.47 17.72,4.04 9.77,-72.5 5.99,-165.64 5.01,-239.51 -0.36,-27.04 1.08,-41.66 3.26,-43.84 11.64,-11.64 30.23,-17.74 55.74,-18.28 0.22,-2.63 0.4,-4.56 0.48,-5.38 0.22,-2.15 -4.58,-3.28 -13.74,-3.28 -27.49,0 -47.34,6.12 -59.55,18.32 -2.18,2.19 -3.64,16.81 -3.27,43.85z"/>
    <path class="fil3" d="M2158.25 611c0.82,13.52 16.31,9.24 20,5.55 24.41,-24.42 47.77,-38.51 80.49,-38.51 8.15,0 15.7,1.1 22.63,3.33 -11.03,-7.97 -24.27,-11.95 -39.71,-11.95 -32.71,0 -59.43,13.85 -80.48,41.22 -0.74,0.96 -1.54,1.31 -1.97,1.31 -0.38,0 -0.69,-0.33 -0.96,-0.95z"/>
    <path class="fil3" d="M2246.24 682.63c10.43,40.39 7.18,145.37 2.37,188.6 3.65,1.3 10.09,2.01 17.74,2.18 4.42,-46.43 6.91,-143.66 -3.02,-182.17 -6.82,-26.4 -28.5,-44.59 -52.84,-42.03 15.49,1.03 29.95,10.95 35.75,33.42z"/>
    <path class="fil3" d="M1904.05 812.3c55.96,0 80.41,-92.91 57.92,-144.58 -7.65,-17.59 -20.42,-28.06 -34.81,-32.12 7.17,5.54 13.3,13.33 17.73,23.5 22.5,51.68 -1.95,144.59 -57.92,144.59 -6.15,0 -11.83,-0.82 -17.04,-2.35 9.07,6.89 20.39,10.96 34.12,10.96z"/>
    <path class="fil3" d="M1809.82 614.13c39.21,-44.95 107.21,-62.17 158.57,-41.74 -52.32,-32.65 -131.91,-17.02 -175.64,33.13 -69.17,79.33 -53.89,215.64 39.25,253.96 -77.69,-47.08 -86.88,-171.15 -22.18,-245.35z"/>
    <path class="fil3" d="M1491.02 620.05c1.84,-19.05 9.25,-35.74 22.45,-49.88 2.95,-3.15 18.32,-4.58 45.81,-4.58 32.76,0 59.98,4.45 81.66,13.34 -23.79,-14.63 -56.7,-21.94 -98.74,-21.94 -27.48,0 -42.86,1.42 -45.81,4.57 -15.37,16.48 -22.9,36.43 -22.9,59.56l0.65 0c4.63,0 10.25,-0.51 16.88,-1.07z"/>
    <path class="fil3" d="M1565.28 621.73c25.19,4.64 37.77,14.25 37.77,28.83 -0.43,0.43 -0.86,0.65 -1.3,0.65 -26.17,0 -55.23,7.11 -87.03,21.6 -101.89,46.4 -99.96,167.43 -22.34,196.56 -60.2,-39.31 -54.36,-145.24 39.41,-187.95 31.81,-14.48 60.86,-21.59 87.03,-21.59 0.44,0 0.88,-0.22 1.31,-0.66 0,-15.29 -18.05,-34.05 -54.85,-37.44z"/>
    <path class="fil3" d="M1614.84 723.85c0,25.66 2.4,56.05 -22.92,72.01 -29.95,18.87 -53.37,17.52 -66.71,6.77 11.92,15.01 49.65,23.36 83.79,1.85 25.32,-15.96 22.91,-46.35 22.91,-72.02 0,-9.34 1.19,-23.17 -17.73,-23 0.44,0 0.66,4.79 0.66,14.39z"/>
    <path class="fil3" d="M1635.18 848.29c-1.9,-7.76 -9.81,-19.32 -19.25,-9.23 0.77,-0.77 1.71,-1.24 2.18,0.62 1.84,7.34 12.42,36.37 22.91,36.37 1.62,0 3.61,-0.19 5.89,-0.57 -5.89,-9.07 -10.52,-22.27 -11.73,-27.19z"/>
    <path class="fil3" d="M1261.93 697.39c9.04,47.04 -1.1,110.08 -1.1,172.76 2.7,2.4 9.52,4.22 18.4,5.38 0.61,-60.63 9.8,-121.11 1.06,-166.61 -5.52,-28.69 -90.7,-203.43 -132.78,-243.51 -20.98,-19.97 43.65,-39.79 74.88,-39.73 -1.41,-2.57 -2.79,-5.02 -4.12,-7.33 -8.84,-15.31 -118.44,14.35 -92.57,38.98 42.09,40.08 130.72,211.37 136.23,240.06z"/>
    <path class="fil3" d="M1306.06 606.56c3.68,15.85 17.59,27.17 25.49,6.49 30.52,-79.86 110.15,-188.74 120.64,-191.78 7.7,-2.23 39.65,2.66 60.92,10.87 -9.35,-14.53 -68.41,-25.53 -79.28,-22.4 -10.48,3.04 -110.35,153 -118.07,195.48 -0.98,5.38 -6.37,8.62 -9.7,1.34z"/>
    <path class="fil4" d="M2586.87 877.96c-65.18,0 -115.19,-19.65 -150.01,-58.93 -32.15,-35.73 -48.23,-83.28 -48.23,-142.66 0,-159.58 119.5,-292.55 288.34,-268.29 70.82,10.17 60.56,107.68 49.29,118.95 -12.05,12.05 -33.48,18.08 -64.29,18.08l0 -4.02c0,-20.09 -2.61,-34.01 -8.04,-41.52 -6.15,-8.53 -16.52,-12.73 -30.81,-12.73 -98.51,0 -145.41,102.99 -145.41,186.85 0,33.04 7.82,60.73 23.44,83.05 19.64,29.02 49.33,43.53 89.07,43.53 41.97,0 82.82,-19.42 122.56,-58.26 1.78,0 5.14,2.45 10.05,7.36 22.76,22.77 34.15,41.97 34.15,57.59 0,7.59 -15.85,20.32 -47.55,38.18 -39.29,21.87 -80.14,32.82 -122.56,32.82zm612.58 -40.66c5.44,4.26 10.2,6.17 9.52,7.36 -10.3,17.66 -65.1,37.47 -71.72,31.17 -20.8,-19.83 -24.28,-34.57 -32.43,-49.87 -58.23,57.54 -134.48,67.19 -158.3,-24.52 -13.03,-50.2 -15.14,-167.71 -12.19,-224.6 0.53,-10.36 62.82,-15.19 77.87,-9.81 -4.8,43.23 -8.06,148.21 2.38,188.6 14.94,57.89 87.36,32.47 87.04,-13.74 -0.15,-20.55 -0.09,-166.64 4.2,-170.93 17.51,-17.51 81.01,-14.21 80.24,-8.89 -6.75,46.97 -23.82,246.09 13.39,275.23zm-323.12 -38.12c2.61,19.59 8.7,37.51 19.42,53.58 0,13.04 -61.97,27.57 -78.1,27.57 -2.24,0 -5.73,-4.64 -10.05,-14.07 -29.41,-64.25 -9.97,-353.69 -7.09,-438.35 0.16,-4.46 7.59,-9.6 22.78,-15.41 14.73,-5.8 28.12,-8.71 40.18,-8.71 11.16,0 16.92,0.91 16.75,2.69 -0.57,5.77 -1.13,12.58 -1.67,20.23 -6.4,91.03 -12.91,292.63 -2.22,372.47zm360.71 64.55c2.71,-12.46 14.62,-24.12 14.23,-106.25 -0.15,-32.61 -8.14,-321.58 -0.95,-330.38 18.39,-22.51 82.31,-29.65 81.31,-21.43 -4.63,37.95 -9.74,94.57 -6.17,162.88 119.6,-20.35 191.19,38.44 191.19,147.73 0,96.16 -66.81,181.49 -193.05,140.09 -2.27,9.79 -3.85,13.09 -7.65,16.11 -18.44,14.65 -82.06,5.64 -78.91,-8.75zm92.37 -78.92c72.41,19.58 106.36,-7.02 110.31,-64.86 4.78,-69.77 -50.74,-98.34 -113.06,-82.74 1.86,47.46 4.54,108.05 2.75,147.6z"/>
    <path class="fil3" d="M2405.72 684.98c0,-159.58 119.48,-292.55 288.33,-268.29 4.1,0.59 7.92,1.47 11.48,2.61 -7.58,-5.57 -16.99,-9.56 -28.56,-11.22 -168.84,-24.26 -288.34,108.71 -288.34,268.29 0,59.38 16.08,106.93 48.23,142.66 7.12,8.02 14.87,15.23 23.25,21.61 -2.11,-2.08 -4.16,-4.23 -6.17,-6.49 -32,-35.83 -48.22,-89.79 -48.22,-149.17z"/>
    <path class="fil3" d="M2653.93 499.57c5.43,7.51 8.04,21.43 8.04,41.52l0 4.02c6.04,0 11.71,-0.23 17.03,-0.69 -0.16,-29.44 -4.67,-57.44 -51.47,-57.44 12.03,0.8 20.9,4.96 26.4,12.59z"/>
    <path class="fil3" d="M2712.78 742.01c-39.74,38.84 -80.59,58.26 -122.56,58.26 -22.23,0 -41.32,-4.54 -57.26,-13.63 66.54,43.12 140.49,17.39 193.91,-33.14 -1.31,-1.37 -2.65,-2.74 -4.04,-4.13 -4.91,-4.91 -8.27,-7.36 -10.05,-7.36z"/>
    <path class="fil3" d="M2800.51 427.91c-2.88,84.66 -22.32,374.1 7.09,438.35 4.32,9.43 7.81,14.07 10.05,14.07 2.28,0 5.47,-0.29 9.28,-0.83 -0.72,-1.38 -1.47,-2.93 -2.25,-4.63 -29.4,-64.25 -9.98,-353.68 -7.08,-438.35 0.14,-4.47 7.59,-9.6 22.76,-15.41 14.38,-5.66 27.48,-8.56 39.31,-8.7 0.18,-2.08 0.36,-4.06 0.55,-5.93 0.17,-1.78 -5.59,-2.69 -16.75,-2.69 -12.06,0 -25.45,2.91 -40.18,8.71 -15.19,5.81 -22.62,10.95 -22.78,15.41z"/>
    <path class="fil3" d="M2934.33 576.84c-2.95,56.89 -0.84,174.4 12.19,224.6 10.64,40.98 31.76,61.72 57.06,67 -17.63,-9.08 -32.22,-28.52 -39.98,-58.39 -13.02,-50.19 -15.13,-167.7 -12.18,-224.6 0.39,-7.85 36.23,-12.53 60.13,-11.99 0.2,-2.28 0.43,-4.42 0.65,-6.43 -15.05,-5.38 -77.34,-0.55 -77.87,9.81z"/>
    <path class="fil3" d="M3105.82 570.96c-4.29,4.29 -4.35,150.38 -4.2,170.93 0.18,26.21 -23.03,45.73 -45.88,47.15 20.69,1.33 63.19,-17.97 62.93,-59.13 -0.12,-20.52 -0.05,-146.06 4.23,-150.34 11.45,-11.45 42.58,-14 62.54,-12.91 0.2,-1.66 0.42,-3.19 0.62,-4.59 0.77,-5.32 -62.73,-8.62 -80.24,8.89z"/>
    <path class="fil3" d="M3124.05 834.57c-3.64,-11.27 -9.58,-15.85 -19.23,-8.61 8.15,15.3 11.63,30.04 32.43,49.87 1.36,1.31 4.79,1.49 9.45,0.81 -14.42,-15.94 -18.05,-27.83 -22.65,-42.07z"/>
    <path class="fil3" d="M3251.27 757.48c0.39,82.13 -11.52,93.79 -14.23,106.25 -1.16,5.29 6.72,9.85 18.05,12.78 -0.93,-1.32 -1.29,-2.72 -0.98,-4.17 2.73,-12.46 14.63,-24.12 14.24,-106.25 -0.15,-32.61 -8.14,-321.58 -0.95,-330.38 12.02,-14.71 43.47,-22.85 63.56,-24.44 0.22,-1.91 0.45,-3.78 0.67,-5.6 1,-8.22 -62.92,-1.08 -81.31,21.43 -7.19,8.8 0.8,297.77 0.95,330.38z"/>
    <path class="fil3" d="M3342.54 577.16c43.5,-7.51 80.65,-4.47 110.32,7.72 -31.97,-18.99 -75.1,-25.23 -127.4,-16.33 0.15,4.2 3.47,10.95 17.08,8.61z"/>
    <path class="fil3" d="M3456.81 728.56c2.95,-43.15 -17.17,-70.53 -47.67,-81.47 20.61,14 32.95,38.4 30.58,72.86 -3.95,57.84 -37.9,84.44 -110.31,64.86 74.3,28.82 123.44,1.58 127.4,-56.25z"/>
   </g>
   <g>
    <path class="fil0" d="M484.29 173.35c16.94,-31.39 37.38,-61.46 58.24,-89.87 26.91,-36.68 63.25,-76.32 110.84,-82.6 49.61,-6.53 87.29,24.02 107.07,66.99 21.08,45.85 27.57,111.81 29.38,167.31 24.29,18.16 44.74,41.4 62.03,66.74 81.81,-43 157.74,21.18 145.32,118.53 -7.11,55.75 -24.27,106.53 -43.81,158.09 126.71,220.06 93.47,398.01 -157.88,491.09 -79.71,108.06 -237,125.67 -351.7,62.93 -20.18,-11.04 -37.14,-24.75 -56.45,-36.57 -31.36,-19.2 -71.06,-32.59 -104.94,-47.54 -53.66,-23.67 -100.5,-51.32 -144.36,-90.7 -140.5,-126.14 -190.59,-299.89 -70.23,-446.23 -20.72,-47.29 -10.92,-106.02 28.86,-143.51 8.22,-7.74 16.95,-14.18 26.24,-19.24 2.29,-17.95 6.08,-35.71 11.87,-52.73 32.71,-96.11 144.17,-142.66 218.34,-57.78 1.59,1.81 3.15,3.64 4.69,5.48 37.02,-32.44 79.17,-59.91 126.49,-70.39z"/>
    <g>
     <path class="fil5" d="M519.92 223.01c17.05,-37.3 42.29,-74.94 66.21,-107.53 16.44,-22.41 44.63,-57.05 74.3,-60.97 25.07,-3.3 41.26,15.1 50.87,35.97 20.44,44.45 24.6,122.49 25.01,174.76 44.41,22.76 76.15,69.97 98.2,114.45 9.4,-6.64 18.75,-13.38 27.82,-20.37 51.73,-39.76 88.54,-3.38 81.18,54.29 -7.69,60.29 -28.54,114.47 -50.07,170.09 136.81,221.25 94.79,363.19 -132.8,440.91 -59.86,97.71 -195.39,112.75 -290.89,60.49 -20.75,-11.35 -34.4,-23.14 -54.18,-35.24 -64.31,-39.36 -152.17,-52.24 -241.41,-132.36 -121.29,-108.89 -178.57,-266.33 -36.5,-401.7 -35.49,-27.34 -33.48,-80.55 -3.9,-108.42 12.69,-11.96 25.24,-17.27 40.37,-17.83 0.55,-25.59 3.73,-52.25 11.84,-76.08 19.34,-56.82 79.68,-93.1 126.41,-39.62 13.84,15.84 26.41,34.21 38.59,51.97 44.38,-47.07 103.24,-100.1 168.95,-102.81z"/>
     <path class="fil6" d="M742.06 1009.55c206.69,-79.85 248.21,-212.44 133.64,-403.37 -21.61,-36.02 -34.36,-100.01 -51.68,-174.68 -31.82,-137.23 -125.53,-179.56 -280,-171.58 -107.79,5.56 -215.81,151.96 -337.76,258.79 -197.64,169.17 -123.12,336.84 223.56,502.98 95.8,66.33 237.2,101.41 312.24,-12.14z"/>
     <path class="fil7" d="M509.78 253c6.38,1.81 12.32,6.31 17.82,13.49 10.9,14.71 7.7,26.34 -9.64,34.91 -34.79,23.24 -55.73,103.12 -105.43,125.01 -50.52,1.14 -87.02,22.94 -80.52,60.25 -17.3,37.62 -21.05,71.13 92.35,140.29 38.71,23.61 -2.75,48.63 -45.57,43.72 -168.3,-27.9 -170.76,90.42 -90.46,190.36 49.32,58.38 131.87,100.3 198.33,172.13 -43.56,-11.29 -73.82,-15.77 -202.49,-81.98 -153.36,-122.25 -248.57,-280.68 -106.78,-419.23 10.44,-6.84 38.67,-32.78 66.86,-55.61 28.27,-22.9 60.97,-51.31 89.05,-80.09 68.78,-70.47 122.92,-143.25 176.48,-143.25z"/>
     <path class="fil3" d="M680.92 767.87c76.51,23.26 103.25,-17.98 51.29,-57.85 -17.98,-13.81 -39,-44.75 -11.3,-75.25 1.56,4.83 2.7,7.01 4.39,10.05 13.36,24.02 28.45,34.64 43.5,45.24 37.64,26.46 27.64,67.84 -7.05,90.37 -26.07,16.93 -44.16,11.69 -75.47,9.06l-13.14 -7.12c0,-4.16 7.64,-5.17 7.78,-14.5z"/>
     <path class="fil3" d="M851.53 794.63c-178.39,116.43 -337.52,2.8 -494.32,-61.01 -37.65,-15.32 -46.71,27.19 -30.55,57.42 33.96,63.49 253.19,264.62 470.21,114.6 18.27,-12.63 57.62,-52.38 65.74,-72.25 6.44,-15.73 7.55,-50.92 -11.08,-38.76z"/>
     <path class="fil3" d="M681.01 266.85c107.51,35.95 156.96,234.05 175.54,322.06 88.8,122.41 104.75,259.84 7.13,351.59 -42.63,40.07 -170.74,95.25 -205.71,86.35 187.8,-79.96 298.21,-203.28 159.26,-413.73 -24.26,-36.75 -1.86,-232.6 -136.01,-321.71 0.99,-7.25 0.45,-17.16 -0.21,-24.56z"/>
     <path class="fil3" d="M787.09 590.16c-28.95,-196.51 -167.07,-178.24 -311.59,-52.95 39.7,20.97 63.01,34.57 95.26,47.08 100.73,39.08 132.05,23.9 216.33,5.87z"/>
     <path class="fil3" d="M712.98 316.98c4.41,-3.46 -7.78,-161.3 -29.79,-219.88 -6.51,-17.33 -9.76,-17.43 -23.86,-5.42 -22.3,19 -137.65,186.15 -96.86,208.23 43.01,23.29 127.91,34.83 150.51,17.07z"/>
     <path class="fil8" d="M534.63 299.05c-12.16,-60.38 73.73,-159.78 94.95,-188.69 10.23,-13.94 28.64,-43.21 45.11,-22.84 -22.07,24.34 -84.62,182.02 -75.44,228.11l-23.81 -2.35c-6.81,0 1.06,-2.12 -16.95,-2.12 -1.47,0 -16.66,-11.17 -23.86,-12.11z"/>
     <path class="fil7" d="M857.02 554.72c29.26,-39.94 47.39,-86.26 54.37,-138.95 7.34,-36.32 0.91,-50.01 -19.32,-41.07 -7.85,4.11 -30.21,18 -67.07,41.68l32.02 138.34z"/>
     <path class="fil1" d="M844.99 551.8c21.83,-33.54 43.78,-94.85 53.07,-142.7 2.74,-14.11 -1.32,-32.82 -15.06,-23.18 -38.72,27.15 -48.16,36.52 -62.78,39.85 -4.63,1.06 -4.67,-13.13 -10.28,-13.03 2.13,-1.45 38,-25.79 59.48,-42.3 42.73,-32.85 67.71,-4.09 61.69,43.13 -8.18,64.06 -46.38,160.95 -51.5,172.34 -10.79,24.46 -45.41,-9.65 -34.62,-34.11z"/>
     <path class="fil1" d="M713.39 270.29c107.51,35.95 156.96,234.07 175.54,322.06 88.81,122.42 104.75,259.83 7.13,351.6 -54.22,50.95 -166.41,92.76 -238.09,82.9 208.93,-67.76 345.81,-176.79 191.64,-410.28 -24.27,-36.76 -23.42,-256.26 -136.01,-321.72 1,-7.24 0.45,-17.16 -0.21,-24.56z"/>
     <path class="fil1" d="M490.41 437.81c74.4,-98.42 289.47,-133.2 303.91,50.15 -55.41,-120.72 -147.15,-118.39 -303.91,-50.15z"/>
     <path class="fil1" d="M573.05 680.27c-45.94,48.43 9.07,64.32 31.24,50.01 13.84,-8.92 23.19,-13.32 28.46,-5.07 48.07,75.3 180.22,19.63 132.68,-18.46 -17.7,-14.18 -46.3,-31.42 -40.12,-61.93 23.08,31.88 47.21,35 64.19,46.94 37.64,26.47 27.64,67.85 -7.06,90.38 -50.69,32.91 -127.49,34.33 -167.39,-17.02 -78.64,32.47 -130.03,-61.92 -42,-84.85z"/>
     <path class="fil8" d="M822.25 818.65c-143.77,106.53 -309.94,34.62 -405.14,3.04 -19.37,-6.42 -33.35,15.13 -29.03,35.06 -30.9,8.57 -91.53,-98.4 -69.04,-132.44 9.88,0.4 20.57,3.04 31.52,8.26 177.42,84.59 287.09,162.87 471.72,73.51 0.3,8.74 0.37,3.68 -0.03,12.57z"/>
     <path class="fil1" d="M846.59 804.2c-166.54,116.43 -329.28,20.39 -475.67,-43.42 -15.23,-6.64 -22.53,6.72 -13.58,24.64 31.7,63.48 245.32,241.42 436.73,105.8 17.3,-12.26 54.17,-43.59 61.76,-63.46 6.02,-15.75 8.17,-35.73 -9.24,-23.56zm-50.51 116.66c-139.23,109.47 -331.99,43.16 -449.97,-68.59 -100.31,-95.01 -40.52,-167.51 29.83,-133.97 178.1,84.91 287.91,163.48 473.82,72.5 26.75,-13.1 28.69,15.12 21.07,39.56 -8.41,27 -53.4,73.7 -74.75,90.5z"/>
     <path class="fil9" d="M559.02 472.87c108.61,-44.41 178.28,-29.34 209,45.21 -45.66,113.33 -136.9,77.27 -171.42,49.95 -20.5,-16.22 -33.02,-47.94 -37.58,-95.16z"/>
     <path class="fil10" d="M773.42 530.29c-18.19,48.98 -63.19,83.54 -116.44,79.69 -63.29,-4.56 -110.62,-61.79 -112.53,-127.32l31.7 -15.33c-3.22,29.65 4.94,59.71 23.59,82.78 16.1,19.9 39.02,33.15 64.92,35.02 46.01,3.32 83.72,-29.52 95.43,-73.63 3.41,5.49 8.63,12.03 13.33,18.79z"/>
     <path class="fil1" d="M731.56 466.29c4.17,9.81 6.28,20.85 5.72,32.36 -1.79,37.25 -30.72,65.48 -64.62,63.03 -33.9,-2.44 -59.92,-34.62 -58.13,-71.87 0.77,-16.06 6.58,-30.42 15.66,-41.39 20.04,-7.76 47.94,-12.65 101.37,17.87z"/>
     <path class="fil1" d="M812.72 598c-39.58,-18.97 -73.43,61.29 -252.89,6.86 -50.89,-15.45 -82.79,-33.42 -127.83,-51.23 -28.96,-11.46 -44.12,-11.19 -63.66,-8.54 20.76,-24.54 48.67,-28.37 76.52,-22.61 55.51,-47.08 132.47,-94.28 197.82,-100.01 79.04,-6.91 151.53,41.71 149.44,162.6 10.24,-0.62 18.36,6 20.6,12.93zm-31.06 -12.27c-26.97,-172.76 -155.58,-156.69 -290.15,-46.55 36.97,18.44 58.68,30.39 88.71,41.39 93.8,34.36 122.95,21.01 201.44,5.16z"/>
     <path class="fil1" d="M736.54 1013.03c-1.22,3.65 19.52,-2.99 17.78,0.26 -58.78,109.7 -199.25,109.93 -280.76,65.33 -68.91,-37.7 -35.28,-33.53 -110.98,-61.9 -91.08,-34.14 -183.52,-96.45 -239.04,-172.72 -90.36,-124.15 -71.61,-246.64 29.34,-332.46 0,0 134.93,-99.43 134.93,-99.43 58.96,-61.22 150.54,-190.87 253.14,-174.73 -3.25,1.23 -10.07,28.42 -13.35,29.11 -76.81,16.44 -121.84,69.44 -182.92,140.08 -49.42,57.15 -95.58,95.91 -151.26,143.37 -85.1,72.56 -73.61,179.38 -23.03,259.54 44.85,71.06 128.46,125.51 209.21,161.19 57.32,25.32 89.12,49.6 109.77,62.85 78.51,50.36 158.62,64.46 247.17,-20.49z"/>
     <path class="fil6" d="M258.3 532.18c20.85,-12.03 43.95,-28.11 73.71,-45.52 36.33,0.7 66.18,-24.87 80.52,-60.25 -49.85,-13.26 -90.32,-77.73 -116.25,-109.05 -39.33,-47.51 -75.93,-38.95 -86.24,20.05 -14.48,104.71 1.62,173.17 31.23,205.38l17.03 -10.61z"/>
     <path class="fil7" d="M257 552.69c27.73,-6.28 50.36,-4.91 61.58,-50.14 -59.21,-36.17 -66.66,-81.69 -58.14,-138.62 -12.43,-14.94 -30.8,-15.84 -38.07,4.44 -19.68,69.45 -14.84,131.5 26.34,186.17l8.29 -1.85z"/>
     <path class="fil3" d="M412.53 426.41c-108.37,39.53 -162.61,-174.42 -191.39,-53.11 -8.69,36.62 -17.85,99.62 21.77,168.46 -16.24,-14.34 -24.74,-1.35 -41.78,-74.43 -9.76,-41.85 -13.14,-91.94 4.27,-143.09 15.98,-46.98 44.13,-61.73 85.1,-14.84 30.9,35.35 80.63,81.58 122.03,117.01z"/>
     <path class="fil3" d="M691.49 542.2c-5.2,1.97 -10.85,2.87 -16.71,2.44 -23.69,-1.7 -41.88,-24.19 -40.63,-50.23 0.36,-7.39 2.24,-14.27 5.3,-20.3 -1.22,35.11 18.61,63.92 52.04,68.09z"/>
     <path class="fil1" d="M288.33 861.03c-138.14,-122.18 -46.82,-253.09 90.47,-190.36 -130.08,-8.47 -160.52,59.55 -90.47,190.36z"/>
     <path class="fil1" d="M502.1 796.85c0.05,34.97 0.64,81.42 -11.84,116.95 -1.83,5.24 -4.25,6.73 -6.69,11.61 -2.89,-27.94 0.78,-79.98 -4.59,-123.5 -1.4,-6.39 2.64,-12.7 9.03,-14.09 6.38,-1.4 12.69,2.65 14.09,9.03z"/>
     <path class="fil1" d="M516.88 924.76c19.53,-22.37 57.4,-74.79 74.26,-92.72l5.18 4.47c0.3,12.22 -56.43,99.86 -58.58,103.17 -3.88,5.27 -13.08,5.5 -18.34,1.63 -5.26,-3.87 -6.4,-11.28 -2.52,-16.55z"/>
     <path class="fil1" d="M364.85 835.93c0.58,-0.42 82.3,-62.21 91.02,-60.04 -0.2,0.62 -0.06,0.15 -0.31,1.42l0.34 0.39 0.32 -1.91 2.17 -0.97 2.04 2.34c-3.3,15.12 -69.5,77.29 -75.32,83.04 -6.7,5.6 -16.67,4.69 -22.26,-2 -5.6,-6.71 -4.7,-16.68 2,-22.27zm92.08 -57.06l0.61 0.71 0.83 -0.32 -1.44 -0.39z"/>
     <path class="fil1" d="M704.37 307.94c3.92,-3.08 -6.93,-143.73 -26.55,-195.94 -5.8,-15.44 -10.2,-15.53 -21.26,-4.83 -18.76,18.16 -122.67,165.89 -86.33,185.57 38.33,20.75 114,31.04 134.14,15.2zm17.41 13.12c-1.45,22.67 -114.02,38.93 -194.87,-10.3 -45.7,-27.83 40.23,-150.43 67.57,-187.69 55.14,-75.14 86.7,-65.83 104.46,-27.25 26.86,58.38 25.13,189.54 22.84,225.24z"/>
     <path class="fil1" d="M636.51 841.14c9.66,36.92 21.23,85.74 11.95,125.43 -8.66,-24.95 -17.77,-75.41 -32.52,-114.36 -2.89,-5.53 -1.09,-12.95 4.76,-15.85 5.85,-2.89 12.92,-0.76 15.81,4.78z"/>
     <path class="fil1" d="M672.66 945.56c13.89,-25.5 39.04,-85.67 51.43,-107.53l2.18 0.82c3.31,11.77 -31.96,110.28 -33.23,114.03 -2.45,6.06 -9.35,8.99 -15.41,6.54 -6.05,-2.46 -7.42,-7.8 -4.97,-13.86z"/>
     <path class="fil1" d="M753.9 838.01c9.4,25.35 21.47,57.2 15.87,85.23 -8.29,-16.91 -17.24,-50.53 -30.8,-77.09 -2.55,-3.73 -2.44,-8.59 2.09,-10.83 4.55,-2.26 10.29,-1.05 12.84,2.69z"/>
     <path class="fil1" d="M787.02 898.57c8.81,-24.46 17.91,-66.33 26.48,-89.65l1.78 0.47c3.6,8.98 -9.56,91.26 -10.25,94.31 -1.41,4.99 -6.59,7.86 -11.57,6.45 -4.97,-1.42 -7.86,-6.6 -6.44,-11.58z"/>
     <path class="fil1" d="M836.05 806c5.3,16 11.08,39.36 6.96,56.69 -0.47,-1.15 -2.7,0 -3,-1.48 -2.3,-11.57 -7.34,-35.43 -14.37,-50.5 -2.34,-3.71 7.91,-8.69 10.41,-4.71z"/>
     <path class="fil1" d="M412.53 426.41c-82.71,21.35 -152.85,-200.88 -181.65,-79.57 -8.69,36.62 -17.85,129.83 21.78,198.68 -6.24,4.61 -43.43,11.61 -60.48,-61.48 -9.76,-41.85 -15.23,-114.32 2.18,-165.47 15.99,-46.98 64.91,-82.52 105.89,-35.63 30.91,35.35 70.88,108.04 112.28,143.47z"/>
     <path class="fil1" d="M240.21 381.85c3.22,-19.19 16.64,-35.35 26.94,-4.26 9.08,27.37 25.97,80.62 64.86,109.07 -81.66,67.92 -102.88,-38.67 -91.8,-104.81z"/>
     <ellipse class="fil3" cx="709.68" cy="489.43" rx="18.98" ry="21.16"/>
     <path class="fil1" d="M255.73 456.39c-26.96,4.87 -31.44,10.16 -31.44,18.8 0,17.43 -19.74,35.87 -32,39.22 -80.57,13.41 -86.24,-65.77 -53.6,-96.51 18.4,-17.33 34.26,-15.76 53.15,-12.68 6.64,32.67 53.76,26.65 71.96,36.12 18.08,9.4 -2.73,14.08 -8.07,15.05z"/>
     <path class="fil11" d="M269.78 444.83c-45.01,-0.33 -97.74,8.38 -92.68,20.31 0.9,2.12 6.93,4.02 12.05,4.13 0.94,5.25 1.96,10.19 3.03,14.77 0.27,1.19 0.55,2.35 0.84,3.48 -37.93,12.3 -52.35,-21.97 -42.14,-45.11 19.22,-43.53 86.1,-28.37 117.19,-11.29 10.14,5.57 7.14,13.75 1.71,13.71z"/>
     <path class="fil3" d="M183.28 428.69c3.31,-1.29 6.77,-2.38 10.35,-3.27 18.8,-4.72 40.55,-4.26 59.66,-0.82 0.51,0.1 1.02,0.19 1.54,0.29 -0.2,-0.08 -0.41,-0.16 -0.61,-0.25 -5.58,-2.22 -11.65,-4.26 -17.99,-5.94 -4.7,-1.25 -9.54,-2.3 -14.42,-3.09 -3.19,-0.5 -6.38,-0.91 -9.56,-1.18 -0.6,-0.05 -1.2,-0.1 -1.8,-0.14 -2.4,-0.18 -4.81,-0.27 -7.19,-0.27 -2.71,-0.01 -5.41,0.09 -8.06,0.3 -0.9,0.07 -1.81,0.16 -2.7,0.27 -3.5,0.4 -6.9,1.03 -10.18,1.9 -4.19,1.12 -8.18,2.65 -11.87,4.64 -8.34,4.5 -15.19,11.37 -19.57,21.28 -4.33,9.8 -4.23,21.59 0.19,31.01 -1.83,-21.46 13.15,-37.27 32.21,-44.73z"/>
    </g>
   </g>
  </g>
 </g>
</svg>
