<svg width="124" height="34" viewBox="0 0 124 34" fill="none" xmlns="http://www.w3.org/2000/svg">
<path fill-rule="evenodd" clip-rule="evenodd" d="M62.6554 9.50554C62.2092 8.02278 62.1786 6.40301 62.6493 4.97201C63.5387 2.28052 65.9136 1.71421 68.4137 1.60156C70.0091 1.52848 71.6046 1.54066 73.2031 1.54066C77.1153 1.54066 81.3331 2.32314 84.3926 4.91721C84.7196 5.19123 85.0253 5.48657 85.3126 5.79408C87.6996 1.41583 91.352 0.837341 96.3125 0.837341C97.7368 0.837341 99.0205 1.49195 99.8457 2.54236C100.096 2.43884 100.35 2.34446 100.604 2.25921C103.44 1.29709 107.114 1.04742 108.847 4.04034C109.195 4.64014 109.522 5.25821 109.834 5.87933C110.149 5.41349 110.47 4.9507 110.803 4.494C111.732 3.21524 112.649 2.02172 114.26 1.55589C115.687 1.14485 117.481 1.44019 118.899 1.82077C120.052 2.12828 121.213 2.60934 122.139 3.37356C123.435 4.44224 124.095 5.925 123.924 7.61175C123.829 8.57387 123.45 9.42942 122.802 10.151C120.168 13.0891 117.24 17.513 116.032 21.3037C115.922 21.9583 116.026 23.234 116.054 23.9069C116.103 25.0578 116.158 26.2269 116.317 27.3687C116.561 29.1376 115.779 30.8579 114.33 31.8931C111.974 33.5707 106.475 33.6498 104.161 31.7561C102.169 32.9008 99.4851 33.2814 97.5168 33.0348C94.9738 32.7151 93.5098 30.6569 92.596 28.4526C92.1864 28.4952 91.7768 28.547 91.3703 28.6048C91.3276 30.6661 89.8391 32.505 87.7332 32.9313C84.6432 33.5585 79.0286 32.6116 78.1056 29.0615C77.7755 27.7858 77.9466 26.3091 78.2614 24.9177C77.7052 25.14 77.1367 25.3379 76.5621 25.5084C76.5712 25.6028 76.5774 25.7002 76.5835 25.7946C76.611 26.1264 76.6446 26.4553 76.7118 26.7841C77.0114 28.276 76.5621 29.7527 75.4832 30.8274C73.7899 32.5142 71.3937 32.9039 69.0983 32.9039C68.0011 32.9039 66.9252 32.7334 65.935 32.2402C65.9319 32.2402 65.9289 32.2371 65.9258 32.2371C65.0883 32.5933 64.1653 32.7791 63.2667 32.8734C61.9464 33.0105 60.3693 33.0348 59.1131 32.5872C58.6821 32.435 58.2848 32.2188 57.9303 31.957C56.7444 32.5781 55.3659 32.8278 54.0242 32.8795C53.3915 32.9039 52.7527 32.8887 52.1231 32.8065C50.7691 32.6329 49.574 32.0209 48.7702 31.0954C47.08 32.1945 45.0873 32.776 42.9142 32.776C40.6738 32.776 38.5282 32.1793 36.7066 30.9857C36.1167 31.4272 35.4565 31.7865 34.7811 32.0879C33.6135 32.6055 32.1526 33.0835 30.8689 33.0835C30.0712 33.0835 29.3223 32.8948 28.6469 32.5446C27.6016 32.8826 26.4921 33.0683 25.4101 33.0683C23.4602 33.0683 21.6019 32.5081 20.0737 31.4546C19.9086 31.6099 19.7313 31.756 19.5418 31.8931C18.9642 32.3041 18.3193 32.5842 17.6347 32.7699C16.8125 32.9922 15.9475 33.0866 15.0978 33.1201C13.1295 33.1992 10.8036 33.0287 9.26317 31.6647C8.28818 30.8 7.75636 29.6217 7.75636 28.3186C7.75636 26.7445 7.87862 25.1765 7.95503 23.6054C7.99476 22.7468 8.05283 21.7086 7.91224 20.85C7.7747 20.4207 7.46295 19.8392 7.27651 19.4525C6.75386 18.3595 6.18843 17.2847 5.60466 16.2221C4.99949 15.1291 4.36987 14.0452 3.68829 13.0008C3.39182 12.5441 2.92419 11.7921 2.53297 11.4206C0.283462 9.28937 0.476015 5.94022 2.76526 3.91856C3.63633 3.14825 4.72136 2.62761 5.81555 2.25921C8.65189 1.29709 12.3257 1.04742 14.0587 4.04034C14.4071 4.64014 14.7341 5.25821 15.0459 5.87933C15.3607 5.41349 15.6816 4.9507 16.0148 4.494C16.9439 3.21524 17.8608 2.02172 19.4716 1.55589C20.8989 1.14485 22.693 1.44019 24.1112 1.82077C25.2634 2.12828 26.4249 2.60934 27.351 3.37356C28.6469 4.44224 29.3071 5.925 29.1359 7.61175C29.0962 8.02278 29.0014 8.41555 28.8608 8.78395C31.3793 9.19803 33.693 10.2119 35.3159 12.0296C39.1517 8.10194 45.7627 7.22203 50.0356 10.4951C51.5974 9.2437 53.5688 8.787 55.5738 8.787C56.0964 8.787 56.6099 8.82658 57.1203 8.94836C57.5207 9.04275 57.9089 9.18889 58.2695 9.37766C58.9297 9.23761 59.6052 9.17063 60.2837 9.17063C61.1303 9.17063 61.9219 9.28632 62.6554 9.50554Z" fill="white"/>
<path fill-rule="evenodd" clip-rule="evenodd" d="M18.9122 27.0551C18.9214 27.116 18.9275 27.1738 18.9366 27.2317C19.0711 28.206 18.6341 29.1285 17.8363 29.6948C17.4726 29.9567 17.0569 30.1272 16.626 30.2429C15.9719 30.4225 15.2506 30.4925 14.5752 30.5199C13.2517 30.5717 11.3048 30.523 10.2748 29.6096C9.76132 29.1559 9.49847 28.5683 9.49847 27.8832C9.49847 26.3426 9.62072 24.8142 9.69408 23.2736C9.74298 22.214 9.79494 20.9718 9.59933 19.9214C9.44957 19.3855 9.04612 18.5878 8.80467 18.0855C8.26368 16.9559 7.67991 15.8385 7.07474 14.7424C6.44818 13.6067 5.788 12.4741 5.07891 11.3841C4.68769 10.7874 4.11615 9.90745 3.59961 9.41725C2.27008 8.15676 2.44429 6.28123 3.77383 5.10903C4.41567 4.53968 5.27452 4.14996 6.08141 3.87594C7.82662 3.28831 10.6141 2.74636 11.7388 4.68887C12.6435 6.25383 13.4259 7.99843 14.1717 9.64865C14.2206 9.75521 14.2695 9.86178 14.3154 9.96834C14.7066 9.31374 15.0856 8.71393 15.3851 8.23896C16.0086 7.25249 16.6566 6.27515 17.3412 5.33129C17.9311 4.51837 18.6279 3.4984 19.6427 3.20611C20.6177 2.926 22.1336 3.21829 23.1086 3.48013C24.7805 3.9277 26.7427 4.88677 26.5349 6.96324C26.4859 7.46866 26.2995 7.89187 25.9572 8.27246C25.3979 8.89661 24.8233 9.58471 24.2578 10.3185C24.7193 10.2911 25.1778 10.2972 25.5935 10.2972C29.9397 10.2972 33.5401 11.8591 34.6618 15.6101C35.0561 14.8398 35.5421 14.1122 36.1167 13.4575C39.7263 9.33505 46.8171 8.93315 49.8766 13.4971C49.9958 12.9613 50.2067 12.468 50.5826 12.0905C51.793 10.8878 53.4831 10.5225 55.1397 10.5225C55.4881 10.5225 55.8427 10.5438 56.1819 10.6229C56.6649 10.7386 57.0958 10.9792 57.4259 11.308C58.1778 11.0431 58.9877 10.9031 59.8496 10.9031C62.5943 10.9031 64.3914 12.5228 65.3053 14.8581C65.3267 13.3814 65.3481 11.9078 65.3695 10.4372C64.1714 9.0458 63.7374 6.8719 64.2845 5.21255C64.8407 3.51971 66.6073 3.40097 68.0775 3.33398C69.6301 3.26396 71.2103 3.27309 72.766 3.27309C76.125 3.27309 79.9088 3.89725 82.5465 6.13509C83.8577 7.2464 84.7348 8.64999 85.123 10.1997C85.5173 9.23457 85.9207 8.27854 86.3333 7.33469C88.3017 2.8377 91.4192 2.57281 95.8785 2.57281C97.0246 2.57281 97.9843 3.38574 98.1677 4.51228C98.2105 4.78934 98.2564 5.06945 98.3053 5.3587C98.3847 5.27345 98.4703 5.18819 98.562 5.10903C99.2038 4.53968 100.063 4.14996 100.87 3.87594C102.615 3.28831 105.402 2.74636 106.527 4.68887C107.432 6.25383 108.214 7.99843 108.96 9.64865C109.009 9.75521 109.058 9.86178 109.104 9.96834C109.495 9.31374 109.874 8.71393 110.173 8.23896C110.797 7.25249 111.445 6.27515 112.129 5.33129C112.719 4.51837 113.416 3.4984 114.431 3.20611C115.406 2.926 116.922 3.21829 117.897 3.48013C119.569 3.9277 121.531 4.88677 121.323 6.96324C121.274 7.46866 121.088 7.89187 120.745 8.27246C117.9 11.445 114.758 16.2373 113.486 20.3324C113.318 21.0449 113.41 22.7864 113.444 23.5628C113.493 24.7594 113.56 26.0473 113.725 27.2317C113.859 28.206 113.422 29.1285 112.624 29.6948C110.974 30.8731 106.451 30.8366 105.063 29.6096C104.549 29.1559 104.287 28.5683 104.287 27.8832C104.287 26.3426 104.409 24.8142 104.482 23.2736C104.531 22.214 104.583 20.9718 104.388 19.9214C104.238 19.3855 103.834 18.5878 103.593 18.0855C103.052 16.9559 102.468 15.8385 101.863 14.7424C101.236 13.6067 100.576 12.4741 99.8671 11.3841C99.6684 11.0796 99.4239 10.7052 99.1611 10.3428C100.176 15.8111 101.631 21.9157 103.969 25.9072C104.186 26.2787 104.284 26.6441 104.284 27.0734C104.284 29.8805 99.5034 30.7178 97.3517 30.4499C95.3375 30.1972 94.2922 27.801 93.6565 25.7489C92.0733 25.7976 90.5084 26.0108 88.9527 26.3122C88.8335 26.7872 88.7326 27.2682 88.7082 27.6123C88.971 28.8484 88.155 30.1119 86.8652 30.3738C84.7685 30.797 80.3245 30.185 79.7774 28.0842C79.4137 26.6806 80.0402 24.4823 80.4375 23.1092C80.7646 21.9766 81.1313 20.847 81.5195 19.7265C81.3117 19.9123 81.0947 20.0919 80.8777 20.2624C78.8329 21.8669 76.4031 22.893 73.8663 23.4076C73.8877 24.117 73.9244 24.8294 73.9794 25.5297C74.013 25.959 74.0588 26.3579 74.1414 26.775C74.2972 27.5544 74.0741 28.2973 73.5087 28.8606C72.2739 30.0906 70.3209 30.3038 68.6643 30.3038C67.9155 30.3038 67.1514 30.2063 66.4728 29.8684C66.1275 29.6948 65.8432 29.4543 65.6293 29.165C64.8835 29.9019 63.6579 30.1728 62.6034 30.2824C61.6498 30.3829 60.3081 30.4316 59.4095 30.1119C58.5384 29.8014 57.9608 29.0433 57.8813 28.1603C57.7682 28.4495 57.6032 28.7236 57.3556 28.9702C56.3776 29.9414 54.8402 30.2276 53.5045 30.2794C52.9972 30.3007 52.4715 30.2885 51.9672 30.2246C50.5429 30.0419 49.2531 29.0798 49.4915 27.4418C49.5434 27.0734 49.5893 26.7049 49.629 26.3305C48.0672 28.7175 45.6007 30.1759 42.4801 30.1759C39.8944 30.1759 37.654 29.2259 36.0494 27.5635C35.5665 28.5683 34.4784 29.2199 33.4607 29.6735C32.6049 30.051 31.3701 30.4803 30.4348 30.4803C29.6524 30.4803 29.0166 30.1607 28.5062 29.6766C27.3784 30.1911 26.1222 30.4651 24.973 30.4651C22.314 30.4651 20.0675 29.165 18.9122 27.0551ZM92.2383 18.256C91.9846 17.0168 91.8563 16.353 91.7065 15.2509C91.5965 14.4227 90.5787 17.2238 90.4381 18.3503L92.2383 18.256ZM18.6279 20.8439C19.1231 19.62 19.9269 18.5361 20.9447 17.6531C20.6115 17.4339 20.3426 17.1294 20.1592 16.7732C19.5571 17.9819 19.0558 19.1846 18.6982 20.3324C18.6646 20.4694 18.6432 20.643 18.6279 20.8439ZM73.8327 15.053C74.4684 14.8307 75.0644 14.5262 75.5534 14.1213C75.9783 13.7681 76.4612 13.1957 76.4428 12.605C76.4275 12.1727 76.1189 11.8682 75.7582 11.6642C75.2355 11.3689 74.5693 11.2532 73.8999 11.238C73.8907 11.6399 73.8877 12.0357 73.8816 12.3889C73.8602 13.2779 73.8418 14.167 73.8327 15.053ZM42.4801 22.3328C42.7063 22.3328 43.0914 21.4711 43.1494 21.3037C43.4276 20.506 43.5346 19.2942 43.1892 18.5087C42.9844 18.0367 42.5993 18.2346 42.2937 18.5513C41.7588 19.1085 41.6457 20.4634 41.7618 21.2063C41.823 21.599 41.9605 22.3328 42.4801 22.3328Z" fill="black"/>
<path d="M92.0977 10.1267C92.0152 9.81613 91.0739 9.91052 90.9547 10.1389C90.6093 10.8117 88.8488 15.6284 87.4642 19.9884C89.1544 19.7174 91.4467 19.4921 94.0233 19.5804C93.1125 15.5432 92.3912 11.2136 92.0977 10.1267ZM86.419 23.4654C85.8902 25.3866 85.5937 26.845 85.7771 27.2104C85.8505 27.3535 81.4737 27.0612 81.3606 26.6258C80.7493 24.2814 87.0394 9.10063 87.7943 7.37734C89.1667 4.24437 90.9241 4.00079 95.2153 4.00079C96.2728 10.4981 97.9416 20.4451 101.307 26.1935C101.307 26.8694 97.7765 27.3778 96.9788 27.2804C96.2331 27.186 95.4628 25.1857 94.7568 22.5733C91.3153 22.415 88.1336 23.0818 86.419 23.4654Z" fill="#7F86E8"/>
<path d="M70.8374 20.5395C70.9229 24.8812 71.0788 25.7093 71.2072 26.3487C70.6937 26.8602 69.627 27.116 68.001 27.116C67.4906 27.116 67.1055 27.052 66.8488 26.9242C66.8488 23.7942 66.9129 17.6531 67.0413 8.50386C66.2466 8.1385 65.3511 6.48219 65.8218 5.05424C65.9257 4.74064 68.1508 4.7041 72.1027 4.7041C87.8248 4.7041 83.9554 19.3642 70.8374 20.5395ZM70.8374 16.9955C80.8715 16.1034 80.0891 6.55831 71.0452 8.24811C70.9382 9.01232 70.8374 13.0374 70.8374 16.9955Z" fill="#7F86E8"/>
<path d="M51.3987 14.9829C51.3834 13.6646 51.4537 12.9521 51.5607 12.8456C52.1567 12.2488 53.1317 11.9504 54.4765 11.9504C54.9258 11.9504 55.1611 12.0052 55.1489 12.1088C55.1244 12.3462 54.9411 14.4075 55.1489 14.4075C55.1703 14.4075 55.21 14.3923 55.2467 14.3436C56.2767 13.01 57.5849 12.3341 59.1864 12.3341C60.9836 12.3341 62.1725 13.4302 62.7441 15.6223C63.3828 18.0733 63.4868 23.8034 63.3401 26.5801C63.3156 27.0855 60.2653 27.32 59.5287 27.0581C59.7641 24.9482 59.923 19.827 59.4126 17.8571C58.679 15.0317 55.1306 16.2708 55.1489 18.5269C55.1581 19.5317 55.265 26.2482 55.0541 26.4583C54.1953 27.3139 51.0869 27.1525 51.1236 26.8907C51.6401 23.3223 51.4476 18.664 51.3987 14.9829Z" fill="#FFDB59"/>
<path d="M41.817 26.9881C34.9431 26.9881 33.2315 18.6304 37.2018 14.0939C40.0779 10.8117 46.1143 10.562 47.8411 14.9677C49.5374 19.3003 48.104 26.9881 41.817 26.9881ZM39.9587 16.0729C38.0026 18.1037 38.2288 23.7638 41.817 23.7638C44.5586 23.7638 45.7567 19.2302 44.6533 16.7092C43.7486 14.6388 41.386 14.5901 39.9587 16.0729Z" fill="#FFDB59"/>
<path d="M32.0455 19.0384C32.0455 21.6964 32.0791 23.2523 32.1433 23.6998C32.3114 24.869 32.7729 25.0273 33.3292 25.5358C33.3292 26.2543 30.5845 27.2925 29.7715 27.2925C29.2581 27.2925 28.7385 25.8768 28.6498 25.5175C28.6223 25.4048 28.5551 25.4688 28.5153 25.5175C27.6718 26.5375 25.893 27.2773 24.3128 27.2773C18.8174 27.2773 17.8944 19.961 23.5854 17.376C25.1441 16.6697 26.5654 16.3256 27.8491 16.3256C27.8704 16.3256 27.8918 16.3134 27.9132 16.2921C27.9132 15.2478 26.5868 14.7272 23.9399 14.7272C22.8916 14.7272 22.1183 14.855 21.5987 14.855H21.5681C21.5681 13.7285 21.9349 12.7542 22.6898 11.9504C22.8335 11.7951 23.5854 11.7281 24.9332 11.7281C29.6737 11.7281 32.0455 13.6219 32.0455 17.4095V19.0384ZM28.4909 19.8666C28.4909 19.4007 28.4787 19.1663 28.4573 19.1663C27.5159 19.1663 26.5898 19.3581 25.6698 19.7387C21.8402 21.3311 23.4815 25.822 27.3661 23.3801C28.607 22.6037 28.4909 21.121 28.4909 19.8666Z" fill="#FFDB59"/>
<path d="M108.63 14.0817C109.009 12.0083 113.899 4.69193 114.412 4.54274C114.999 4.37528 118.438 5.04207 118.355 5.85195C114.04 10.6625 111.478 15.9786 110.604 18.7857C110.21 20.0554 110.558 25.1552 110.766 26.6684C110.879 27.4874 106.512 27.5118 105.94 27.0064C105.94 23.9465 106.438 20.8714 105.995 18.5757C105.723 17.1782 101.383 8.82051 99.323 6.86583C98.0546 5.66318 103.425 4.21696 103.856 4.96291C105.185 7.25555 107.3 12.2823 108.156 14.1457C108.318 14.5019 108.584 14.3436 108.63 14.0817Z" fill="#7F86E8"/>
<path d="M13.8417 14.0817C14.2207 12.0083 19.1109 4.69193 19.6244 4.54274C20.2112 4.37528 23.6497 5.04207 23.5671 5.85195C19.2515 10.6625 16.6872 15.9786 15.8161 18.7857C15.4218 20.0554 15.7703 25.1552 15.9781 26.6684C16.0912 27.4874 11.7236 27.5118 11.152 27.0064C11.152 23.9465 11.6502 20.8714 11.2071 18.5757C10.935 17.1782 6.59495 8.82051 4.53494 6.86583C3.26653 5.66318 8.63662 4.21696 9.06758 4.96291C10.3971 7.25555 12.5121 12.2823 13.3679 14.1457C13.5299 14.5019 13.7958 14.3436 13.8417 14.0817Z" fill="#FFDB59"/>
<path fill-rule="evenodd" clip-rule="evenodd" d="M67.026 5.61751C67.13 5.3039 69.0494 5.26737 73.0043 5.26737C76.0302 5.26737 78.3286 5.80932 79.979 6.69532C78.3102 5.48354 75.7276 4.7041 72.1027 4.7041C68.1508 4.7041 65.9257 4.74064 65.8218 5.05424C65.3511 6.48219 66.2466 8.1385 67.0413 8.50386C66.9129 17.6531 66.8488 23.7942 66.8488 26.9242C67.0597 27.0277 67.3592 27.0916 67.7473 27.1099C67.7535 23.8764 67.8176 17.8632 67.9399 9.06408C67.2767 8.76266 66.5553 7.04546 67.026 5.61751Z" fill="white"/>
<path fill-rule="evenodd" clip-rule="evenodd" d="M95.2153 4.00079C90.9241 4.00079 89.1667 4.24437 87.7944 7.37734C87.0394 9.10063 80.7493 24.2814 81.3606 26.6258C81.3912 26.7445 81.7365 26.8511 82.2225 26.9424C82.0208 23.9465 87.9625 9.61214 88.6929 7.93756C89.8208 5.36481 91.2084 4.74065 94.0508 4.6006C95.0411 4.55188 95.2612 4.17434 95.2153 4.00079Z" fill="white"/>
<path fill-rule="evenodd" clip-rule="evenodd" d="M92.9963 10.6899C92.9382 10.4707 92.5348 9.93787 91.9571 9.98659C92.0304 10.017 92.0824 10.0627 92.0977 10.1266C92.3911 11.2136 93.1124 15.5431 94.0232 19.5804C91.4467 19.4921 89.1544 19.7174 87.4611 19.9884C87.3755 20.2563 87.6078 20.5577 87.9746 20.506C89.6709 20.2776 92.3453 20.0553 94.9218 20.1436C94.011 16.1064 93.2897 11.7738 92.9963 10.6899Z" fill="white"/>
<path fill-rule="evenodd" clip-rule="evenodd" d="M95.6554 23.1366C95.579 22.8199 95.1817 22.5885 94.7568 22.5733C95.4629 25.1856 96.2331 27.186 96.9788 27.2804C97.0369 27.2865 97.1103 27.2895 97.1958 27.2926C96.6487 26.5131 96.0986 24.9847 95.6554 23.1366Z" fill="white"/>
<path fill-rule="evenodd" clip-rule="evenodd" d="M105.995 18.5757C106.438 20.8714 105.94 23.9465 105.94 27.0064C106.075 27.1221 106.408 27.2104 106.842 27.2682C106.872 24.3088 107.322 21.3585 106.894 19.1389C106.625 17.7384 102.453 9.21328 100.39 7.2586C99.3627 6.2843 102.529 5.31914 104.057 5.32218C103.99 5.19735 103.923 5.07556 103.856 4.96291C103.425 4.21696 98.0576 5.66318 99.323 6.86583C101.383 8.82052 105.723 17.1782 105.995 18.5757Z" fill="white"/>
<path fill-rule="evenodd" clip-rule="evenodd" d="M108.156 14.1456C108.336 14.919 109.018 15.4701 109.403 14.4623C110.898 10.5681 114.798 5.25518 115.311 5.10599C115.69 4.99638 117.255 5.23691 118.297 5.63577C117.839 4.92636 114.944 4.39049 114.412 4.54273C113.899 4.69192 109.009 12.0083 108.63 14.0817C108.584 14.3436 108.318 14.5019 108.156 14.1456Z" fill="white"/>
<path fill-rule="evenodd" clip-rule="evenodd" d="M71.736 17.5587C79.4656 16.898 80.7768 11.0675 76.8463 9.19196C79.6031 11.4602 77.8946 16.3683 70.8374 16.9955C70.8344 17.4796 71.3387 17.5922 71.736 17.5587Z" fill="white"/>
<path fill-rule="evenodd" clip-rule="evenodd" d="M51.3987 14.9829C51.4476 18.664 51.6401 23.3223 51.1236 26.8907C51.1114 26.982 51.4751 27.0612 51.9916 27.0886C52.4684 23.5507 52.285 19.008 52.2361 15.4031C52.2178 14.0848 52.2881 13.3723 52.3951 13.2657C52.9666 12.6964 53.8774 12.398 55.1244 12.3736C55.1366 12.2458 55.1458 12.1514 55.1489 12.1088C55.1611 12.0052 54.9257 11.9504 54.4765 11.9504C53.1316 11.9504 52.1567 12.2488 51.5607 12.8456C51.4537 12.9521 51.3834 13.6646 51.3987 14.9829Z" fill="white"/>
<path fill-rule="evenodd" clip-rule="evenodd" d="M55.103 14.3618C55.1428 15.0225 55.9007 14.8124 56.0811 14.6328C57.2761 13.4423 58.4223 12.7542 60.0238 12.7542C60.4242 12.7542 60.794 12.809 61.1333 12.9156C60.5923 12.5289 59.9444 12.334 59.1864 12.334C57.5848 12.334 56.2767 13.01 55.2467 14.3435C55.21 14.3922 55.1703 14.4075 55.1489 14.4075C55.1305 14.4075 55.1153 14.3922 55.103 14.3618Z" fill="white"/>
<path fill-rule="evenodd" clip-rule="evenodd" d="M59.4127 17.8571C59.9231 19.827 59.7642 24.9482 59.5288 27.0581C59.7061 27.1221 60.0209 27.1556 60.3969 27.1647C60.6139 24.8995 60.7361 20.1559 60.2471 18.2773C59.9139 16.9894 58.8534 16.1003 57.6614 16.2252C58.4194 16.2769 59.1284 16.761 59.4127 17.8571Z" fill="white"/>
<path fill-rule="evenodd" clip-rule="evenodd" d="M42.6543 24.1839C45.3928 24.1839 46.5909 19.6504 45.4906 17.1294C45.1147 16.2708 44.4912 15.7593 43.7852 15.5614C44.1366 15.8324 44.4362 16.213 44.6532 16.7092C45.7565 19.2302 44.5584 23.7638 41.8168 23.7638C41.5142 23.7638 41.2361 23.7211 40.9824 23.6481C41.4256 23.983 41.9819 24.1839 42.6543 24.1839Z" fill="white"/>
<path fill-rule="evenodd" clip-rule="evenodd" d="M38.0391 14.5141C39.9585 12.3219 43.29 11.4816 45.8024 12.4802C43.2411 10.8848 39.3442 11.649 37.2016 14.0939C33.8151 17.9637 34.5639 24.6163 39.1241 26.4857C35.3189 24.187 34.8696 18.1342 38.0391 14.5141Z" fill="white"/>
<path fill-rule="evenodd" clip-rule="evenodd" d="M22.4272 14.8033C22.5158 13.8746 22.8796 13.0587 23.5245 12.3706C23.6712 12.2183 24.423 12.1483 25.7679 12.1483C27.3725 12.1483 28.7051 12.3645 29.7687 12.7968C28.6042 12.0844 26.9904 11.7281 24.9335 11.7281C23.5856 11.7281 22.8337 11.7951 22.6901 11.9504C21.9351 12.7542 21.5684 13.7285 21.5684 14.855H21.5989C21.8251 14.855 22.1002 14.8307 22.4272 14.8033Z" fill="white"/>
<path fill-rule="evenodd" clip-rule="evenodd" d="M26.0611 14.8855C27.2959 15.1108 27.9133 15.5797 27.9133 16.2921C27.8919 16.3135 27.8705 16.3256 27.8491 16.3256C26.5654 16.3256 25.1442 16.6697 23.5854 17.376C18.5973 19.6413 18.6921 25.5449 22.4912 26.9668C19.5448 25.0486 19.8291 19.8818 24.4228 17.7993C25.9816 17.0898 27.4028 16.7428 28.6835 16.7428C28.7049 16.7428 28.7263 16.7336 28.7477 16.7123C28.7477 15.9664 27.8644 15.0499 26.0611 14.8855Z" fill="white"/>
<path fill-rule="evenodd" clip-rule="evenodd" d="M28.4909 19.8666C28.4909 21.121 28.6071 22.6037 27.3662 23.3801C25.9022 24.3027 24.7529 24.2357 24.0989 23.712C24.6826 24.4427 26.5318 24.8507 28.2036 23.8003C29.4445 23.0239 29.3253 21.5411 29.3253 20.2867C29.3253 19.8331 29.3834 19.1572 28.4573 19.1663C28.4787 19.1663 28.4909 19.4007 28.4909 19.8666Z" fill="white"/>
<path fill-rule="evenodd" clip-rule="evenodd" d="M29.4874 25.9377C29.3926 25.5601 29.0045 24.9968 28.543 25.487C28.5796 25.4505 28.6285 25.4292 28.6499 25.5175C28.7386 25.8768 29.2582 27.2925 29.7716 27.2925C29.8511 27.2925 29.9489 27.2834 30.0589 27.2651C29.7716 26.8237 29.5455 26.1782 29.4874 25.9377Z" fill="white"/>
<path fill-rule="evenodd" clip-rule="evenodd" d="M11.2071 18.5757C11.6502 20.8714 11.152 23.9465 11.152 27.0064C11.2835 27.1221 11.6197 27.2104 12.0537 27.2682C12.0843 24.3088 12.5335 21.3585 12.1056 19.1389C11.8367 17.7384 7.66469 9.21328 5.60162 7.2586C4.57467 6.2843 7.7411 5.31914 9.2693 5.32218C9.20206 5.19735 9.13482 5.07556 9.06758 4.96291C8.63663 4.21696 3.26653 5.66318 4.53494 6.86583C6.59495 8.82052 10.935 17.1782 11.2071 18.5757Z" fill="white"/>
<path fill-rule="evenodd" clip-rule="evenodd" d="M13.3679 14.1456C13.5482 14.919 14.2298 15.4701 14.6149 14.4623C16.1095 10.5681 20.0095 5.25518 20.5229 5.10599C20.9019 4.99638 22.4668 5.23691 23.509 5.63577C23.0506 4.92636 20.1562 4.39049 19.6244 4.54273C19.1109 4.69192 14.2207 12.0083 13.8417 14.0817C13.7958 14.3436 13.5299 14.5019 13.3679 14.1456Z" fill="white"/>
</svg>
