<svg width="540" height="431" viewBox="0 0 540 431" fill="none" xmlns="http://www.w3.org/2000/svg">
<path fill-rule="evenodd" clip-rule="evenodd" d="M7.43773 98.477C10.7369 102.328 12.2243 106.09 12.2131 110.96C7.6055 120.667 4.60829 131.65 6.18517 142.353C6.56541 144.951 7.09106 147.526 7.73971 150.078C7.06869 151.735 6.36411 153.37 5.5589 154.758C-0.290115 164.913 3.1097 175.773 9.86458 184.449C15.2886 191.447 22.8934 197.616 30.0174 202.81C41.872 211.465 54.5318 218.876 67.2363 226.21C63.5457 249.441 59.9223 272.694 56.4777 295.97C53.6259 315.249 50.584 334.943 48.6828 354.334C48.146 359.797 47.3967 364.041 49.5215 369.471C52.8654 378.047 60.6716 381.674 69.2046 383.04C77.7042 384.395 86.3379 385.469 94.9381 386.488C110.729 422.684 137.793 432.648 176.589 418.094C191.094 412.653 205.588 406.327 219.613 399.666C227.184 400.416 234.755 401.155 242.326 401.894C246.968 418.038 260.321 429.547 277.532 430.521C294.028 431.462 308.466 422.427 317.212 409.092C326.047 409.932 334.893 410.761 343.739 411.589C354.375 421.016 368.287 427.61 382.199 429.379C395.81 431.114 409.521 427.968 418.759 418.519C433.029 419.818 447.299 421.094 461.569 422.348C466.524 422.785 471.478 423.21 476.432 423.625C478.747 423.815 481.409 424.128 483.713 424.106C494.046 424.016 502.725 419.594 507.724 410.29C509.692 406.618 510.24 398.4 510.743 394.168C511.895 384.585 513.003 374.99 514.11 365.395C517.554 335.368 520.898 305.308 524.153 275.258C527.754 242.085 531.254 208.89 534.453 175.672C536.622 153.135 539.15 129.691 539.966 107.075C540.637 88.3112 531.332 80.4966 513.193 80.5414C502.009 80.5638 490.635 81.1571 479.452 81.6945C465.562 82.3663 451.683 83.1388 437.793 83.9561C437.547 83.094 437.279 82.2431 436.988 81.3922C428.734 57.1198 401.334 44.5806 382.289 66.4011C380.869 68.0245 379.504 69.7263 378.162 71.4728C366.8 60.8816 353.614 51.6003 338.718 48.9021C333.808 39.4865 327.568 30.2612 321.517 21.9987C314.673 12.6614 305.077 1.81271 292.932 0.211719C280.787 -1.38928 271.829 6.27983 267.009 16.7815C261.16 29.4999 259.404 49.0477 258.979 64.9233C250.625 70.7003 243.859 78.806 238.356 87.5835C221.368 76.2422 205.286 83.9001 200.835 100.145C187.281 101.175 173.726 102.228 160.183 103.302C158.93 101.477 157.622 99.6861 156.258 97.9396C164.41 82.0976 172.943 56.8735 173.022 38.8259C173.066 28.022 165.227 19.614 152.992 18.0242C144.862 16.983 135.098 18.7183 126.163 21.1366C120.123 15.6171 111.266 13.3444 102.375 16.2441C97.5438 17.8115 92.5783 20.8679 88.1384 24.417C81.9539 22.2338 74.7517 20.9463 68.4218 21.7524C59.8328 22.8496 53.1562 28.2683 49.8235 35.4448C39.5905 38.7028 28.6642 45.3531 23.3184 52.4624C22.4014 53.6827 21.6073 54.9702 20.9475 56.3025C17.4918 57.4557 14.1479 58.9335 11.3184 60.8144C6.08452 64.3187 2.53932 69.6031 1.5328 75.5257C-1.83346 83.1164 0.436809 92.9687 7.43773 98.477V98.477Z" fill="white"/>
<path fill-rule="evenodd" clip-rule="evenodd" d="M134.36 59.6611C109.085 57.7243 101.995 51.0964 113.1 39.7551C121.186 36.4635 129.865 33.978 139.147 32.2987C158.752 29.1527 158.539 37.2024 138.509 56.4591L134.36 59.6611Z" fill="#8A462D"/>
<path fill-rule="evenodd" clip-rule="evenodd" d="M104.41 120.812L518.851 99.2158L487.459 392.31L66.4084 357.558L104.41 120.812Z" fill="#7F86E8"/>
<path fill-rule="evenodd" clip-rule="evenodd" d="M121.555 180.945C67.214 182.994 36.5374 164.532 29.5365 125.571C29.6931 104.679 25.4992 89.5763 18.8897 83.7768C34.7257 80.239 49.2084 80.6868 61.2978 85.6129C93.4394 92.0169 122.461 78.8283 153.093 41.9942C154.032 62.9975 147.747 80.8435 134.226 95.5548C166.312 143.887 163.46 172.268 125.693 180.687L121.555 180.945Z" fill="#8A462D"/>
<path fill-rule="evenodd" clip-rule="evenodd" d="M88.6974 167.667C34.3453 169.716 35.1616 167.79 28.1607 128.829C28.3173 107.937 31.0796 95.969 18.3751 84.303C34.1999 80.754 38.5167 79.7687 51.1653 83.0043C74.2147 88.9157 106.882 92.8678 137.503 56.0449C132.47 74.9545 110.684 95.6555 89.4803 100.57C89.9724 101.298 115.963 101.455 116.444 102.205C127.75 119.995 135.97 139.89 124.161 153.336C110.919 148.152 108.459 135.893 114.498 120.958L111.803 118.013C89.0441 131.829 86.6956 147.581 104.735 165.304C100.149 166.469 94.8372 167.286 88.6974 167.667ZM50.2818 134.751C53.5363 147.727 53.6369 153.594 50.5838 152.329C37.8345 137.561 34.0098 124.697 39.1207 113.737C37.7339 105.956 41.5363 99.5964 46.9044 103.011C49.3983 112.326 47.1057 118.708 50.1141 125.962L50.2818 134.751ZM79.2026 142.096C80.2203 152.732 78.621 157.445 74.416 156.213C63.3778 140.954 62.0805 123.768 70.5353 104.657C72.8279 98.8015 76.5297 101.511 79.0684 105.821C77.9165 118.002 77.2902 124.921 82.2669 130.262L79.2026 142.096Z" fill="#D18F78"/>
<path fill-rule="evenodd" clip-rule="evenodd" d="M15.4786 83.6425C26.1925 94.2785 26.6398 106.829 24.3807 119.682C34.3453 107.176 29.4581 89.8225 20.3323 79.1418C19.2027 78.0446 16.4292 78.0782 15.3332 79.2202C14.2372 80.3509 16.9548 81.3361 15.4786 83.6425Z" fill="black"/>
<path fill-rule="evenodd" clip-rule="evenodd" d="M482.091 393.105C312.224 382.144 227.832 374.654 228.928 370.646C209.1 373.826 191.24 380.386 175.381 390.351C146.629 402.005 127.997 399.901 119.475 384.036C103.527 351.803 98.9082 308.554 105.652 254.3C107.072 231.595 102.051 218.272 90.5764 214.331C62.6846 201.601 39.9595 187.181 22.4349 171.081C17.0891 165.674 17.9055 158.285 24.8729 148.914C21.8869 139.465 20.9474 131.605 22.0435 125.335C28.7312 107.456 34.8151 96.4952 38.9418 96.5176C45.4731 98.2193 45.4395 112.136 40.1944 134.225C46.0881 146.988 50.3715 153.862 53.0667 154.848C49.0406 138.367 48.7498 126.343 52.2056 118.775C59.4078 104.545 65.7824 96.3832 71.3295 94.3008C79.1692 96.3161 78.912 104.075 70.569 117.599C66.7107 128.246 68.9138 140.539 77.1673 154.444C77.1897 148.936 79.2474 140.551 83.3518 129.288C90.8113 117.89 100.463 111.565 112.295 110.311C115.583 115.035 113.671 119.872 106.535 124.854C98.6621 134.303 98.1477 145.958 105.003 159.807C120.917 172.85 130.502 181.214 133.745 184.886C149.995 235.569 160.038 275.549 164.556 298.657C183.915 261.543 200.914 241.671 215.564 239.029C231.109 259.92 248.802 274.082 268.619 281.516C288.246 307.435 315.422 308.879 350.147 285.849C389.368 273.008 419.91 251.635 441.785 221.742C459.12 218.171 479.429 227.038 502.702 248.321L482.091 393.105Z" fill="#F2C1A2"/>
<path fill-rule="evenodd" clip-rule="evenodd" d="M130.591 183.632C111.59 167.924 100.261 159.684 99.02 155.116C101.782 167.79 98.8299 173.869 94.9045 175.548C88.4627 179.221 89.1114 178.146 75.5793 174.171C69.4171 180.016 62.4945 179.915 54.8113 173.869C51.5681 176.634 46.6697 177.228 40.1161 175.649C35.7098 175.358 34.1329 177.418 35.4078 181.841C45.227 189.498 63.7247 200.067 90.8896 213.536C101.257 222.101 95.7768 219.66 102.297 218.54C98.9305 211.599 126.688 212.036 128.97 220.533C136.351 248.119 150.151 299.463 164.757 313.548C163.37 282.334 154.054 241.111 136.798 189.857L130.591 183.632Z" fill="#D18F78"/>
<path fill-rule="evenodd" clip-rule="evenodd" d="M21.9203 141.771C17.9614 130.228 23.1393 114.117 33.2046 102.272C36.2689 99.9771 35.363 102.093 36.5149 104.702C25.7898 124.082 22.8262 131.706 24.6156 146.742L21.9203 141.771Z" fill="white"/>
<path fill-rule="evenodd" clip-rule="evenodd" d="M50.1141 138.401C46.9938 126.847 52.5185 112.774 63.4449 100.929C66.6658 98.6224 65.6145 100.738 66.5763 103.347C54.4421 122.727 51.7469 128.325 52.4514 143.361L50.1141 138.401Z" fill="white"/>
<path fill-rule="evenodd" clip-rule="evenodd" d="M35.2064 172.19C40.787 177.418 48.4589 177.541 54.3079 174.082C61.991 180.43 67.0236 179.377 75.5902 174.698C81.1708 178.023 89.9612 180.676 94.9043 175.425C88.7981 174.922 85.5772 175.033 81.2044 171.205C76.6192 167.174 73.3647 169.38 70.6807 170.611C67.0013 172.291 64.6527 173.746 60.0227 171.081C55.7506 168.63 53.827 169.122 51.6574 170.969C50.17 172.246 43.7171 174.944 35.2064 172.19Z" fill="white"/>
<path fill-rule="evenodd" clip-rule="evenodd" d="M79.0237 147.391C78.0172 135.479 83.9445 124.664 96.8056 114.957C100.396 113.278 102.42 113.804 102.912 116.536C89.5028 125.828 81.8084 137.92 79.8178 152.844L79.0237 147.391Z" fill="white"/>
<path fill-rule="evenodd" clip-rule="evenodd" d="M445.554 387.227C432.771 353.259 428.958 326.949 435.165 314.802C442.714 344.717 457.163 370.456 469.565 387.529L445.554 387.227Z" fill="white"/>
<path fill-rule="evenodd" clip-rule="evenodd" d="M166.793 299.307C166.2 304.513 166.994 311.902 167.989 317.276C192.75 276.859 214.077 258.991 228.996 258.89C225.696 248.198 216.828 239.409 206.573 241.525C191.352 253.964 181.879 266.335 178.155 278.65L166.793 299.307Z" fill="white"/>
<path fill-rule="evenodd" clip-rule="evenodd" d="M462.542 223.31C411.601 209.192 352.451 234.774 285.092 300.068C322.77 324.755 366.9 318.687 417.495 281.864C452.824 273.881 483.959 259.506 487.358 235.323L462.542 223.31Z" fill="#D18F78"/>
<path fill-rule="evenodd" clip-rule="evenodd" d="M445.431 383.902C436.741 362.428 432.525 341.459 432.794 321.004C425.043 342.533 405.964 342.813 379.716 328.393C369.405 334.215 335.004 341.593 272.343 343.944C255.948 356.203 241.722 350.404 229.666 326.546C227.34 357.021 232.742 373.77 245.86 376.781C254.047 377.151 321.618 382.155 448.596 391.817L445.431 383.902Z" fill="#D18F78"/>
<path fill-rule="evenodd" clip-rule="evenodd" d="M105.741 364.052C121.543 395.892 145.61 403.696 170.326 394.426C188.701 387.518 216.19 375.572 236.455 364.287C233.569 370.568 225.819 330.688 228.414 325.068C209.502 338.447 168.727 367.041 159.713 372.135C137.033 384.943 119.922 382.793 111.914 361.152C107.396 348.96 107.184 339.007 106.3 347.728C105.663 354.009 106.412 357.715 105.741 364.052Z" fill="#D18F78"/>
<path fill-rule="evenodd" clip-rule="evenodd" d="M105.059 301.087C103.516 312.764 103.136 381.282 123.289 376.77C129.261 369.605 125.044 358.958 121.935 337.73C114.297 285.625 123.725 228.281 104.187 221.182L105.059 301.087Z" fill="white"/>
<path fill-rule="evenodd" clip-rule="evenodd" d="M95.2401 217.253L76.0044 351.882L109.835 354.479C109.958 355.42 110.103 356.338 110.282 357.211C111.154 361.454 111.837 366.694 113.648 371.15C94.4237 368.978 79.2141 367.948 70.7481 366.593C60.0678 364.88 61.0631 359.797 61.7453 352.845C64.1721 328.013 74.5729 264.141 83.3185 209.617C86.8413 211.689 91.0016 213.312 93.283 215.495C93.9205 216.156 94.5691 216.738 95.2401 217.253ZM144.146 115.416C265.186 105.597 472.865 92.2521 512.813 92.1625C523.135 92.1513 525.394 93.7859 525.036 103.649C523.213 154.59 494.639 400.27 494.516 400.494C492.033 405.118 488.108 406.618 483.165 406.663C479.642 406.696 318.062 392.12 196.384 379.871L206.069 374.139L225.328 366.269C227.564 365.754 229.465 364.88 231.065 363.749L473.692 382.312L504.984 111.576L150.744 126.466C148.709 122.794 146.271 119.122 144.146 115.416Z" fill="black"/>
<path fill-rule="evenodd" clip-rule="evenodd" d="M267.556 279.277C208.954 256.617 197.189 218.977 229.666 164.801C235.795 154.568 239.407 136.408 244.317 115.215C253.342 76.2757 279.914 64.2626 323.698 66.5241C354.251 68.1027 384.883 109.65 419.452 139.968C475.481 187.987 454.355 235.569 356.074 282.726C328.909 301.546 288.827 311.499 267.556 279.277Z" fill="#F2C1A2"/>
<path fill-rule="evenodd" clip-rule="evenodd" d="M333.405 64.5649C331.594 65.0687 329.916 66.3562 328.35 68.3938C325.264 72.5587 326.17 75.8614 331.09 78.3021C340.954 84.8964 346.893 107.568 360.973 113.77C375.299 114.095 385.644 120.286 383.799 130.877C388.708 141.547 389.771 151.063 357.618 170.69C346.647 177.385 358.401 184.494 370.535 183.094C418.255 175.179 418.949 208.766 396.19 237.125C382.199 253.695 358.803 265.585 339.959 285.972C352.306 282.77 360.883 281.505 397.364 262.708C440.846 228.012 467.832 183.05 427.638 143.73C424.675 141.793 416.678 134.426 408.682 127.944C400.663 121.451 391.392 113.378 383.441 105.217C363.937 85.2099 348.593 64.5649 333.405 64.5649Z" fill="#D18F78"/>
<path fill-rule="evenodd" clip-rule="evenodd" d="M284.891 210.681C263.195 217.286 255.612 205.576 270.341 194.268C275.441 190.349 281.402 181.572 273.551 172.906C273.103 174.283 272.779 174.899 272.309 175.761C268.518 182.579 264.246 185.591 259.974 188.603C249.305 196.115 252.134 207.86 261.976 214.252C269.357 219.055 274.49 217.566 283.37 216.816L287.094 214.801C287.094 213.614 284.924 213.334 284.891 210.681Z" fill="white"/>
<path fill-rule="evenodd" clip-rule="evenodd" d="M236.522 218.283C287.094 251.322 332.209 219.067 376.652 200.963C387.332 196.619 389.905 208.677 385.319 217.264C375.69 235.278 313.543 292.365 252.011 249.788C246.833 246.205 235.683 234.92 233.379 229.277C231.556 224.81 231.243 214.823 236.522 218.283Z" fill="white"/>
<path fill-rule="evenodd" clip-rule="evenodd" d="M284.857 68.4833C254.382 78.6939 240.358 134.919 235.102 159.897C209.916 194.637 205.398 233.632 233.078 259.673C245.156 271.048 281.48 286.711 291.389 284.181C238.155 261.487 206.852 226.489 246.241 166.76C253.118 156.337 246.777 100.75 284.802 75.4583C284.522 73.3983 284.679 70.5881 284.857 68.4833Z" fill="white"/>
<path fill-rule="evenodd" clip-rule="evenodd" d="M254.785 160.244C262.994 104.478 302.158 109.661 343.124 145.219C331.873 151.175 325.264 155.038 316.116 158.587C287.564 169.671 278.684 165.372 254.785 160.244Z" fill="white"/>
<path fill-rule="evenodd" clip-rule="evenodd" d="M275.799 82.7132C274.546 81.7391 278.002 36.9449 284.242 20.3191C286.088 15.393 287.005 15.3706 291.009 18.7741C297.327 24.1705 330.028 71.607 318.475 77.8766C306.274 84.4821 282.207 87.7625 275.799 82.7132Z" fill="white"/>
<path fill-rule="evenodd" clip-rule="evenodd" d="M326.36 77.6303C329.804 60.4896 305.458 32.2875 299.441 24.081C296.544 20.1177 291.322 11.8216 286.658 17.5986C292.91 24.5064 310.647 69.2559 308.041 82.3326L314.785 81.672C316.72 81.672 314.494 81.0674 319.594 81.0674C320.019 81.0674 324.313 77.899 326.36 77.6303Z" fill="#B3B3B3"/>
<path fill-rule="evenodd" clip-rule="evenodd" d="M234.956 150.19C226.669 138.86 221.525 125.705 219.545 110.759C217.465 100.447 219.288 96.5624 225.025 99.1038C227.251 100.268 233.592 104.209 244.037 110.927L234.956 150.19Z" fill="#D18F78"/>
<path fill-rule="evenodd" clip-rule="evenodd" d="M238.368 149.362C232.183 139.845 225.965 122.447 223.326 108.867C222.554 104.858 223.706 99.5516 227.598 102.283C238.58 109.986 241.253 112.651 245.391 113.591C246.71 113.893 246.722 109.863 248.31 109.897C247.706 109.482 237.54 102.574 231.445 97.8947C219.333 88.5686 212.254 96.7303 213.965 110.132C216.28 128.314 227.106 155.81 228.559 159.046C231.613 165.987 241.432 156.303 238.368 149.362Z" fill="black"/>
<path fill-rule="evenodd" clip-rule="evenodd" d="M275.687 69.4686C245.201 79.668 231.187 135.893 225.92 160.871C200.746 195.611 196.216 234.617 223.896 260.659C239.262 275.113 271.068 286.98 291.389 284.181C232.16 264.958 193.353 234.013 237.059 167.745C243.937 157.311 243.702 95.0174 275.62 76.4436C275.34 74.3836 275.497 71.5734 275.687 69.4686Z" fill="black"/>
<path fill-rule="evenodd" clip-rule="evenodd" d="M338.896 117.006C317.804 89.0725 256.831 79.209 252.738 131.247C268.451 96.9767 294.453 97.6485 338.896 117.006Z" fill="black"/>
<path fill-rule="evenodd" clip-rule="evenodd" d="M315.467 185.826C328.496 199.563 312.895 204.075 306.61 200.011C302.684 197.481 300.034 196.238 298.546 198.578C284.913 219.951 247.448 204.154 260.925 193.339C265.946 189.319 274.054 184.427 272.31 175.761C265.756 184.807 258.923 185.692 254.103 189.084C243.434 196.597 246.274 208.341 256.105 214.734C270.475 224.071 292.25 224.474 303.556 209.908C325.857 219.123 340.429 192.331 315.467 185.826Z" fill="black"/>
<path fill-rule="evenodd" clip-rule="evenodd" d="M244.82 225.09C285.573 255.33 332.69 234.92 359.675 225.963C365.167 224.138 369.126 230.251 367.907 235.905C376.663 238.346 393.852 207.983 387.478 198.321C384.682 198.433 381.651 199.183 378.542 200.672C328.238 224.676 297.159 246.888 244.809 221.53C244.731 224.004 244.708 222.571 244.82 225.09Z" fill="#B3B3B3"/>
<path fill-rule="evenodd" clip-rule="evenodd" d="M237.92 220.992C285.137 254.042 331.269 226.78 372.772 208.677C377.088 206.785 379.157 210.58 376.619 215.663C367.638 233.677 307.068 284.181 252.805 245.69C247.907 242.208 237.45 233.319 235.303 227.687C233.592 223.209 232.988 217.544 237.92 220.992ZM252.235 254.098C291.713 285.178 346.356 266.357 379.806 234.64C408.246 207.669 391.292 187.103 371.351 196.619C320.857 220.712 289.722 243.014 237.025 217.186C229.432 213.469 228.884 221.485 231.042 228.415C233.435 236.084 246.185 249.34 252.235 254.098Z" fill="black"/>
<path fill-rule="evenodd" clip-rule="evenodd" d="M319.448 126.959C288.66 114.364 268.91 118.64 260.198 139.789C273.137 171.955 299.005 161.722 308.79 153.963C314.606 149.362 318.151 140.36 319.448 126.959Z" fill="#7F86E8"/>
<path d="M258.666 143.26C263.821 157.154 276.582 166.961 291.668 165.875C309.618 164.577 323.038 148.332 323.575 129.735L314.584 125.392C315.501 133.8 313.186 142.331 307.907 148.88C303.333 154.534 296.835 158.296 289.499 158.822C276.448 159.763 265.767 150.448 262.446 137.92C261.473 139.487 259.997 141.334 258.666 143.26Z" fill="black"/>
<path fill-rule="evenodd" clip-rule="evenodd" d="M270.531 125.089C269.346 127.877 268.753 131.012 268.91 134.281C269.413 144.85 277.622 152.855 287.228 152.172C296.835 151.478 304.216 142.342 303.713 131.762C303.489 127.216 301.845 123.13 299.273 120.017C293.592 117.823 285.674 116.435 270.531 125.089Z" fill="black"/>
<path fill-rule="evenodd" clip-rule="evenodd" d="M247.516 162.472C258.744 157.087 268.339 179.87 319.213 164.42C333.64 160.031 342.688 154.937 355.459 149.877C363.668 146.63 367.963 146.708 373.499 147.458C367.616 140.495 359.709 139.409 351.814 141.043C336.067 127.675 314.259 114.285 295.728 112.662C273.316 110.691 252.772 124.496 253.365 158.8C250.457 158.632 248.153 160.513 247.516 162.472ZM256.328 158.99C263.978 109.964 300.436 114.52 338.583 145.779C328.104 151.007 321.953 154.411 313.432 157.523C286.848 167.275 278.584 163.491 256.328 158.99Z" fill="black"/>
<path fill-rule="evenodd" clip-rule="evenodd" d="M269.122 280.263C269.458 281.293 263.586 279.412 264.078 280.341C280.742 311.476 320.567 311.532 343.672 298.881C363.21 288.178 353.681 289.354 375.142 281.304C400.954 271.619 427.168 253.941 442.904 232.289C468.525 197.056 463.202 162.293 434.583 137.942L396.335 109.717C379.616 92.3416 353.659 55.5523 324.57 60.1313C325.487 60.4784 327.422 68.1923 328.35 68.3938C350.125 73.0513 362.896 88.0984 380.209 108.139C394.222 124.361 407.306 135.367 423.086 148.835C447.221 169.424 443.966 199.743 429.618 222.492C416.902 242.656 393.204 258.117 370.311 268.238C354.061 275.426 345.047 282.323 339.187 286.073C316.932 300.37 294.218 304.367 269.122 280.263Z" fill="black"/>
<path fill-rule="evenodd" clip-rule="evenodd" d="M404.701 143.797C398.784 140.383 392.242 135.815 383.798 130.877C373.498 131.079 365.044 123.813 360.973 113.77C375.109 110.009 386.583 91.7147 393.931 82.8252C405.081 69.3455 415.459 71.775 418.378 88.5127C422.482 118.237 417.92 137.662 409.532 146.809L404.701 143.797Z" fill="#F2C1A2"/>
<path fill-rule="evenodd" clip-rule="evenodd" d="M405.07 149.619C397.208 147.828 390.788 148.22 387.612 135.389C404.399 125.123 406.512 112.203 404.097 96.0473C407.608 91.8041 412.82 91.5466 414.889 97.3013C420.469 117.006 419.094 134.628 407.418 150.145L405.07 149.619Z" fill="#D18F78"/>
<path fill-rule="evenodd" clip-rule="evenodd" d="M360.973 113.77C391.694 125 407.071 64.2738 415.235 98.7008C417.696 109.09 420.29 126.97 409.062 146.518C413.67 142.443 416.074 146.126 420.906 125.392C423.668 113.513 424.63 99.2942 419.698 84.7845C415.168 71.4391 407.183 67.2631 395.575 80.5637C386.807 90.6063 372.716 103.717 360.973 113.77Z" fill="white"/>
<path fill-rule="evenodd" clip-rule="evenodd" d="M281.894 146.641C283.359 147.201 284.969 147.447 286.624 147.335C293.346 146.843 298.501 140.461 298.143 133.072C298.043 130.978 297.506 129.019 296.645 127.317C296.992 137.281 291.366 145.454 281.894 146.641Z" fill="white"/>
<path fill-rule="evenodd" clip-rule="evenodd" d="M396.19 237.125C435.344 202.441 409.454 165.293 370.535 183.095C407.418 180.699 416.041 200 396.19 237.125Z" fill="black"/>
<path fill-rule="evenodd" clip-rule="evenodd" d="M335.586 218.91C335.564 228.829 335.396 242.018 338.941 252.105C339.456 253.583 340.138 254.008 340.842 255.397C341.659 247.47 340.619 232.703 342.14 220.343C342.531 218.529 341.39 216.738 339.579 216.346C337.767 215.954 335.978 217.096 335.586 218.91Z" fill="black"/>
<path fill-rule="evenodd" clip-rule="evenodd" d="M331.392 255.206C325.856 248.858 315.12 233.99 310.345 228.896L308.869 230.161C308.79 233.632 324.861 258.509 325.476 259.45C326.572 260.939 329.189 261.006 330.677 259.909C332.175 258.811 332.488 256.707 331.392 255.206Z" fill="black"/>
<path fill-rule="evenodd" clip-rule="evenodd" d="M374.494 230.005C374.326 229.882 351.165 212.349 348.693 212.965C348.738 213.133 348.705 213.01 348.783 213.368L348.682 213.48L348.582 212.931L347.978 212.662L347.396 213.323C348.324 217.611 367.102 235.256 368.746 236.89C370.647 238.48 373.476 238.222 375.064 236.319C376.641 234.416 376.395 231.583 374.494 230.005ZM348.391 213.804L348.213 214.006L347.978 213.916L348.391 213.804Z" fill="black"/>
<path fill-rule="evenodd" clip-rule="evenodd" d="M278.237 80.1494C277.13 79.2761 280.205 39.3632 285.763 24.54C287.407 20.1625 288.66 20.1401 291.791 23.1741C297.115 28.3242 326.572 70.2523 316.272 75.839C305.402 81.728 283.952 84.6501 278.237 80.1494ZM273.305 83.8776C273.719 90.3039 305.625 94.9278 328.552 80.9555C341.502 73.0513 317.144 38.2548 309.394 27.686C293.76 6.35808 284.813 9.00028 279.78 19.9497C272.164 36.5195 272.656 73.7454 273.305 83.8776Z" fill="black"/>
<path fill-rule="evenodd" clip-rule="evenodd" d="M297.472 231.471C294.744 241.962 291.456 255.811 294.095 267.074C296.544 259.998 299.128 245.679 303.31 234.617C304.127 233.05 303.612 230.945 301.957 230.128C300.302 229.299 298.3 229.904 297.472 231.471Z" fill="black"/>
<path fill-rule="evenodd" clip-rule="evenodd" d="M287.228 261.118C283.292 253.874 276.157 236.801 272.645 230.598L272.03 230.833C271.09 234.17 281.089 262.125 281.446 263.189C282.151 264.913 284.097 265.742 285.819 265.048C287.541 264.353 287.922 262.831 287.228 261.118Z" fill="black"/>
<path fill-rule="evenodd" clip-rule="evenodd" d="M264.201 230.587C261.528 237.786 258.106 246.821 259.694 254.781C262.043 249.978 264.581 240.439 268.429 232.904C269.156 231.841 269.122 230.464 267.836 229.826C266.55 229.187 264.917 229.535 264.201 230.587Z" fill="black"/>
<path fill-rule="evenodd" clip-rule="evenodd" d="M254.807 247.784C252.313 240.831 249.73 228.952 247.303 222.336L246.8 222.47C245.771 225.023 249.506 248.366 249.696 249.239C250.099 250.65 251.575 251.467 252.984 251.064C254.393 250.661 255.21 249.194 254.807 247.784Z" fill="black"/>
<path fill-rule="evenodd" clip-rule="evenodd" d="M240.906 221.507C239.407 226.041 237.763 232.681 238.938 237.595C239.072 237.271 239.698 237.595 239.788 237.17C240.436 233.89 241.868 227.116 243.858 222.839C244.53 221.787 241.622 220.376 240.906 221.507Z" fill="black"/>
<path fill-rule="evenodd" clip-rule="evenodd" d="M360.973 113.77C384.425 119.838 404.309 56.7614 412.473 91.1884C414.934 101.589 417.528 128.045 406.3 147.581C408.067 148.891 418.613 150.873 423.444 130.127C426.207 118.249 427.761 97.6819 422.829 83.1722C418.3 69.8381 404.421 59.7507 392.801 73.0624C384.045 83.0938 372.716 103.716 360.973 113.77Z" fill="black"/>
<path fill-rule="evenodd" clip-rule="evenodd" d="M409.823 101.13C408.917 95.6779 405.114 91.0988 402.184 99.9211C399.612 107.691 394.826 122.794 383.799 130.877C406.949 150.145 412.965 119.894 409.823 101.13Z" fill="black"/>
<path fill-rule="evenodd" clip-rule="evenodd" d="M296.499 394.896C289.241 412.932 263.195 407.85 259.84 389.78C257.625 377.923 263.43 346.015 274.278 338.738C298.445 322.515 348.548 321.676 375.545 331.752C389.167 336.835 401.111 370.601 399.892 384.518C397.129 416.112 362.449 399.744 350.449 384.103C344.108 375.841 303.232 378.181 296.499 394.896Z" fill="#B3B3B3"/>
<path d="M286.043 383.891C279.78 399.464 261.417 391.28 262.233 373.624C260.019 361.768 266.304 344.224 277.152 336.947C301.331 320.724 343.526 319.437 370.535 329.513C378.531 333.252 387.534 360.805 387.276 374.206C386.963 390.227 361.912 387.137 349.935 370.836C343.772 362.462 292.764 367.175 286.043 383.891Z" fill="white"/>
<path d="M358.404 346.859C355.79 347.431 353.194 345.478 352.607 342.496C352.019 339.513 353.662 336.632 356.276 336.059C358.89 335.486 361.486 337.44 362.073 340.422C362.661 343.404 361.018 346.286 358.404 346.859Z" fill="#B3B3B3"/>
<path d="M362.331 366.801C359.717 367.373 357.122 365.42 356.534 362.437C355.947 359.455 357.59 356.573 360.204 356.001C362.818 355.428 365.413 357.382 366.001 360.364C366.588 363.346 364.945 366.228 362.331 366.801Z" fill="#B3B3B3"/>
<path d="M350.964 358.589C348.44 359.084 345.988 357.153 345.486 354.275C344.984 351.398 346.623 348.664 349.146 348.169C351.669 347.674 354.122 349.605 354.624 352.483C355.125 355.36 353.487 358.094 350.964 358.589Z" fill="#B3B3B3"/>
<path d="M369.572 355.463C366.803 356.006 364.111 353.887 363.561 350.729C363.01 347.571 364.808 344.57 367.578 344.027C370.347 343.483 373.038 345.603 373.589 348.761C374.14 351.919 372.341 354.919 369.572 355.463Z" fill="#B3B3B3"/>
<path d="M293.715 390.754C284.981 407.614 264.973 405.767 261.82 388.806C259.751 377.688 268.899 346.866 279.076 340.037C301.756 324.822 344.008 323.445 369.338 332.894C384.324 338.481 398.405 368.62 398.606 381.719C398.997 408.98 360.257 396.732 350.841 381.472C345.73 373.187 301.499 375.751 293.715 390.754ZM307.113 393.888C311.15 385.637 342.073 384.596 344.287 387.944C363.579 417.053 418.177 426.009 414.487 382.032C413.033 364.656 395.888 333.633 376.753 326.501C348.011 315.776 300.895 317.701 275.307 334.864C261.26 344.291 252.347 376.849 255.199 392.142C260.053 418.239 293.693 421.363 307.113 393.888Z" fill="black"/>
<path d="M356.405 346.347C353.791 346.92 351.196 344.966 350.608 341.984C350.021 339.002 351.664 336.12 354.278 335.547C356.892 334.975 359.487 336.928 360.075 339.91C360.662 342.893 359.019 345.774 356.405 346.347Z" fill="black"/>
<path d="M360.333 366.289C357.719 366.862 355.123 364.908 354.536 361.926C353.948 358.943 355.591 356.062 358.205 355.489C360.819 354.917 363.415 356.87 364.002 359.852C364.59 362.835 362.947 365.716 360.333 366.289Z" fill="black"/>
<path d="M348.976 358.033C346.453 358.529 344.001 356.597 343.499 353.72C342.997 350.843 344.636 348.109 347.159 347.614C349.682 347.119 352.135 349.05 352.636 351.927C353.138 354.805 351.5 357.538 348.976 358.033Z" fill="black"/>
<path d="M367.586 354.907C364.817 355.451 362.125 353.331 361.575 350.173C361.024 347.016 362.822 344.015 365.592 343.472C368.361 342.928 371.052 345.048 371.603 348.206C372.154 351.364 370.355 354.364 367.586 354.907Z" fill="black"/>
<path fill-rule="evenodd" clip-rule="evenodd" d="M297.233 340.943L291.965 341.077C290.321 341.122 289.046 342.185 288.767 343.775C288.353 346.048 288.006 348.354 287.727 350.672C285.691 350.661 283.7 350.672 281.721 350.717C280.077 350.761 278.645 351.814 278.522 353.426L278.209 357.557C278.086 359.169 279.305 360.681 280.949 360.714C282.985 360.759 284.975 360.826 286.944 360.905C286.877 363.301 286.865 365.719 286.933 368.171C286.977 369.794 288.062 371.048 289.672 371.328L294.783 372.224C296.394 372.503 298.015 371.138 297.982 369.514C297.915 366.872 297.937 364.241 298.038 361.621C300.744 361.867 303.462 362.17 306.213 362.528C307.835 362.741 309.288 361.431 309.411 359.83L309.803 354.825C309.937 353.213 308.696 351.814 307.063 351.668C304.245 351.411 301.527 351.198 298.899 351.041C299.19 348.712 299.548 346.406 299.973 344.1C300.263 342.51 298.865 340.909 297.233 340.943Z" fill="#B3B3B3"/>
<path fill-rule="evenodd" clip-rule="evenodd" d="M295.152 339.443L290.019 339.342C288.375 339.308 287.1 340.45 286.809 342.04C286.407 344.313 286.06 346.608 285.78 348.937C283.745 348.925 281.743 348.937 279.764 348.981C278.131 349.026 276.688 350.067 276.565 351.68L276.252 355.822C276.129 357.434 277.359 358.946 279.003 358.979C281.027 359.024 283.029 359.08 284.998 359.17C284.919 361.565 284.908 363.984 284.986 366.436C285.031 368.048 286.116 369.313 287.726 369.593L292.826 370.477C294.448 370.768 296.069 369.402 296.025 367.779C295.969 365.137 295.991 362.506 296.092 359.886C298.798 360.132 301.505 360.423 304.267 360.782C305.889 360.994 307.342 359.696 307.465 358.084L307.857 353.079C307.98 351.478 306.75 350.079 305.117 349.922C302.299 349.664 299.581 349.463 296.942 349.306C297.232 346.977 297.467 344.895 297.892 342.6C298.194 341.01 296.796 339.476 295.152 339.443Z" fill="black"/>
<path d="M276.738 137.662C273.767 137.662 271.359 134.975 271.359 131.661C271.359 128.347 273.767 125.66 276.738 125.66C279.709 125.66 282.117 128.347 282.117 131.661C282.117 134.975 279.709 137.662 276.738 137.662Z" fill="white"/>
<path fill-rule="evenodd" clip-rule="evenodd" d="M97.141 238.39C99.7244 261.79 90.442 309.125 99.1428 349.452C112.317 410.525 138.923 413.638 171.076 401.569C189.461 394.672 217.979 382.032 238.244 370.758L233.29 353.158C214.971 362.943 175.46 381.943 165.562 384.965C136.552 393.833 127.046 388.884 119.038 367.243C101.838 320.836 116.153 280.699 109.655 235.401C108.302 225.986 101.939 214.969 92.9918 210.983C85.6666 207.759 14.9193 174.575 20.8689 160.804C23.7431 154.165 24.6266 151.724 24.7496 143.45C24.649 143.652 24.0227 143.193 23.9109 143.406C21.0255 148.723 18.0731 154.803 15.5232 159.147C5.31259 176.567 59.1056 203.952 79.8959 215.977C87.5007 220.365 95.2621 221.328 97.141 238.39Z" fill="black"/>
<path fill-rule="evenodd" clip-rule="evenodd" d="M233.57 378.002C225.137 358.566 221.324 338.089 231.59 316.571C232.261 346.307 236.354 352.71 246.643 377.957C242.338 377.879 237.54 377.935 233.57 378.002Z" fill="black"/>
<path fill-rule="evenodd" clip-rule="evenodd" d="M216.604 232.759C194.125 232.423 170.64 275.907 165.35 295.746L168.146 305.934C171.065 301.87 200.981 244.492 219.344 244.167L219.176 244.201C221.905 244.929 218.304 236.286 216.604 232.759Z" fill="black"/>
<path fill-rule="evenodd" clip-rule="evenodd" d="M364.954 328.013C400.048 298.68 409.23 283.476 429.964 241.682C428.622 243.529 417.461 247.605 416.511 249.53C399.892 283.252 383.91 303.236 352.943 324.385C350.237 326.02 358.703 327.419 364.954 328.013Z" fill="black"/>
<path fill-rule="evenodd" clip-rule="evenodd" d="M300.022 327.666C271.236 305.005 265.979 299.295 252.358 271.205C251.329 269.112 246.9 268.585 245.435 266.469C254.952 295.959 263.977 309.159 290.55 332.457C295.101 330.229 295.806 330.319 300.022 327.666Z" fill="black"/>
<path fill-rule="evenodd" clip-rule="evenodd" d="M448.641 213.659C464.633 214.286 488.32 223.063 504.38 237.987C502.255 244.503 501.919 253.93 501.942 260.782C488.153 244.918 464.868 227.307 446.706 226.881L448.641 213.659Z" fill="black"/>
<path fill-rule="evenodd" clip-rule="evenodd" d="M439.862 387.082C428.365 359.551 423.198 332.928 435.176 313.693C437.569 346.586 445.264 361.466 458.035 388.414C453.271 388.761 444.257 386.611 439.862 387.082Z" fill="black"/>
<path fill-rule="evenodd" clip-rule="evenodd" d="M158.092 35.859C155.285 33.1272 152.768 38.0645 152.556 40.0014C150.252 60.8031 141.875 76.6116 130.177 95.566C127.326 100.179 150.14 120.409 150.901 146.204C151.449 164.622 139.762 170.387 124.541 172.772C123.165 172.985 135.769 185.826 134.472 186.576C154.848 184.091 162.207 164.286 161.883 148.119C161.525 129.926 151.326 110.468 138.23 96.8759C149.212 78.4141 158.237 56.1009 158.092 35.859Z" fill="black"/>
<path fill-rule="evenodd" clip-rule="evenodd" d="M76.9995 139.173C75.4897 133.744 74.9529 133.744 71.9445 129.657C76.1607 123.746 75.0983 118.708 78.3974 109.438C81.4729 100.794 78.4198 90.0689 67.3033 93.9426C74.3825 94.8271 77.0219 100.929 73.2977 107.489C68.9921 115.058 70.2223 121.809 65.5811 128.571C63.4562 131.639 64.966 131.818 65.9613 133.363C70.513 140.371 71.1728 145.152 73.253 154.971C74.1477 159.169 79.9632 158.833 80.2987 152.06C81.2605 132.781 85.7674 123.947 106.054 110.994C105.26 111.128 105.137 109.897 104.388 109.135C88.4962 114.364 77.9389 126.701 76.9995 139.173Z" fill="black"/>
<path fill-rule="evenodd" clip-rule="evenodd" d="M34.4348 98.9918C34.0322 99.4845 33.3835 96.3273 32.925 96.887C25.432 106.202 15.8029 123.734 17.7489 136.968C18.6548 143.103 23.9558 156.482 34.4572 169.872C28.1832 153.235 24.0117 143.193 23.0164 135.658C21.9875 127.911 25.3202 118.764 34.4348 98.9918Z" fill="black"/>
<path fill-rule="evenodd" clip-rule="evenodd" d="M47.1168 137.841C46.1439 135.065 45.0479 133.139 42.8671 131.325C46.4123 126.063 43.9631 118.372 46.6583 108.956C49.8121 97.8835 41.033 90.6846 34.334 96.8871C41.1672 96.6743 45.3051 99.1038 42.5092 107.299C38.964 117.622 41.4915 124.25 37.0516 130.284C35.5083 132.389 36.5148 133.744 37.9127 135.524C41.4579 140.036 44.9025 146.126 48.895 156.807C50.4272 160.904 56.5334 158.385 54.9677 151.937C47.2287 120.297 51.6797 125.28 64.9658 97.3125C64.552 97.8611 65.4803 96.7975 64.0935 96.4392C53.3349 108.262 43.8065 121.742 47.1168 137.841Z" fill="black"/>
<path fill-rule="evenodd" clip-rule="evenodd" d="M101.626 163.95C121.119 181.314 120.94 181.113 128.466 188.894C143.038 203.952 151.806 285.457 168.671 325.124C171.724 309.192 167.038 291.279 164.958 279.938C160.843 257.479 152.556 204.568 143.754 190.293C135.132 176.31 127.695 171.72 108.414 157.882C108.929 151.399 107.061 146.406 103.952 142.174C108.929 135.658 109.477 130.295 113.268 125.828C123.97 113.188 110.394 105.116 106.021 111.039C110.83 108.195 116.008 114.89 110.025 120.6C100.82 129.366 103.426 132.859 96.0674 140.226C94.703 141.592 95.4188 141.122 96.4253 143.338C101.872 155.284 98.4495 161.117 101.626 163.95Z" fill="black"/>
<path fill-rule="evenodd" clip-rule="evenodd" d="M18.9792 69.9948C12.5599 74.2828 15.1545 82.3214 22.983 83.8216C31.2812 85.4114 45.6632 83.0827 51.2662 76.9922C55.0239 72.9281 54.0621 66.1771 46.502 64.744C39.4005 63.4005 24.9401 66.0091 18.9792 69.9948Z" fill="black"/>
<path fill-rule="evenodd" clip-rule="evenodd" d="M44.377 66.4122C53.939 67.4646 49.4768 74.4508 35.1059 76.869C19.6837 79.4553 13.9465 74.5067 21.9987 70.3867C27.5681 70.7562 38.3267 65.7405 44.377 66.4122Z" fill="white"/>
<path fill-rule="evenodd" clip-rule="evenodd" d="M44.377 66.4122C48.5038 66.8712 50.0247 68.4274 49.2531 70.2523C46.8933 71.9541 42.8113 73.5775 37.2307 74.5179C25.734 76.4436 19.6166 74.1932 20.5896 71.204C21.0034 70.9241 21.4731 70.6554 21.9987 70.3867C27.378 67.6325 38.3267 65.7404 44.377 66.4122Z" fill="#FFDB59"/>
<path fill-rule="evenodd" clip-rule="evenodd" d="M34.5018 58.3064C29.4804 64.9791 34.9827 73.6558 43.5158 73.3647C52.5521 73.0513 66.4086 66.5801 69.965 58.0265C72.3359 52.2943 68.9585 44.6812 60.7273 44.9947C52.9995 45.2858 39.1766 52.0928 34.5018 58.3064Z" fill="black"/>
<path fill-rule="evenodd" clip-rule="evenodd" d="M58.043 50.8612C66.1846 49.8424 67.5714 52.2719 60.2014 57.993C58.4009 59.3924 56.1306 60.7919 53.413 62.0906C38.5947 69.1327 30.9675 64.8672 37.7224 57.9594C45.2602 59.1797 51.6236 51.6673 58.043 50.8612Z" fill="white"/>
<path fill-rule="evenodd" clip-rule="evenodd" d="M59.1617 47.4914C64.3509 46.842 66.3416 48.958 65.1897 52.0704C63.2437 54.4439 59.8775 57.0302 55.1021 59.3029C42.9791 65.0687 35.665 63.255 37.1189 58.6312C37.309 58.4072 37.5103 58.1833 37.7228 57.9594C42.241 53.3467 52.7423 48.2863 59.1617 47.4914Z" fill="#FFDB59"/>
<path fill-rule="evenodd" clip-rule="evenodd" d="M69.8419 33.2615C61.8344 34.2915 58.9155 44.4685 64.3731 50.6038C70.1662 57.0973 83.4523 62.796 91.9518 59.3365C97.633 57.019 101.022 49.3163 95.7318 43.4161C93.3833 40.7851 89.3013 37.7958 84.6601 35.8925C79.5045 33.7765 73.7561 32.7689 69.8419 33.2615Z" fill="black"/>
<path fill-rule="evenodd" clip-rule="evenodd" d="M73.8905 35.1984C76.6192 35.2431 79.952 35.9373 83.7208 37.5047C98.3266 43.5392 98.595 53.7498 88.2166 53.4923C86.4384 53.0668 83.7544 52.619 81.6295 51.7233C66.4087 45.1514 62.3826 37.0569 73.8905 35.1984Z" fill="#FFDB59"/>
<path fill-rule="evenodd" clip-rule="evenodd" d="M78.3191 51.0292C61.924 44.1662 63.5232 34.9968 73.8904 35.1984C66.7217 37.1016 67.4487 45.2298 82.3564 51.533C84.4812 52.4287 86.4384 53.0668 88.2166 53.4922C85.5772 53.4251 82.2557 52.6862 78.3191 51.0292Z" fill="white"/>
<path fill-rule="evenodd" clip-rule="evenodd" d="M84.8394 47.1218C81.831 54.9141 89.4917 61.7659 97.611 59.1573C106.222 56.3807 117.797 46.3717 118.882 37.1688C119.609 31.0111 114.286 24.6183 106.446 27.1598C99.0984 29.5445 87.6465 39.8782 84.8394 47.1218Z" fill="black"/>
<path fill-rule="evenodd" clip-rule="evenodd" d="M105.618 29.9923C115.024 25.9954 115.572 35.5118 104.064 45.5992C91.7283 56.4255 83.2288 54.3991 87.8476 45.9127C90.9343 40.2476 99.6575 32.5113 105.618 29.9923Z" fill="#FFDB59"/>
<path fill-rule="evenodd" clip-rule="evenodd" d="M104.5 48.8236C97.7449 53.7162 100.451 63.6468 108.682 65.8748C117.417 68.2371 132.559 66.1323 138.476 59.0006C142.423 54.2312 141.439 45.9575 133.476 43.8303C126.006 41.8263 110.785 44.267 104.5 48.8236Z" fill="black"/>
<path fill-rule="evenodd" clip-rule="evenodd" d="M131.24 45.756C141.305 47.5249 136.597 55.8098 121.465 58.0154C105.227 60.3777 99.1988 54.0633 107.676 49.4506C113.346 46.3718 124.876 44.6252 131.24 45.756Z" fill="#FFDB59"/>
<path fill-rule="evenodd" clip-rule="evenodd" d="M18.1402 85.098C21.2604 85.7361 26.1364 86.0944 33.4505 85.2099C62.0469 81.7616 81.4728 110.266 134.226 65.9308C172.742 33.575 163.549 19.278 114.565 37.0905C114.867 37.0345 113.435 41.5576 115.493 40.9083C124.026 38.2101 159.937 26.0739 145.409 45.1291C128.623 67.1176 97.4429 82.4782 69.5063 83.3178C22.1551 76.1413 92.8353 86.1168 47.307 78.6716C37.7674 77.1154 19.7506 82.355 19.102 79.6904L15.8252 77.2833C13.197 78.0894 13.2753 84.0903 18.1402 85.098Z" fill="black"/>
<path fill-rule="evenodd" clip-rule="evenodd" d="M134.986 98.4432C112.966 105.53 105.26 104.97 82.4459 99.8987C105.652 99.4396 111.232 100.313 133.331 91.7593C135.422 90.7517 138.319 96.8198 134.986 98.4432Z" fill="black"/>
<path fill-rule="evenodd" clip-rule="evenodd" d="M65.1898 49.0923C57.037 50.9061 55.5832 61.083 62.2598 66.401C69.339 72.0437 84.0677 76.1413 92.3212 71.9541C97.8459 69.144 100.217 61.1614 93.7639 56.0449C87.7024 51.2307 72.7611 47.413 65.1898 49.0923Z" fill="black"/>
<path fill-rule="evenodd" clip-rule="evenodd" d="M93.2046 63.9043C90.733 65.7852 84.9288 66.3897 77.1002 64.2737C63.4563 60.5903 59.3184 53.9848 64.597 51.6785C66.7666 56.7278 85.8682 62.4376 92.3323 63.3781C92.5671 63.6244 92.8691 63.8035 93.2046 63.9043Z" fill="white"/>
<path fill-rule="evenodd" clip-rule="evenodd" d="M90.9453 56.9182C94.0767 58.9894 95.0273 61.0606 94.2556 62.6728C91.4374 64.117 86.0357 64.4193 79.0124 62.5161C68.0637 59.5492 63.2324 54.7238 64.4738 51.7345C65.3461 51.3427 66.4644 51.0628 67.8624 50.9396C74.2818 50.3686 85.5436 53.3467 90.9453 56.9182Z" fill="#FFDB59"/>
<path fill-rule="evenodd" clip-rule="evenodd" d="M94.0657 47.8048C85.6444 47.5361 83.0386 56.0784 89.1672 62.2025C95.6649 68.7185 110.047 75.6039 118.848 73.8125C124.731 72.6146 128.019 66.1994 122.092 60.288C116.522 54.7349 101.894 48.0511 94.0657 47.8048Z" fill="black"/>
<path fill-rule="evenodd" clip-rule="evenodd" d="M120.705 66.9719C118.043 68.0915 112.071 67.3302 104.377 63.7028C89.7377 56.8062 87.0424 49.4394 95.0499 49.8536C100.004 58.7766 111.792 62.2361 120.705 66.9719Z" fill="white"/>
<path fill-rule="evenodd" clip-rule="evenodd" d="M119.151 60.4112C123.043 63.7476 123.043 66.233 120.347 67.1063C117.194 67.028 112.675 65.8972 107.319 63.3669C94.9495 57.5339 91.1135 51.3763 95.0502 49.8536C95.5087 49.876 96.0119 49.9208 96.5488 49.9992C103.091 50.9508 114.107 56.0897 119.151 60.4112Z" fill="#FFDB59"/>
<path fill-rule="evenodd" clip-rule="evenodd" d="M48.6268 62.0011C40.3397 62.9415 37.8234 72.9058 43.8961 78.9067C50.3379 85.2659 64.5522 90.8974 73.2083 87.5946C78.9902 85.4002 82.1887 77.7087 76.3173 71.9317C70.7926 66.513 56.3434 61.139 48.6268 62.0011Z" fill="black"/>
<path fill-rule="evenodd" clip-rule="evenodd" d="M72.1233 73.3647C77.8829 78.1005 76.3843 81.1346 68.9136 80.7427C66.1513 80.586 62.7403 79.8583 58.882 78.358C43.5828 72.4243 41.4468 63.9491 51.0982 64.117C51.9146 64.1282 52.8093 64.2066 53.7599 64.3521C58.6695 68.8528 67.7729 69.7709 72.1233 73.3647Z" fill="white"/>
<path fill-rule="evenodd" clip-rule="evenodd" d="M73.4207 72.5027C78.5651 76.7458 76.8764 80.2949 71.128 80.7203C68.7124 80.4069 65.9165 79.7015 62.8298 78.5036C48.403 72.9057 45.6854 65.0463 53.5251 64.3185C60.0116 65.203 69.0143 68.864 73.4207 72.5027Z" fill="#FFDB59"/>
<path fill-rule="evenodd" clip-rule="evenodd" d="M69.6743 73.0177C62.0806 78.2126 65.2567 87.4379 74.6174 88.9045C84.5484 90.4608 101.682 87.27 108.302 80.0151C112.731 75.1673 111.501 67.3751 102.465 65.9756C93.9762 64.6657 76.7423 68.1924 69.6743 73.0177Z" fill="black"/>
<path fill-rule="evenodd" clip-rule="evenodd" d="M99.9484 67.9796C111.378 68.8752 106.133 77.1265 89.0109 80.4181C70.6362 83.9559 63.7248 78.414 73.2868 73.3647C79.6838 69.9836 92.7238 67.4198 99.9484 67.9796Z" fill="white"/>
<path fill-rule="evenodd" clip-rule="evenodd" d="M99.9482 67.9796C106.446 68.4946 107.553 71.3719 104.153 74.3724C101.335 75.9174 97.4655 77.3504 92.6677 78.3469C76.9883 81.616 69.6631 77.7199 73.7898 73.1072C80.3434 69.8605 92.9025 67.431 99.9482 67.9796Z" fill="#FFDB59"/>
<path fill-rule="evenodd" clip-rule="evenodd" d="M38.3938 174.563C43.9744 179.792 50.1478 179.904 55.9968 176.444C63.6799 182.803 68.7125 181.74 77.2791 177.071C82.8597 180.396 90.0172 180.732 94.9716 175.481C90.9902 176.108 84.761 177.441 80.3658 174.25C76.966 171.787 75.501 172.459 72.8169 173.69C69.1487 175.369 65.2232 177.956 59.5532 174.004C55.5159 171.182 54.2186 171.809 51.8029 173.343C49.8905 174.552 46.9828 176.657 38.3938 174.563Z" fill="black"/>
<path fill-rule="evenodd" clip-rule="evenodd" d="M108.325 116.782C112.261 111.352 114.397 110.165 117.294 108.542C120.817 106.571 116.354 105.911 114.453 105.877C108.571 105.776 105.338 108.217 99.6572 112.684C96.6712 115.55 104.701 121.092 108.325 116.782Z" fill="black"/>
<path fill-rule="evenodd" clip-rule="evenodd" d="M40.3732 101.253C40.1272 93.7299 40.5745 93.797 42.1514 89.1284C42.6435 87.6617 41.6034 86.2399 40.0489 87.1355C33.9091 90.6622 33.0032 95.6443 31.0685 103.392C30.4534 107.489 40.1496 106.885 40.3732 101.253Z" fill="black"/>
<path fill-rule="evenodd" clip-rule="evenodd" d="M72.1571 101.399C72.8952 94.1777 74.0023 91.5019 76.3621 87.3707C67.7843 88.9045 64.9548 93.7746 61.7451 101.589C60.6044 105.418 71.2065 106.728 72.1571 101.399Z" fill="black"/>
<path fill-rule="evenodd" clip-rule="evenodd" d="M405.428 122.279C413.066 123.667 414.341 125.168 414.341 127.62C414.341 132.568 419.933 137.796 423.411 138.748C446.259 142.555 447.858 120.085 438.609 111.363C433.398 106.437 428.891 106.885 423.545 107.758C421.655 117.04 408.302 115.327 403.135 118.014C398.013 120.678 403.918 122.01 405.428 122.279Z" fill="black"/>
<path fill-rule="evenodd" clip-rule="evenodd" d="M401.446 118.999C414.206 118.909 429.159 121.383 427.716 124.765C427.459 125.369 425.748 125.907 424.305 125.94C424.037 127.429 423.746 128.829 423.444 130.127C423.366 130.463 423.287 130.799 423.209 131.124C433.957 134.606 438.05 124.877 435.153 118.316C429.707 105.967 410.74 110.266 401.927 115.114C399.053 116.692 399.903 119.01 401.446 118.999Z" fill="#FFDB59"/>
<path fill-rule="evenodd" clip-rule="evenodd" d="M425.96 114.42C425.032 114.061 424.048 113.748 423.03 113.49C417.707 112.158 411.534 112.281 406.121 113.266C405.975 113.289 405.83 113.311 405.685 113.345C405.74 113.322 405.796 113.3 405.863 113.278C407.44 112.64 409.163 112.069 410.952 111.587C412.283 111.24 413.658 110.938 415.045 110.714C415.951 110.568 416.857 110.456 417.752 110.378C417.919 110.367 418.098 110.344 418.266 110.333C418.948 110.288 419.63 110.266 420.301 110.255C421.073 110.255 421.834 110.277 422.583 110.344C422.84 110.367 423.097 110.389 423.355 110.423C424.339 110.535 425.312 110.714 426.24 110.96C427.425 111.274 428.555 111.71 429.606 112.281C431.966 113.558 433.912 115.506 435.153 118.316C436.383 121.104 436.35 124.451 435.097 127.116C435.612 121.025 431.373 116.536 425.96 114.42Z" fill="white"/>
</svg>
