<?xml version="1.0" encoding="UTF-8"?>
<!DOCTYPE svg PUBLIC "-//W3C//DTD SVG 1.1//EN" "http://www.w3.org/Graphics/SVG/1.1/DTD/svg11.dtd">
<!-- Creator: CorelDRAW 2021 (64-Bit) -->
<svg xmlns="http://www.w3.org/2000/svg" xml:space="preserve" width="4125px" height="1080px" version="1.1" style="shape-rendering:geometricPrecision; text-rendering:geometricPrecision; image-rendering:optimizeQuality; fill-rule:evenodd; clip-rule:evenodd"
viewBox="0 0 2522.12 660.76"
 xmlns:xlink="http://www.w3.org/1999/xlink"
 xmlns:xodm="http://www.corel.com/coreldraw/odm/2003">
 <defs>
  <style type="text/css">
   <![CDATA[
    .fil0 {fill:white}
    .fil1 {fill:black}
    .fil3 {fill:white}
    .fil2 {fill:#FFDB59;fill-rule:nonzero}
    .fil4 {fill:#7F86E8;fill-rule:nonzero}
   ]]>
  </style>
 </defs>
 <g id="Слой_x0020_1">
  <metadata id="CorelCorpID_0Corel-Layer"/>
  <g id="_3180633329376">
   <path class="fil0" d="M389.26 628.25c-1.97,1.63 -4,3.2 -6.1,4.7 -12.31,8.82 -26.05,14.84 -40.62,18.83 -17.04,4.67 -34.82,6.63 -52.43,7.32 -41.64,1.64 -89.48,-2.32 -122.05,-31.28 -21.31,-18.95 -32.94,-44.87 -32.94,-73.39 0,-31.51 2.45,-62.83 3.94,-94.26 0.76,-16.08 1.94,-36.09 -0.65,-52.33 -2.59,-7.9 -8.58,-19.03 -11.92,-26.03 -10.31,-21.62 -21.4,-42.87 -32.95,-63.85 -11.86,-21.57 -24.21,-42.93 -37.63,-63.57 -5.39,-8.28 -14.49,-23.08 -21.57,-29.81 -48.46,-46.13 -44.51,-118.99 4.82,-162.71 18.21,-16.14 40.74,-27.1 63.64,-34.88 60.67,-20.6 137.35,-24.34 174.21,39.51 4.46,7.73 8.73,15.57 12.87,23.48 3.53,-5.1 7.11,-10.16 10.75,-15.19 19.78,-27.35 39.14,-51.94 73.42,-61.87 30.04,-8.7 66.98,-2.84 96.83,5.18 59.29,15.94 113.21,56.49 106.36,124.97 -0.53,5.29 -1.44,10.43 -2.74,15.41 44.8,8.95 85.81,27.64 116.55,58.68 78.44,-74.24 205.74,-90.09 291.59,-28.92 31.62,-23 70.37,-31.73 109.94,-31.73 11.06,0 21.98,0.89 32.78,3.46 7.62,1.82 14.99,4.46 21.98,7.88 12.7,-2.5 25.64,-3.71 38.67,-3.71 32.29,0 61.21,8.22 85.77,23.25 65.16,-127.23 198.74,-202.63 350.46,-180.84 23.43,3.36 45.13,11.35 64.15,23.57 8.95,-5.3 18.54,-9.78 28.45,-13.62 23.84,-9.25 48.88,-15.12 74.57,-15.12 9.32,0 18.54,0.41 27.76,1.89 52.72,8.42 91.61,54.59 86.29,108.6 -0.55,5.64 -0.99,11.28 -1.39,16.93 -0.68,9.74 -1.31,19.47 -1.87,29.2 22.54,-1.04 46.42,0.42 66.74,7.67 5.23,1.86 10.23,4.14 14.98,6.79 24.77,-13.98 53.73,-19.8 82.34,-21.16 0.45,-32.29 3.01,-64.5 24.82,-91.18 25.6,-31.35 64.78,-48.19 103.68,-55.84 14.47,-2.85 29.37,-4.57 44.14,-4.24 61.72,1.38 112.58,49.35 104.79,113.3 -2.02,16.53 -3.59,33.09 -4.68,49.68 114.32,22.46 185.11,114.06 185.11,240.16 0,150.3 -107.38,258.87 -255.26,242.79 -43.13,20.05 -102.25,18.94 -146.51,-1.07 -40.67,15.36 -84.55,19.88 -120.74,-5.69 -47.09,16.24 -97.38,15.08 -139.78,-8.77 -13.41,7.47 -28.02,13.07 -42.84,17.52 -22.4,6.74 -48.7,12.8 -72.08,12.8 -32.65,0 -58.3,-14.08 -77.27,-36.22 -45.95,22.12 -95.32,33.92 -146.88,33.92 -64.17,0 -124.89,-15.34 -175.38,-51.04 -18.78,33.83 -63.42,42.95 -99.31,46.7 -27.65,2.89 -59.99,3.26 -86.34,-6.17 -7.58,-2.7 -14.69,-6.27 -21.2,-10.57 -23.51,11.21 -50.12,15.92 -76.32,16.94 -13.05,0.51 -26.25,0.16 -39.22,-1.52 -26.28,-3.39 -49.78,-14.59 -66.85,-31.47 -33.53,20.23 -72.51,30.94 -114.64,30.94 -44.1,0 -86.41,-11.28 -122.8,-33.8 -10.86,7.55 -22.69,13.87 -34.85,19.28 -24.38,10.86 -54.48,20.61 -81.25,20.61 -15.97,0 -31.06,-3.49 -44.83,-10.02 -20.6,6.28 -42.24,9.72 -63.47,9.72 -38.04,0 -74.44,-10.33 -105.04,-29.81z"/>
   <g>
    <path class="fil1" d="M374.08 537.93c0.15,1.17 0.31,2.34 0.46,3.51 2.68,19.41 -5.99,37.73 -21.77,49.04 -7.27,5.19 -15.47,8.59 -24.04,10.93 -12.98,3.56 -27.25,4.98 -40.66,5.51 -26.23,1.03 -64.88,0.03 -85.3,-18.13 -10.17,-9.04 -15.42,-20.74 -15.42,-34.36 0,-30.69 2.42,-61.15 3.88,-91.78 1,-21.13 2.02,-45.85 -1.89,-66.75 -2.92,-10.69 -10.95,-26.58 -15.71,-36.58 -10.74,-22.49 -22.32,-44.7 -34.33,-66.54 -12.45,-22.63 -25.52,-45.19 -39.62,-66.86 -7.73,-11.9 -19.06,-29.4 -29.33,-39.16 -26.36,-25.1 -22.91,-62.44 3.45,-85.81 12.74,-11.28 29.76,-19.06 45.79,-24.5 34.59,-11.75 89.87,-22.5 112.19,16.16 17.99,31.15 33.51,65.92 48.28,98.76 0.95,2.12 1.9,4.24 2.86,6.39 7.73,-13.07 15.24,-25.02 21.2,-34.49 12.36,-19.59 25.24,-39.1 38.82,-57.87 11.71,-16.18 25.49,-36.49 45.63,-42.32 19.31,-5.59 49.42,0.27 68.75,5.46 33.17,8.92 72.08,28.03 67.95,69.33 -1.01,10.1 -4.7,18.49 -11.46,26.07 -11.13,12.44 -22.48,26.13 -33.73,40.74 9.18,-0.52 18.29,-0.4 26.53,-0.4 86.2,0 157.58,31.06 179.86,105.79 7.81,-15.38 17.46,-29.83 28.86,-42.89 71.54,-82.04 212.23,-90.07 272.89,0.8 2.34,-10.68 6.54,-20.5 14.02,-27.99 23.97,-23.98 57.53,-31.26 90.34,-31.26 6.93,0 13.94,0.44 20.7,2.05 9.59,2.28 18.11,7.08 24.68,13.65 14.88,-5.3 30.94,-8.07 48.05,-8.07 51.21,0 85.81,28.53 104.84,70.63 33.6,-146.71 161.63,-252.07 323.96,-228.75 31.67,4.55 55.91,20.57 71.99,43.58 8.51,-18.34 27.6,-29.13 46.93,-36.63 17.75,-6.89 36.56,-11.58 55.68,-11.58 6.48,0 13.13,0.21 19.52,1.23 25.36,4.05 45.21,24.98 42.56,51.91 -0.61,6.11 -1.07,12.25 -1.51,18.38 -2.24,31.86 -3.86,63.97 -5.03,96.1 12.8,-5.67 27.62,-8.38 41.05,-9.79 18.93,-1.97 45.52,-2.97 63.37,3.41 16.92,6.04 28.29,20.68 30.25,37.79 2.11,-8.45 5.84,-16.37 12.66,-23.18 19.38,-19.38 49.9,-25.05 76.39,-26.07 10.03,-0.39 20.48,-0.17 30.46,1.11 5.91,0.76 11.7,2.19 17.12,4.28 -0.05,-12.55 -0.03,-25.1 0.07,-37.63 0.21,-23.01 -2,-59.37 13.2,-78 17.43,-21.32 46.9,-32.44 73.32,-37.63 10.65,-2.1 22.05,-3.51 32.9,-3.27 30.41,0.68 58.22,20.96 54.1,54.78 -4.18,34.32 -6.54,68.54 -6.79,102.91 109.07,1.08 186.85,69.54 186.85,193.24 0,129.61 -92.51,210.24 -213.41,188.56 -30.84,23.23 -99.84,22.27 -132.63,-5.48 -5.95,3.11 -12,5.82 -17.82,8.17 -26.02,10.47 -59.23,19.15 -82.44,-2.96 -5.33,-5.08 -9.64,-9.69 -13.29,-14.12 -54.01,30.27 -113.04,28.73 -151.51,-13.98 -12.03,18.37 -35.66,28.21 -56.84,34.58 -16.68,5.01 -39.78,10.59 -57.05,10.59 -26.56,0 -41.74,-18.97 -51.61,-40.53 -1.97,-4.31 -3.77,-9.24 -5.41,-14.72 -8.71,5.71 -17.62,10.72 -25.61,15.2 -43.82,24.53 -91.29,37.74 -141.52,37.74 -68.88,0 -133.15,-20.08 -180.06,-72.62 -13.44,-15.05 -24.26,-31.35 -32.75,-48.56 0.86,40.51 -0.71,76.52 -7.29,94.9 -5.15,14.41 -39.1,20.05 -60.01,22.23 -18.93,1.98 -45.51,2.97 -63.34,-3.4 -17.26,-6.17 -28.74,-21.31 -30.33,-38.87 -2.24,5.78 -5.54,11.22 -10.46,16.13 -19.37,19.37 -49.88,25.05 -76.35,26.1 -10.04,0.38 -20.52,0.15 -30.5,-1.13 -28.25,-3.65 -53.8,-22.78 -49.09,-55.41 1.05,-7.29 1.95,-14.66 2.72,-22.12 -30.94,47.54 -79.91,76.57 -141.8,76.57 -51.29,0 -95.67,-18.9 -127.52,-52.02 -9.6,19.99 -31.15,33.02 -51.37,42.01 -16.93,7.54 -41.42,16.1 -60.01,16.1 -15.5,0 -28.14,-6.36 -38.23,-16.02 -22.36,10.23 -47.26,15.71 -70.07,15.71 -52.75,0 -97.29,-25.91 -120.22,-67.9zm1299.1 -145.66c-0.21,-42.83 1.04,-87.88 2.69,-129.8 -23.66,16.09 -53.87,20.46 -82.18,20.46 -25.35,0 -46.03,-20.68 -46.03,-46.04l0 -3.89c0,-1.63 -0.01,-3.86 -0.09,-6.24 -60.94,6.35 -86.82,81.52 -86.82,135.04 0,19.29 3.59,38.47 14.67,54.6 11.85,17.26 28.08,22.32 48.58,22.32 33.91,0 63.54,-20.68 86.87,-43.49 8.94,-8.72 19.69,-13.1 32.18,-13.1 11.76,0 21.46,3.98 30.13,10.14zm611.2 42.18c31.23,-2.99 38.24,-64.24 0.22,-64.9 0.78,19.67 -0.33,45.26 -0.22,64.9zm-1915.67 -20.22c9.82,-24.31 30.36,-52.61 53.66,-69.11 -9.64,-1.86 -19.6,-9.31 -20.72,-18.23 -10.53,21.16 -37.04,62.09 -32.94,87.34zm486.06 9.2c5.51,-15.9 7.64,-40.03 0.83,-55.64 -4.1,-9.43 -11.7,-5.5 -17.8,0.85 -10.6,11.05 -12.85,38.05 -10.56,52.8 4.58,29.23 17.97,29.56 27.53,1.99z"/>
    <path class="fil2" d="M276.67 282.74c7.5,-41.28 104.51,-186.92 114.68,-189.87 11.6,-3.37 79.8,9.89 78.19,26.05 -85.6,95.77 -136.43,201.62 -153.72,257.51 -7.81,25.27 -0.95,126.84 3.19,156.9 2.26,16.36 -84.35,16.81 -95.69,6.73 0,-60.88 9.84,-122.1 1.06,-167.8 -5.36,-27.87 -91.44,-194.25 -132.32,-233.18 -25.13,-23.92 81.33,-52.73 89.91,-37.86 26.35,45.66 68.33,145.73 85.28,182.82 3.23,7.07 8.47,3.91 9.42,-1.3zm554.84 256.96c-136.33,0 -170.29,-166.37 -91.53,-256.67 57.02,-65.39 176.76,-70.38 211.01,17.38 33.65,86.24 5.22,239.29 -119.48,239.29zm-36.87 -217.27c-38.79,40.43 -34.34,153.07 36.87,153.07 54.36,0 78.1,-90.24 56.25,-140.43 -17.95,-41.24 -64.79,-42.17 -93.12,-12.64zm226.93 -21.71c-0.35,-26.28 1.06,-40.47 3.17,-42.6 11.87,-11.86 31.15,-17.79 57.84,-17.79 8.91,0 13.57,1.09 13.35,3.17 -0.47,4.68 -4.12,45.78 0,45.78 0.43,0 1.2,-0.34 1.91,-1.28 20.45,-26.59 46.4,-40.05 78.18,-40.05 35.6,0 59.21,21.83 70.55,65.47 12.69,48.79 14.73,162.89 11.84,218.16 -0.52,10.08 -61.01,14.76 -75.63,9.54 4.66,-42 7.82,-143.97 -2.31,-183.2 -14.51,-56.23 -84.88,-31.56 -84.54,13.34 0.16,19.99 2.29,153.72 -1.9,157.9 -17.04,17.04 -78.7,13.85 -77.94,8.64 10.26,-71.05 6.45,-163.83 5.48,-237.08zm-383.85 80.71c0,52.96 0.63,83.91 1.91,92.8 3.37,23.31 12.51,26.44 23.53,36.61 0,14.28 -54.44,34.97 -70.56,34.97 -10.19,0 -20.46,-28.21 -22.25,-35.35 -0.57,-2.25 -1.86,-0.97 -2.67,0 -16.76,20.29 -52.02,35.03 -83.38,35.03 -108.96,0 -127.25,-145.7 -14.38,-197.11 30.89,-14.07 59.11,-20.97 84.53,-20.97 0.43,0 0.85,-0.22 1.28,-0.64 0,-20.77 -26.27,-31.14 -78.82,-31.14 -20.76,0 -36.08,2.54 -46.39,2.54l-0.64 0c0,-22.46 7.3,-41.84 22.25,-57.84 2.86,-3.07 17.79,-4.45 44.49,-4.45 94.07,0 141.1,37.71 141.1,113.14l0 32.41zm-70.55 16.53c0,-9.32 -0.22,-13.98 -0.63,-13.98 -18.65,0 -37.08,3.83 -55.31,11.44 -75.93,31.7 -43.39,121.07 33.69,72.48 24.59,-15.49 22.25,-45.01 22.25,-69.94z"/>
    <path class="fil3" d="M1021.57 300.71c0.97,73.26 4.78,166.04 -5.49,237.09 -0.26,1.8 6.95,3.36 17.21,3.92 9.49,-70.44 5.82,-160.89 4.87,-232.64 -0.35,-26.27 1.06,-40.47 3.17,-42.59 11.31,-11.3 29.35,-17.23 54.14,-17.76 0.21,-2.55 0.38,-4.43 0.46,-5.23 0.22,-2.08 -4.45,-3.17 -13.34,-3.17 -26.7,0 -45.98,5.93 -57.85,17.79 -2.11,2.13 -3.52,16.33 -3.17,42.59z"/>
    <path class="fil3" d="M1095.01 288.35c0.78,13.13 15.83,8.98 19.42,5.39 23.72,-23.72 46.4,-37.42 78.18,-37.42 7.92,0 15.25,1.08 21.98,3.25 -10.72,-7.75 -23.58,-11.62 -38.57,-11.62 -31.78,0 -57.74,13.46 -78.18,40.05 -0.71,0.93 -1.48,1.27 -1.91,1.27 -0.36,0 -0.67,-0.33 -0.92,-0.92z"/>
    <path class="fil3" d="M1180.47 357.91c10.13,39.25 6.97,141.21 2.31,183.21 3.54,1.26 9.79,1.94 17.22,2.11 4.3,-45.1 6.72,-139.54 -2.94,-176.95 -6.62,-25.64 -27.67,-43.31 -51.32,-40.82 15.06,1 29.1,10.64 34.73,32.45z"/>
    <path class="fil3" d="M848.09 483.88c54.36,0 78.11,-90.25 56.25,-140.45 -7.43,-17.07 -19.83,-27.25 -33.8,-31.19 6.96,5.39 12.92,12.95 17.22,22.83 21.86,50.19 -1.89,140.43 -56.26,140.43 -5.98,0 -11.5,-0.79 -16.55,-2.28 8.81,6.7 19.8,10.66 33.14,10.66z"/>
    <path class="fil3" d="M756.56 291.39c38.09,-43.66 104.14,-60.39 154.02,-40.54 -50.82,-31.72 -128.12,-16.54 -170.6,32.18 -67.19,77.05 -52.34,209.45 38.12,246.68 -75.45,-45.74 -84.38,-166.25 -21.54,-238.32z"/>
    <path class="fil3" d="M446.9 297.14c1.79,-18.51 9,-34.72 21.81,-48.45 2.86,-3.06 17.79,-4.44 44.49,-4.44 31.83,0 58.26,4.31 79.32,12.94 -23.1,-14.21 -55.08,-21.32 -95.9,-21.32 -26.7,0 -41.63,1.39 -44.49,4.46 -14.94,16 -22.25,35.38 -22.25,57.84l0.63 0c4.5,0 9.95,-0.48 16.39,-1.03z"/>
    <path class="fil3" d="M519.03 298.77c24.46,4.5 36.7,13.83 36.7,28 -0.42,0.42 -0.85,0.64 -1.28,0.64 -25.42,0 -53.64,6.9 -84.53,20.97 -98.96,45.07 -97.09,162.63 -21.7,190.92 -58.47,-38.17 -52.8,-141.06 38.28,-182.55 30.9,-14.07 59.12,-20.98 84.54,-20.98 0.43,0 0.86,-0.2 1.28,-0.64 0,-14.85 -17.53,-33.07 -53.29,-36.36z"/>
    <path class="fil3" d="M567.17 397.96c0,24.92 2.34,54.44 -22.26,69.94 -29.09,18.34 -51.83,17.03 -64.8,6.58 11.57,14.58 48.23,22.69 81.39,1.79 24.6,-15.5 22.26,-45.02 22.26,-69.94 0,-9.08 1.15,-22.51 -17.23,-22.35 0.42,0 0.64,4.66 0.64,13.98z"/>
    <path class="fil3" d="M586.93 518.83c-1.84,-7.54 -9.53,-18.76 -18.71,-8.97 0.77,-0.74 1.68,-1.2 2.13,0.61 1.78,7.13 12.06,35.33 22.25,35.33 1.57,0 3.51,-0.2 5.72,-0.56 -5.72,-8.82 -10.22,-21.63 -11.39,-26.41z"/>
    <path class="fil3" d="M224.38 372.26c8.78,45.7 -1.06,106.92 -1.06,167.8 2.61,2.33 9.25,4.1 17.86,5.23 0.6,-58.89 9.52,-117.63 1.04,-161.84 -5.36,-27.87 -88.1,-197.6 -128.98,-236.52 -20.37,-19.39 42.4,-38.66 72.73,-38.59 -1.37,-2.5 -2.7,-4.88 -4,-7.12 -8.58,-14.87 -115.04,13.94 -89.91,37.86 40.88,38.93 126.97,205.31 132.32,233.18z"/>
    <path class="fil3" d="M267.25 284.04c3.57,15.39 17.09,26.38 24.76,6.3 29.65,-77.57 107,-183.34 117.18,-186.28 7.48,-2.17 38.52,2.58 59.17,10.56 -9.08,-14.12 -66.45,-24.81 -77.01,-21.76 -10.17,2.95 -107.18,148.6 -114.68,189.88 -0.95,5.22 -6.19,8.37 -9.42,1.3z"/>
    <path class="fil4" d="M1511.34 547.65c-63.32,0 -111.89,-19.08 -145.72,-57.25 -31.23,-34.69 -46.83,-80.87 -46.83,-138.56 0,-155.01 116.06,-284.15 280.06,-260.6 68.79,9.89 58.82,104.59 47.87,115.54 -11.7,11.7 -32.52,17.56 -62.44,17.56l0 -3.9c0,-19.52 -2.54,-33.04 -7.81,-40.34 -5.98,-8.28 -16.04,-12.35 -29.92,-12.35 -95.7,0 -141.25,100.03 -141.25,181.49 0,32.09 7.59,58.98 22.77,80.66 19.08,28.19 47.92,42.29 86.52,42.29 40.77,0 80.44,-18.87 119.04,-56.6 1.74,0 4.99,2.39 9.76,7.16 22.12,22.11 33.18,40.77 33.18,55.94 0,7.37 -15.41,19.73 -46.19,37.08 -38.17,21.25 -77.84,31.88 -119.04,31.88zm595 -39.49c5.29,4.14 9.91,6 9.25,7.14 -10.01,17.17 -63.24,36.4 -69.66,30.28 -20.21,-19.26 -23.58,-33.59 -31.49,-48.44 -56.58,55.89 -130.64,65.26 -153.77,-23.82 -12.66,-48.76 -14.7,-162.89 -11.84,-218.16 0.52,-10.06 61.02,-14.75 75.64,-9.53 -4.67,41.99 -7.83,143.96 2.3,183.19 14.52,56.23 84.86,31.55 84.54,-13.34 -0.14,-19.96 -0.08,-161.87 4.09,-166.03 17.01,-17.01 78.68,-13.8 77.94,-8.64 -6.56,45.63 -23.13,239.05 13,267.35zm-313.85 -37.03c2.54,19.03 8.45,36.43 18.86,52.05 0,12.66 -60.19,26.77 -75.86,26.77 -2.17,0 -5.56,-4.51 -9.76,-13.66 -28.56,-62.41 -9.69,-343.55 -6.88,-425.79 0.14,-4.33 7.37,-9.32 22.12,-14.96 14.31,-5.64 27.31,-8.46 39.03,-8.46 10.84,0 16.43,0.88 16.26,2.61 -0.55,5.61 -1.09,12.21 -1.62,19.65 -6.21,88.43 -12.53,284.24 -2.15,361.79zm350.36 62.7c2.65,-12.1 14.21,-23.44 13.83,-103.21 -0.14,-31.66 -7.91,-312.35 -0.92,-320.9 17.85,-21.87 79.94,-28.8 78.97,-20.81 -4.5,36.85 -9.46,91.85 -5.99,158.2 116.17,-19.76 185.71,37.35 185.71,143.5 0,93.41 -64.9,176.29 -187.52,136.07 -2.2,9.5 -3.73,12.71 -7.42,15.65 -17.92,14.22 -79.71,5.47 -76.66,-8.5zm89.73 -76.66c70.33,19.02 103.3,-6.82 107.15,-63 4.64,-67.76 -49.29,-95.53 -109.83,-80.37 1.82,46.1 4.42,104.96 2.68,143.37z"/>
    <path class="fil3" d="M1335.37 360.2c0,-155.01 116.07,-284.15 280.07,-260.59 3.98,0.57 7.68,1.42 11.15,2.53 -7.37,-5.41 -16.51,-9.28 -27.74,-10.9 -164,-23.55 -280.06,105.59 -280.06,260.6 0,57.69 15.6,103.87 46.83,138.56 6.92,7.8 14.44,14.8 22.58,21.01 -2.04,-2.03 -4.03,-4.12 -5.99,-6.31 -31.08,-34.81 -46.84,-87.21 -46.84,-144.9z"/>
    <path class="fil3" d="M1576.47 180.1c5.27,7.3 7.81,20.82 7.81,40.34l0 3.9c5.86,0 11.37,-0.22 16.54,-0.67 -0.15,-28.6 -4.54,-55.79 -49.99,-55.79 11.68,0.78 20.3,4.82 25.64,12.22z"/>
    <path class="fil3" d="M1633.63 415.59c-38.6,37.73 -78.27,56.6 -119.04,56.6 -21.6,0 -40.13,-4.41 -55.62,-13.23 64.64,41.87 136.45,16.88 188.34,-32.21 -1.27,-1.32 -2.57,-2.65 -3.92,-4 -4.77,-4.77 -8.02,-7.16 -9.76,-7.16z"/>
    <path class="fil3" d="M1718.85 110.5c-2.81,82.24 -21.68,363.38 6.88,425.79 4.2,9.15 7.59,13.66 9.76,13.66 2.21,0 5.32,-0.29 9.02,-0.8 -0.71,-1.35 -1.44,-2.85 -2.19,-4.49 -28.57,-62.42 -9.69,-343.55 -6.88,-425.79 0.14,-4.33 7.37,-9.33 22.12,-14.97 13.96,-5.49 26.68,-8.31 38.17,-8.44 0.17,-2.03 0.35,-3.95 0.53,-5.77 0.17,-1.73 -5.42,-2.61 -16.26,-2.61 -11.72,0 -24.72,2.82 -39.03,8.46 -14.75,5.64 -21.98,10.63 -22.12,14.96z"/>
    <path class="fil3" d="M1848.83 255.16c-2.86,55.27 -0.82,169.4 11.84,218.16 10.34,39.81 30.85,59.95 55.42,65.08 -17.12,-8.82 -31.3,-27.7 -38.83,-56.71 -12.65,-48.75 -14.7,-162.89 -11.84,-218.16 0.39,-7.62 35.19,-12.16 58.41,-11.65 0.21,-2.2 0.42,-4.29 0.64,-6.25 -14.62,-5.22 -75.12,-0.53 -75.64,9.53z"/>
    <path class="fil3" d="M2015.4 249.45c-4.17,4.16 -4.23,146.07 -4.09,166.03 0.18,25.46 -22.36,44.41 -44.56,45.81 20.1,1.28 61.38,-17.47 61.13,-57.44 -0.11,-19.93 -0.06,-141.88 4.11,-146.04 11.12,-11.12 41.35,-13.59 60.74,-12.53 0.21,-1.61 0.42,-3.11 0.61,-4.47 0.74,-5.16 -60.93,-8.37 -77.94,8.64z"/>
    <path class="fil3" d="M2033.1 505.5c-3.53,-10.95 -9.3,-15.39 -18.66,-8.36 7.91,14.85 11.28,29.18 31.49,48.44 1.33,1.26 4.65,1.45 9.18,0.79 -14.01,-15.48 -17.54,-27.03 -22.01,-40.87z"/>
    <path class="fil3" d="M2156.68 430.62c0.38,79.77 -11.18,91.11 -13.83,103.21 -1.12,5.14 6.53,9.57 17.53,12.42 -0.89,-1.3 -1.25,-2.65 -0.94,-4.06 2.64,-12.1 14.21,-23.43 13.83,-103.2 -0.14,-31.67 -7.9,-312.36 -0.92,-320.9 11.67,-14.3 42.22,-22.2 61.73,-23.75 0.22,-1.85 0.44,-3.67 0.65,-5.43 0.97,-7.99 -61.12,-1.06 -78.97,20.81 -6.99,8.55 0.78,289.24 0.92,320.9z"/>
    <path class="fil3" d="M2245.33 255.48c42.25,-7.3 78.34,-4.34 107.16,7.48 -31.05,-18.43 -72.94,-24.49 -123.75,-15.85 0.15,4.08 3.37,10.65 16.59,8.37z"/>
    <path class="fil3" d="M2356.32 402.54c2.87,-41.92 -16.66,-68.52 -46.3,-79.14 20.01,13.6 32,37.31 29.71,70.77 -3.85,56.18 -36.82,82.02 -107.15,63 72.17,27.99 119.9,1.54 123.74,-54.63z"/>
   </g>
  </g>
 </g>
</svg>
