<svg width="63" height="38" viewBox="0 0 63 38" fill="none" xmlns="http://www.w3.org/2000/svg">
<path d="M63.0001 19C63.0001 29.4256 54.5678 38 44.1002 38C33.7294 38 25.2002 29.4256 25.2002 19C25.2002 8.57436 33.6325 0 44.0032 0C54.5678 0 63.0001 8.57436 63.0001 19Z" fill="#F9B50B"/>
<path d="M37.703 19.0974C37.703 17.7333 37.5092 16.3692 37.3153 15.1026H25.6846C25.7815 14.4205 25.9753 13.8359 26.1692 13.0564H36.5399C36.3461 12.3744 36.0553 11.6923 35.7646 11.0103H26.9446C27.2353 10.3282 27.623 9.74359 28.0107 8.9641H34.6984C34.3107 8.28205 33.8261 7.6 33.2446 6.91795H29.5615C30.143 6.2359 30.7246 5.65128 31.5 4.96923C28.2046 1.85128 23.7461 0 18.803 0C8.52922 0.292308 0 8.57436 0 19C0 29.4256 8.43229 38 18.9 38C23.843 38 28.2046 36.0513 31.5969 33.0308C32.2753 32.4462 32.8569 31.7641 33.5353 30.9846H29.6584C29.1738 30.4 28.6892 29.7179 28.3015 29.0359H34.8923C35.2799 28.4513 35.6676 27.7692 35.9584 26.9897H27.1384C26.8476 26.4051 26.5569 25.7231 26.363 24.9436H36.7338C37.3153 23.1897 37.703 21.241 37.703 19.0974Z" fill="#C8191C"/>
<path d="M25.5884 23.872L25.8791 22.1182C25.7822 22.1182 25.5884 22.2156 25.3945 22.2156C24.716 22.2156 24.6191 21.8259 24.716 21.631L25.2976 18.1233H26.3637L26.6545 16.1746H25.6853L25.8791 15.0054H23.8437C23.8437 15.0054 22.6807 21.631 22.6807 22.4105C22.6807 23.5797 23.3591 24.1643 24.3284 24.1643C24.9099 24.1643 25.3945 23.9695 25.5884 23.872Z" fill="white"/>
<path d="M26.2656 20.6565C26.2656 23.4822 28.2041 24.1642 29.7549 24.1642C31.2087 24.1642 31.8872 23.8719 31.8872 23.8719L32.2748 21.9232C32.2748 21.9232 31.2087 22.4104 30.1425 22.4104C27.9133 22.4104 28.301 20.754 28.301 20.754H32.3718C32.3718 20.754 32.6625 19.4873 32.6625 18.9027C32.6625 17.636 31.9841 15.9796 29.7549 15.9796C27.8164 15.8822 26.2656 18.1232 26.2656 20.6565ZM29.7549 17.7335C30.821 17.7335 30.6272 19.0001 30.6272 19.0976H28.3979C28.4949 19.0001 28.6887 17.7335 29.7549 17.7335Z" fill="white"/>
<path d="M42.4523 23.8713L42.84 21.6303C42.84 21.6303 41.8708 22.1175 41.0954 22.1175C39.7385 22.1175 39.06 21.0457 39.06 19.779C39.06 17.3431 40.2231 16.0764 41.677 16.0764C42.6462 16.0764 43.5185 16.661 43.5185 16.661L43.8093 14.5175C43.8093 14.5175 42.6462 14.0303 41.4831 14.0303C39.157 14.0303 36.9277 16.0764 36.9277 19.8764C36.9277 22.4098 38.0908 24.0662 40.5139 24.0662C41.3862 24.1636 42.4523 23.8713 42.4523 23.8713Z" fill="white"/>
<path d="M14.6355 15.8823C13.2785 15.8823 12.2124 16.2721 12.2124 16.2721L11.9216 18.0259C11.9216 18.0259 12.7939 17.6362 14.1508 17.6362C14.8293 17.6362 15.4108 17.7336 15.4108 18.3182C15.4108 18.708 15.3139 18.8054 15.3139 18.8054H14.4416C12.697 18.8054 10.8555 19.4875 10.8555 21.8259C10.8555 23.6772 12.0185 24.0669 12.7939 24.0669C14.1508 24.0669 14.8293 23.19 14.9262 23.19L14.8293 23.9695H16.477L17.2524 18.4157C17.2524 15.9798 15.3139 15.8823 14.6355 15.8823ZM15.0232 20.3644C15.0232 20.6567 14.8293 22.3131 13.6662 22.3131C13.0847 22.3131 12.8909 21.8259 12.8909 21.5336C12.8909 21.0464 13.1816 20.3644 14.7324 20.3644C14.9262 20.3644 15.0232 20.3644 15.0232 20.3644Z" fill="white"/>
<path d="M19.1897 24.0662C19.6743 24.0662 22.1943 24.1637 22.1943 21.4355C22.1943 18.9021 19.7712 19.3893 19.7712 18.4149C19.7712 17.9278 20.1589 17.7329 20.8374 17.7329C21.1281 17.7329 22.1943 17.8303 22.1943 17.8303L22.4851 15.9791C22.4851 15.9791 21.8066 15.7842 20.5466 15.7842C19.0928 15.7842 17.542 16.3688 17.542 18.4149C17.542 20.7534 20.062 20.5585 20.062 21.4355C20.062 22.0201 19.3835 22.1175 18.8989 22.1175C18.0266 22.1175 17.0574 21.8252 17.0574 21.8252L16.7666 23.6765C16.9604 23.8714 17.542 24.0662 19.1897 24.0662Z" fill="white"/>
<path d="M59.1223 14.3223L58.7346 17.0505C58.7346 17.0505 57.9592 16.0761 56.7961 16.0761C54.9546 16.0761 53.4038 18.3171 53.4038 20.9479C53.4038 22.6043 54.1792 24.2607 55.9238 24.2607C57.0869 24.2607 57.8623 23.4812 57.8623 23.4812L57.7653 24.1633H59.8007L61.2546 14.5171L59.1223 14.3223ZM58.153 19.5838C58.153 20.6556 57.6684 22.1171 56.5053 22.1171C55.8269 22.1171 55.4392 21.5325 55.4392 20.4607C55.4392 18.8043 56.1177 17.83 57.0869 17.83C57.7653 17.9274 58.153 18.4146 58.153 19.5838Z" fill="white"/>
<path d="M3.68406 23.9684L4.84714 16.7582L5.04098 23.9684H6.39791L9.01482 16.7582L7.94867 23.9684H10.081L11.7287 14.3223H8.43329L6.39791 20.2659L6.30098 14.3223H3.3933L1.74561 23.9684H3.68406Z" fill="white"/>
<path d="M34.698 23.969C35.2795 20.6561 35.3764 17.9279 36.8303 18.4151C37.0241 17.1485 37.3149 16.5638 37.5087 16.0767H37.121C36.2487 16.0767 35.4734 17.2459 35.4734 17.2459L35.6672 16.1741H33.7287L32.4688 23.969H34.698Z" fill="white"/>
<path d="M47.1047 15.8823C45.7478 15.8823 44.6816 16.2721 44.6816 16.2721L44.3909 18.0259C44.3909 18.0259 45.2632 17.6362 46.6201 17.6362C47.2985 17.6362 47.8801 17.7336 47.8801 18.3182C47.8801 18.708 47.7832 18.8054 47.7832 18.8054H46.9109C45.1662 18.8054 43.3247 19.4875 43.3247 21.8259C43.3247 23.6772 44.4878 24.0669 45.2632 24.0669C46.6201 24.0669 47.2985 23.19 47.3955 23.19L47.2985 23.9695H49.1401L49.9155 18.4157C49.9155 15.9798 47.7832 15.8823 47.1047 15.8823ZM47.5893 20.3644C47.5893 20.6567 47.3955 22.3131 46.2324 22.3131C45.6509 22.3131 45.457 21.8259 45.457 21.5336C45.457 21.0464 45.7478 20.3644 47.2985 20.3644C47.4924 20.3644 47.4924 20.3644 47.5893 20.3644Z" fill="white"/>
<path d="M51.4665 23.969C52.0481 20.6561 52.145 17.9279 53.5988 18.4151C53.7927 17.1485 54.0835 16.5638 54.2773 16.0767H53.8896C53.0173 16.0767 52.2419 17.2459 52.2419 17.2459L52.4358 16.1741H50.4973L49.2373 23.969H51.4665Z" fill="white"/>
</svg>
