<svg width="20" height="20" viewBox="0 0 20 20" fill="none" xmlns="http://www.w3.org/2000/svg">
<path fill-rule="evenodd" clip-rule="evenodd" d="M12 1.46342H8C7.72386 1.46342 7.5 1.68181 7.5 1.95122V3.41464H12.5V1.95122C12.5 1.68181 12.2761 1.46342 12 1.46342ZM6 1.95122V3.41464H0.75C0.335786 3.41464 0 3.74223 0 4.14635C0 4.55046 0.335787 4.87805 0.75 4.87805H19.25C19.6642 4.87805 20 4.55046 20 4.14635C20 3.74223 19.6642 3.41464 19.25 3.41464H14V1.95122C14 0.873592 13.1046 0 12 0H8C6.89543 0 6 0.873592 6 1.95122ZM3.78098 18.2908L2.18747 5.85364H3.69914L5.26939 18.1093C5.30067 18.3534 5.51337 18.5366 5.76553 18.5366H14.2344C14.4866 18.5366 14.6993 18.3534 14.7305 18.1093L16.3008 5.85364H17.8125L16.219 18.2908C16.0939 19.2672 15.2431 20 14.2344 20H5.76553C4.75689 20 3.90609 19.2672 3.78098 18.2908ZM13.182 14.2648C13.4749 14.5505 13.4749 15.0138 13.182 15.2996C12.8891 15.5853 12.4142 15.5853 12.1213 15.2996L10 13.23L7.87869 15.2995C7.5858 15.5853 7.11093 15.5853 6.81803 15.2995C6.52514 15.0138 6.52514 14.5505 6.81803 14.2648L8.93935 12.1952L6.81804 10.1256C6.52515 9.83986 6.52515 9.37657 6.81804 9.09082C7.11093 8.80507 7.58581 8.80507 7.8787 9.09082L10 11.1604L12.1213 9.0908C12.4142 8.80505 12.8891 8.80505 13.182 9.0908C13.4749 9.37655 13.4749 9.83984 13.182 10.1256L11.0607 12.1952L13.182 14.2648Z" fill="white"/>
</svg>
