<svg width="16" height="14" viewBox="0 0 16 14" fill="none" xmlns="http://www.w3.org/2000/svg">
<path d="M14.4743 0.00646973H1.4943C0.66956 0.00646973 0 0.6124 0 1.35919V12.6404C0 13.3876 0.669307 13.9934 1.4943 13.9934H14.4743C15.2989 13.9934 15.9682 13.3874 15.9682 12.6407V1.35896C15.9682 0.612486 15.2989 0.00646973 14.4743 0.00646973ZM14.4743 12.0818C14.4743 12.4557 14.2706 12.6405 13.8576 12.6405L2.11102 12.6402C1.69803 12.6402 1.4943 12.4561 1.4943 12.0821L1.49418 1.91719C1.49418 1.54413 1.69752 1.35911 2.11051 1.35911L13.8574 1.35878C14.2701 1.35878 14.4741 1.54413 14.4741 1.91754L14.4743 12.0818Z" fill="white"/>
</svg>
