<svg width="38" height="38" viewBox="0 0 38 38" fill="none" xmlns="http://www.w3.org/2000/svg">
<path d="M24.0667 18.2657L19.9952 13.7681L15.4714 17.8068L19.5429 22.3961L24.0667 18.2657Z" fill="#137ABE"/>
<path d="M12.2143 10.0966L16.2857 14.5942L20.8095 10.5556L16.7381 6.05797L12.2143 10.0966Z" fill="#137ABE"/>
<path d="M27.2333 26.0676L23.1619 21.57L18.6381 25.7005L22.7095 30.1981L27.2333 26.0676Z" fill="#137ABE"/>
<path d="M22.5286 33.5942L15.1095 25.2415L17.1905 23.4058L11.9429 17.5314L14.0238 15.6957L8.77619 9.82126L17.0095 2.38647L19.6333 5.23188L24.1571 1.28502L26.781 4.03865L28.5 2.47826C28.1381 2.29469 27.6857 2.01932 27.3238 1.83575C24.7 0.734299 21.8952 0 18.9095 0C8.50476 0 0 8.53623 0 19C0 29.4638 8.50476 38 19 38C22.4381 38 25.6048 37.0821 28.319 35.5217C29.2238 34.971 30.0381 34.4203 30.8524 33.8696L27.0524 29.5556L22.5286 33.5942Z" fill="#137ABE"/>
<path d="M20.5381 7.89372L23.5238 11.2899L26.9619 8.26087L23.8857 4.86473L20.5381 7.89372Z" fill="#137ABE"/>
<path d="M30.0381 15.0531L26.9619 11.657L23.6143 14.7778L26.6905 18.0821L30.0381 15.0531Z" fill="#137ABE"/>
<path d="M32.9333 22.2126L29.8571 18.8164L26.5095 21.8454L29.5857 25.3333L32.9333 22.2126Z" fill="#137ABE"/>
<path d="M33.1143 11.0145L30.8524 13.0338L32.9333 15.3285L35.1048 13.3092L33.1143 11.0145Z" fill="#137ABE"/>
<path d="M33.7476 19.7343L35.7381 22.029L38 20.0097L35.919 17.715L33.7476 19.7343Z" fill="#137ABE"/>
<path d="M27.9571 6.33333L30.0381 8.62802L32.2095 6.6087L30.219 4.31401L27.9571 6.33333Z" fill="#137ABE"/>
<path d="M29.4952 28.7295L32.5714 32.1256L35.919 29.0966L32.8429 25.7005L29.4952 28.7295Z" fill="#137ABE"/>
</svg>
