<svg width="40" height="40" viewBox="0 0 40 40" fill="none" xmlns="http://www.w3.org/2000/svg">
<circle cx="20" cy="20" r="20" fill="#1E2127"/>
<path fill-rule="evenodd" clip-rule="evenodd" d="M17.3749 17.2827C17.5999 15.8414 20.8999 10.9103 21.2749 10.7586C21.6499 10.6069 23.9749 11.062 23.8999 11.6689C20.9749 14.931 19.2499 18.5724 18.7249 20.4689C18.4249 21.3034 18.7249 24.7931 18.7999 25.8551C18.8749 26.3862 15.9499 26.462 15.5749 26.0827C15.5749 24.0345 15.8749 21.9103 15.5749 20.3172C15.4249 19.4069 12.4999 13.7172 11.1499 12.3517C10.2499 11.5172 13.8499 10.531 14.1499 11.062C15.0499 12.6551 16.4749 16.0689 17.0749 17.3586C17.1499 17.5862 17.3749 17.4345 17.3749 17.2827Z" fill="#FFDB59"/>
<path d="M21.7858 31.2136L21.9651 31.0323L21.9236 30.7808C21.8585 30.3853 21.7881 29.9159 21.7172 27.3619C26.0105 26.7874 28.9058 24.0524 29.3673 21.2618C29.6096 19.7968 29.1673 18.3407 27.9232 17.268C26.6962 16.2101 24.743 15.569 22.0303 15.569H22.0168C20.7154 15.569 19.6766 15.569 18.9541 15.5978C18.5942 15.6122 18.2916 15.6344 18.0669 15.6718C17.9571 15.6901 17.8396 15.716 17.7355 15.7586C17.664 15.7878 17.4392 15.8857 17.3554 16.1401L17.3553 16.14L17.3519 16.151C17.1601 16.7815 17.2611 17.4332 17.4705 17.9459C17.5764 18.2052 17.7154 18.4431 17.8749 18.6391C17.9562 18.7391 18.049 18.8355 18.152 18.919C18.1245 21.2037 18.0972 23.2046 18.0736 24.9245C18.034 27.8242 18.0053 29.9253 18.0053 31.2414V31.5488L18.2796 31.6876C18.5025 31.8003 18.8052 31.8931 19.2553 31.8931C20.3762 31.8931 21.2514 31.7542 21.7858 31.2136ZM21.752 20.681C21.7717 19.9163 21.7957 19.3063 21.8194 18.9273C23.0663 18.755 23.9861 18.9494 24.5938 19.3005C25.2523 19.681 25.572 20.2564 25.5899 20.8538C25.6231 21.964 24.5498 23.5074 21.7063 23.9272C21.7106 22.7581 21.7278 21.6173 21.752 20.681Z" fill="#7F86E8" stroke="#1E2127"/>
</svg>
