<svg width="100" height="115" viewBox="0 0 100 115" fill="none" xmlns="http://www.w3.org/2000/svg">
<path fill-rule="evenodd" clip-rule="evenodd" d="M90.9188 0H9.08123C2.448 0 0 2.42605 0 9.00284V88.3621C0 89.1063 0.0302847 89.7976 0.0966251 90.4381C0.247642 91.8737 0.276075 93.2648 1.62328 94.8486C1.75493 95.0038 3.13036 96.0181 3.13036 96.0181C3.8702 96.3777 4.37538 96.6425 5.20978 96.9753L45.5077 113.707C47.5997 114.658 48.4745 115.028 49.9939 114.998V114.999C49.996 114.999 49.9978 114.999 49.9999 114.999C50.002 114.999 50.0038 114.999 50.0059 114.999V114.998C51.5253 115.028 52.4001 114.658 54.4923 113.707L94.79 96.9753C95.6246 96.6425 96.1296 96.3777 96.8696 96.0181C96.8696 96.0181 98.2451 95.0038 98.3765 94.8486C99.7237 93.2648 99.7522 91.8737 99.9032 90.4381C99.9695 89.7976 100 89.1063 100 88.3621V9.00284C100 2.42605 97.5518 0 90.9188 0Z" fill="#2F2D2E"/>
<path d="M85.4373 79.7853L85.4188 79.9684L85.4004 80.1695L85.3633 80.3527L85.3081 80.5356L85.2723 80.7004L85.2166 80.8835L85.1429 81.0483L85.0689 81.1949L84.9962 81.3595L84.9039 81.5059L84.8116 81.6525L84.7018 81.7989L84.6093 81.9453L84.4997 82.0733L84.3703 82.2015L84.2605 82.3114L84.113 82.4396L83.9846 82.5494L83.8369 82.6593L83.6902 82.7495L83.5435 82.8594L83.3773 82.9509L83.212 83.0242L83.047 83.1156L82.8622 83.1889L82.6786 83.2622L82.495 83.3169L82.3115 83.3721L82.1452 83.4268L81.9616 83.4635L81.7964 83.5001L81.6314 83.5366L81.4466 83.5734L81.2628 83.5916L81.0978 83.6099L80.913 83.6283L80.7111 83.6467L80.5273 83.6649H80.3437H80.1416H79.9385H79.7549L79.5711 83.6467H79.3692L79.1854 83.6283L79.0008 83.6099L78.7987 83.5916L78.6152 83.555L78.4316 83.5366L78.2468 83.5001L78.063 83.4635L77.8794 83.4268L77.6959 83.3902L77.5113 83.3355L77.346 83.2988L77.1625 83.2439L76.9787 83.1889L76.8126 83.1156L76.6291 83.0607L76.4638 83.006L76.2801 82.9327L76.114 82.8594L75.9488 82.7861L75.7835 82.6958L75.6175 82.6225L75.4522 82.5309L75.3056 82.4396L75.1393 82.3479L74.9926 82.2564L74.8449 82.165L74.6982 82.0551L74.5515 81.9453L74.4038 81.8354L74.2569 81.7256L74.1277 81.6157L73.981 81.4877L74.0919 81.3413L74.22 81.2131L74.3308 81.0665L74.4592 80.9201L74.57 80.7921L74.6796 80.6457L74.809 80.4991L74.9186 80.3711L75.048 80.2247L75.1578 80.0964L75.287 79.95L75.3968 79.8034L75.5077 79.6754L75.6358 79.529L75.7467 79.3824L75.8748 79.2544L75.9856 79.108L76.1323 79.2179L76.2976 79.3277L76.4453 79.4376L76.6105 79.5474L76.7582 79.6389L76.9235 79.7485L77.07 79.8402L77.2364 79.9133L77.3829 80.005L77.5482 80.0783L77.7144 80.1514L77.8794 80.2247L78.0449 80.2796L78.2109 80.3527L78.3945 80.4076L78.5783 80.4625L78.7433 80.5175L78.9281 80.5542L79.1117 80.5908L79.2952 80.6273L79.4974 80.6457L79.682 80.6822H79.8657L80.0676 80.7004H80.2514H80.4719L80.674 80.6822L80.8588 80.6457L81.0238 80.6089L81.189 80.5724L81.3368 80.5175L81.4651 80.4444L81.6128 80.3345L81.7224 80.2063L81.7964 80.0597L81.852 79.8951L81.8702 79.712V79.6754L81.852 79.4557L81.7781 79.2726L81.6856 79.1446L81.5574 79.0347L81.4095 78.9249L81.2628 78.8518L81.0978 78.7785L80.913 78.7052L80.6925 78.6139L80.5642 78.5771L80.4177 78.5406L80.2514 78.4855L80.0862 78.4489L79.9026 78.394L79.7178 78.3575L79.5159 78.3025L79.3321 78.266L79.13 78.2111L78.9464 78.1745L78.7616 78.1196L78.5783 78.0828L78.3945 78.0279L78.2282 77.9732L78.0449 77.9364L77.8794 77.8815L77.7144 77.8266L77.5482 77.7717L77.346 77.6984L77.1625 77.6251L76.9787 77.552L76.7941 77.4787L76.6291 77.3872L76.4453 77.2957L76.2976 77.2043L76.1323 77.1128L75.9856 77.0029L75.8379 76.9115L75.7098 76.8014L75.5806 76.6734L75.4522 76.5452L75.3414 76.4169L75.2318 76.2889L75.1393 76.1609L75.048 76.0143L74.9557 75.8497L74.8818 75.7227L74.8263 75.5761L74.7722 75.4114L74.7167 75.265L74.6796 75.0818L74.6428 74.917L74.6242 74.7341L74.6059 74.551L74.5873 74.3498V74.1483V74.1118V73.9286L74.6059 73.7457L74.6242 73.5809L74.6428 73.3978L74.6796 73.2332L74.7167 73.0684L74.7722 72.9034L74.809 72.7389L74.8818 72.5741L74.9557 72.4093L75.0295 72.2448L75.121 72.0798L75.213 71.9152L75.3229 71.7686L75.4339 71.6222L75.5621 71.4758L75.6912 71.3478L75.8196 71.2012L75.9673 71.073L76.0955 70.9815L76.2432 70.8717L76.3901 70.7618L76.5366 70.6703L76.7028 70.5789L76.8681 70.5056L77.0331 70.4141L77.1993 70.341L77.3829 70.2859L77.5665 70.2128L77.7327 70.1578L77.8794 70.1211L78.0449 70.0845L78.2109 70.048L78.3945 70.0115L78.5597 69.9747L78.7433 69.9565L78.9281 69.9382L79.1117 69.9198L79.2952 69.9016H79.4788H79.682H79.8843H80.0862L80.2883 69.9198L80.4904 69.9382H80.674L80.8771 69.9565L81.0607 69.9931L81.2628 70.0115L81.4466 70.048L81.6128 70.0845L81.7964 70.1211L81.98 70.1578L82.1452 70.1944L82.3298 70.2493L82.495 70.3042L82.6603 70.341L82.8449 70.4141L83.0101 70.469L83.1751 70.5421L83.3404 70.6154L83.525 70.6887L83.6902 70.7802L83.8369 70.8535L84.0032 70.945L84.1684 71.0364L84.3151 71.1281L84.4811 71.238L84.628 71.3292L84.7758 71.4393L84.9224 71.5491L85.0689 71.6588L84.9593 71.8054L84.867 71.9518L84.7572 72.0982L84.6464 72.2448L84.5368 72.4093L84.4443 72.5557L84.3334 72.7023L84.2236 72.8487L84.1315 72.9951L84.0215 73.1417L83.9109 73.2881L83.8184 73.4345L83.7087 73.5993L83.5977 73.7457L83.4881 73.8921L83.3958 74.0385L83.286 74.1849L83.1383 74.0752L82.9732 73.9835L82.8263 73.8921L82.6786 73.7822L82.5136 73.7091L82.3657 73.6174L82.2006 73.5441L82.0539 73.4711L81.8877 73.3978L81.741 73.3247L81.576 73.2697L81.4282 73.1964L81.2259 73.1417L81.0424 73.0866L80.8588 73.0319L80.674 72.9951L80.4904 72.9586L80.3068 72.9218L80.1233 72.9034L79.9385 72.8853L79.7734 72.8669H79.5897H79.3692L79.1671 72.9034L78.9823 72.9402L78.8173 72.9767L78.6706 73.05L78.5412 73.1231L78.376 73.2697L78.2651 73.4345L78.1926 73.5993L78.1739 73.7822V73.819L78.1926 74.0568L78.2837 74.2582L78.3576 74.368L78.4858 74.4962L78.652 74.5877L78.7987 74.6792L78.9823 74.7525L79.1854 74.8258L79.4061 74.8989L79.5528 74.9354L79.6995 74.9903L79.8657 75.0269L80.0308 75.0818L80.2143 75.1186L80.4177 75.1735L80.6198 75.2282L80.8219 75.2833L81.0238 75.3199L81.2074 75.3748L81.4095 75.4297L81.5943 75.4663L81.7781 75.5212L81.9616 75.5761L82.1267 75.6311L82.3115 75.686L82.4767 75.7409L82.6417 75.7958L82.8449 75.8679L83.0285 75.9596L83.212 76.0327L83.3958 76.1241L83.5621 76.2158L83.7273 76.3073L83.8738 76.3988L84.0215 76.5086L84.1684 76.6001L84.3151 76.7283L84.4628 76.8563L84.591 77.0029L84.7201 77.131L84.8299 77.2776L84.9408 77.4421L85.0321 77.5885L85.1246 77.7535L85.1983 77.8999L85.2537 78.0645L85.3081 78.2292L85.345 78.394L85.3819 78.5771L85.4188 78.7603L85.4373 78.9432L85.4558 79.1446V79.3459V79.3824V79.584L85.4373 79.7853ZM72.5413 83.4454H72.3567H72.1731H71.9896H71.806H71.6212H71.4374H71.254H71.0703H70.8671H70.6836H70.5H70.3164H70.1314H69.948H69.7643H69.5807H69.3959H69.2123H69.0288H68.8452H68.6614H68.4768H68.2932H68.1097H67.9259H67.7411H67.5575H67.374H67.1718H66.9872H66.8035H66.6199H66.4363H66.2517H66.068H65.8844H65.7006H65.516H65.3324H65.1489H64.9651H64.7803H64.5969H64.4132H64.2296H64.045H63.8612H63.6591H63.4755H63.292H63.1072H62.9236H62.7398H62.5564H62.3718H62.1881H62.0045V83.2622V83.0791V82.8961V82.714V82.5309V82.3479V82.165V81.982V81.7989V81.6157V81.4328V81.2496V81.0665V80.8835V80.7004V80.5175V80.3345V80.1514V79.9866V79.8034V79.6205V79.4376V79.2544V79.0713V78.8883V78.7052V78.522V78.3391V78.1561V77.9732V77.79V77.6069V77.4239V77.2408V77.0577V76.8747V76.6916V76.5086V76.3257V76.1425V75.9596V75.7775V75.5945V75.4114V75.2282V75.0453V74.8623V74.6792V74.4962V74.3131V74.1299V73.947V73.7638V73.5809V73.4161V73.2332V73.05V72.8669V72.6839V72.5008V72.3179V72.1347V71.9518V71.7686V71.5857V71.4025V71.2194V71.0364V70.8535V70.6703V70.4874V70.3042V70.1211H62.1881H62.3718H62.5564H62.7398H62.9236H63.1072H63.292H63.4755H63.6591H63.8429H64.0275H64.2113H64.3946H64.5784H64.7444H64.9282H65.1118H65.2956H65.4802H65.6637H65.8473H66.0311H66.2157H66.3992H66.5828H66.7666H66.9514H67.135H67.3185H67.5021H67.6869H67.8707H68.0541H68.2376H68.4214H68.6062H68.7898H68.9733H69.1569H69.3417H69.5253H69.7089H69.8924H70.0589H70.2425H70.426H70.6098H70.7944H70.978H71.1615H71.3451H71.5299H71.7135H71.8971H72.0808H72.2654H72.4492H72.6328V70.3042V70.469V70.652V70.8351V71.0181V71.1828V71.366V71.5491V71.7137V71.8968V72.0798V72.2448V72.4277V72.6106V72.7938V72.9586V73.1417H72.4492H72.2654H72.0808H71.8971H71.7135H71.5299H71.3637H71.1801H70.9965H70.8127H70.6281H70.4446H70.2608H70.0772H69.8924H69.7089H69.5253H69.3417H69.1569H68.9919H68.8081H68.6245H68.4397H68.2564H68.0726H67.889H67.7042H67.5206H67.3371H67.1535H66.9687H66.7849H66.6199H66.4363H66.2517H66.068H65.8844H65.7006H65.516V73.3247V73.5076V73.6905V73.8737V74.0568V74.2216V74.4046V74.5877V74.7706V74.9538V75.1367V75.3199H65.7006H65.8844H66.068H66.2517H66.4363H66.6199H66.8035H66.9872H67.1535H67.3371H67.5206H67.7042H67.889H68.0726H68.2564H68.4397H68.6245H68.8081H68.9919H69.1754H69.3601H69.5436H69.7274H69.9112H70.0958H70.2793H70.4446H70.6281H70.8127H70.9965H71.1801H71.3637H71.5483H71.732H71.9156V75.5028V75.6676V75.8497V76.0327V76.1974V76.3804V76.5635V76.7283V76.9115V77.0944V77.2776V77.4421V77.6251V77.8082V77.9732V78.1561H71.732H71.5483H71.3637H71.1801H70.9965H70.8127H70.6281H70.4446H70.2793H70.0958H69.9112H69.7274H69.5436H69.3601H69.1754H68.9919H68.8081H68.6245H68.4397H68.2564H68.0726H67.889H67.7042H67.5206H67.3371H67.1535H66.9872H66.8035H66.6199H66.4363H66.2517H66.068H65.8844H65.7006H65.516V78.3391V78.5406V78.7235V78.9067V79.108V79.2912V79.4741V79.6754V79.8584V80.0415V80.2428V80.4258H65.7006H65.8844H66.068H66.2517H66.4363H66.6199H66.8035H66.9872H67.1718H67.374H67.5575H67.7411H67.9259H68.1097H68.2932H68.4768H68.6614H68.8452H69.0288H69.2123H69.3959H69.5807H69.7643H69.948H70.1314H70.3164H70.5H70.6836H70.8671H71.0703H71.254H71.4374H71.6212H71.806H71.9896H72.1731H72.3567H72.5413H72.7251V80.6089V80.7737V80.9568V81.1398V81.3229V81.4877V81.6707V81.8536V82.0186V82.2015V82.3845V82.5494V82.7314V82.9143V83.0973V83.2622V83.4454H72.5413ZM59.1055 83.4454H58.9219H58.7382H58.5352H58.3517H58.1679H57.9843H57.7995H57.6159H57.4138H57.2303H57.0465H56.8619H56.6783H56.4947H56.2926H56.1078H55.9243H55.7405V83.2622V83.0791V82.8961V82.713V82.5288V82.3459V82.1627V81.9796V81.7966V81.6137V81.4305V81.2466V81.0634V80.8803V80.6973V80.5142V80.33V80.1469V79.9639V79.781V79.5978V79.4149V79.2307V79.0478V78.8646V78.6815V78.4985V78.3154V78.1312V77.9481V77.7651V77.5822V77.3992V77.2161V77.0319V76.849V76.6658V76.4829V76.2997V76.1156V75.9326V75.7495V75.5663L55.6484 75.7127L55.5386 75.8787L55.4461 76.0251L55.3365 76.1717L55.2442 76.3363L55.1331 76.4829L55.0421 76.6293L54.9496 76.7951L54.8399 76.9415L54.7474 77.0879L54.6368 77.2345L54.5455 77.4003L54.4347 77.5467L54.3434 77.6931L54.2509 77.8578L54.1401 78.0052L54.0488 78.1518L53.938 78.3164L53.8469 78.463L53.7361 78.6094L53.6448 78.7752L53.5523 78.9218L53.4416 79.0682L53.3504 79.233L53.2395 79.3804L53.1483 79.5268L53.0374 79.6734L52.9449 79.838L52.8536 79.9854L52.743 80.132L52.6517 80.2967L52.5409 80.4431L52.4486 80.5895L52.3388 80.7555L52.2465 80.9019H52.1736L52.0629 80.7372L51.9704 80.5895L51.8606 80.4248L51.7683 80.2784L51.6585 80.1138L51.5662 79.9662L51.4566 79.8014L51.3641 79.6548L51.2532 79.4902L51.162 79.3438L51.0511 79.1778L50.9601 79.0314L50.8492 78.8667L50.7567 78.7203L50.6471 78.5545L50.5546 78.4081L50.445 78.2433L50.3341 78.0969L50.2418 77.9311L50.132 77.7847L50.0397 77.62L49.9299 77.4736L49.8376 77.3076L49.7278 77.1612L49.6355 76.9964L49.5247 76.85L49.4334 76.6852L49.3226 76.5376L49.2313 76.373L49.1204 76.2264L49.0281 76.0617L48.9185 75.9155L48.8258 75.7495L48.7162 75.6031V75.786V75.9692V76.1523V76.3363V76.5194V76.7024V76.8855V77.0687V77.2526V77.4358V77.6006V77.7835V77.9667V78.1496V78.3338V78.5169V78.6999V78.8828V79.066V79.2491V79.4331V79.6162V79.7994V79.9823V80.1655V80.3484V80.5326V80.7155V80.8987V81.0816V81.2647V81.4487V81.6137V81.7966V81.9796V82.1627V82.3459V82.5288V82.713V82.8961V83.0791V83.2622V83.4454H48.5327H48.3481H48.1643H47.9807H47.7971H47.6125H47.4288H47.2452H47.0614H46.8768H46.6933H46.5095H46.3259H46.1413H45.9577H45.774H45.5902H45.4056H45.222V83.2622V83.0791V82.8961V82.714V82.5309V82.3479V82.165V81.982V81.7989V81.6157V81.4328V81.2496V81.0665V80.8835V80.7004V80.5175V80.3345V80.1514V79.9866V79.8034V79.6205V79.4376V79.2544V79.0713V78.8883V78.7052V78.522V78.3391V78.1561V77.9732V77.79V77.6069V77.4239V77.2408V77.0577V76.8747V76.6916V76.5086V76.3257V76.1425V75.9596V75.7775V75.5945V75.4114V75.2282V75.0453V74.8623V74.6792V74.4962V74.3131V74.1299V73.947V73.7638V73.5809V73.4161V73.2332V73.05V72.8669V72.6839V72.5008V72.3179V72.1347V71.9518V71.7686V71.5857V71.4025V71.2194V71.0364V70.8535V70.6703V70.4874V70.3042V70.1211H45.4056H45.5902H45.7556H45.939H46.1228H46.3074H46.4726H46.6562H46.841H47.0245H47.1898H47.3733H47.5582H47.7417H47.9067H48.0903H48.2751H48.4589H48.6239H48.8075H48.9923L49.0836 70.2677L49.1759 70.4323L49.2855 70.5776L49.378 70.7424L49.4703 70.8888L49.5616 71.0538L49.6539 71.199L49.7639 71.3639L49.856 71.5103L49.9485 71.6567L50.0397 71.8203L50.132 71.9669L50.2418 72.1314L50.3341 72.278L50.4264 72.4416L50.5177 72.588L50.6286 72.7344L50.7211 72.8983L50.8121 73.0445L50.9044 73.2093L50.9959 73.3559L51.1067 73.5194L51.199 73.666L51.2901 73.8306L51.3826 73.976L51.4739 74.1224L51.5847 74.2872L51.677 74.4338L51.7683 74.5985L51.8606 74.7439L51.9519 74.9087L52.0629 75.0551L52.1552 75.2186L52.2465 75.3652L52.3388 75.2186L52.4311 75.0551L52.5409 74.9087L52.633 74.7439L52.7245 74.5985L52.8168 74.4338L52.9266 74.2872L53.0189 74.1224L53.1114 73.976L53.2024 73.8306L53.3133 73.666L53.4046 73.5194L53.4971 73.3559L53.5892 73.2093L53.699 73.0445L53.7913 72.8983L53.8838 72.7344L53.9748 72.588L54.0676 72.4416L54.1772 72.278L54.2695 72.1314L54.3618 71.9669L54.4532 71.8203L54.5639 71.6567L54.6553 71.5103L54.7474 71.3639L54.8399 71.199L54.9496 71.0538L55.0421 70.8888L55.1331 70.7424L55.2256 70.5776L55.3365 70.4323L55.4277 70.2677L55.52 70.1211H55.7036H55.8874H56.0534H56.2372H56.4208H56.6044H56.7706H56.9544H57.1378H57.3215H57.4878H57.6714H57.8549H58.0387H58.2048H58.3885H58.5721H58.7557H58.9219H59.1055H59.2891V70.3042V70.4874V70.6703V70.8535V71.0364V71.2194V71.4025V71.5857V71.7686V71.9518V72.1347V72.3179V72.5008V72.6839V72.8669V73.05V73.2332V73.4161V73.5809V73.7638V73.947V74.1299V74.3131V74.4962V74.6792V74.8623V75.0453V75.2282V75.4114V75.5945V75.7775V75.9596V76.1425V76.3257V76.5086V76.6916V76.8747V77.0577V77.2408V77.4239V77.6069V77.79V77.9732V78.1561V78.3391V78.522V78.7052V78.8883V79.0713V79.2544V79.4376V79.6205V79.8034V79.9866V80.1514V80.3345V80.5175V80.7004V80.8835V81.0665V81.2496V81.4328V81.6157V81.7989V81.982V82.165V82.3479V82.5309V82.714V82.8961V83.0791V83.2622V83.4454H59.1055ZM37.7696 77.9548L37.7142 77.789L37.6415 77.6059L37.5675 77.4411L37.5121 77.2753L37.4394 77.1105L37.3656 76.9274L37.31 76.7616L37.236 76.5968L37.1635 76.4323L37.1079 76.2665L37.0339 76.0833L36.9797 75.9185L36.9058 75.7527L36.8318 75.588L36.7766 75.4232L36.7037 75.2392L36.6299 75.0743L36.5745 74.9097L36.5005 74.7439L36.4278 74.5608L36.3724 74.395L36.2984 74.2302L36.2257 74.395L36.1705 74.5608L36.0965 74.7439L36.0225 74.9097L35.9681 75.0743L35.8944 75.2392L35.8204 75.4232L35.7477 75.588L35.6921 75.7527L35.6183 75.9185L35.5444 76.0833L35.49 76.2665L35.4162 76.4323L35.3422 76.5968L35.287 76.7616L35.2141 76.9274L35.1401 77.1105L35.0664 77.2753L35.0122 77.4411L34.9382 77.6059L34.8643 77.789L34.8088 77.9548L34.7361 78.1196H34.9197H35.1032H35.287H35.4716H35.6552H35.8388H36.0225H36.2073H36.3724H36.5559H36.7407H36.9243H37.1079H37.2917H37.4752H37.6598H37.8434L37.7696 77.9548ZM43.5446 83.4454H43.36H43.1945H43.0112H42.8263H42.6428H42.459H42.294H42.1092H41.9256H41.742H41.5583H41.3737H41.2084H41.0249H40.8411H40.6565H40.4729H40.3077H40.1241H39.9395L39.8666 83.2804L39.8112 83.1156L39.7374 82.9509L39.6634 82.7679L39.609 82.6042L39.5353 82.4396L39.4613 82.2748L39.4069 82.11L39.3332 81.9453L39.2592 81.7805L39.204 81.6157L39.1311 81.4328L39.0571 81.268L39.0017 81.1032L38.9277 80.9385H38.7441H38.5606H38.377H38.1934H38.0272H37.8434H37.6598H37.4752H37.2917H37.1079H36.9243H36.7407H36.5559H36.3724H36.2073H36.0225H35.8388H35.6552H35.4716H35.287H35.1032H34.9197H34.7361H34.5525H34.3861H34.2027H34.0189H33.8341H33.6506L33.5778 81.1032L33.5224 81.268L33.4484 81.4328L33.3747 81.6157L33.3203 81.7805L33.2465 81.9453L33.1726 82.11L33.1172 82.2748L33.0444 82.4396L32.9705 82.6042L32.915 82.7679L32.8421 82.9509L32.7684 83.1156L32.7129 83.2804L32.639 83.4454H32.4554H32.2718H32.0883H31.9035H31.7199H31.5178H31.3342H31.1504H30.9658H30.7823H30.5987H30.4149H30.2301H30.0468H29.8632H29.6611H29.4763H29.2927H29.1089H28.9253L28.9981 83.2804L29.072 83.1156L29.1458 82.9509L29.2187 82.7679L29.2742 82.6042L29.3481 82.4396L29.4219 82.2748L29.4946 82.11L29.5686 81.9453L29.6425 81.7621L29.7153 81.5974L29.7892 81.4328L29.8444 81.268L29.9184 81.1032L29.9911 80.9385L30.0651 80.7555L30.1388 80.5908L30.2118 80.4258L30.2857 80.2612L30.3595 80.0964L30.4149 79.9317L30.4876 79.7485L30.5616 79.584L30.6356 79.4192L30.7083 79.2544L30.7823 79.0896L30.8562 78.9249L30.929 78.7417L30.9844 78.5771L31.0583 78.4124L31.1321 78.2476L31.205 78.0828L31.2788 77.9181L31.3525 77.7351L31.4255 77.5703L31.4992 77.4056L31.5547 77.2408L31.6286 77.0762L31.7013 76.9115L31.7753 76.7283L31.8493 76.5635L31.922 76.3988L31.9958 76.234L32.0697 76.0694L32.1251 75.9045L32.1981 75.7409L32.2718 75.5578L32.3456 75.3932L32.4185 75.2282L32.4923 75.0634L32.5662 74.8989L32.639 74.7341L32.6944 74.551L32.7684 74.3864L32.8421 74.2216L32.915 74.0568L32.989 73.8921L33.0628 73.7273L33.1357 73.5441L33.2095 73.3796L33.2649 73.2148L33.3386 73.05L33.4116 72.8853L33.4853 72.7205L33.5593 72.5375L33.632 72.3728L33.706 72.208L33.7799 72.0432L33.8341 71.8787L33.9081 71.7137L33.9821 71.5307L34.056 71.366L34.1287 71.2012L34.2027 71.0364L34.2765 70.8717L34.3492 70.7071L34.4048 70.5239L34.4786 70.3592L34.5525 70.1944L34.6253 70.0296H34.8088H34.9751H35.1587H35.3422H35.527H35.6921H35.8756H36.0594H36.2442H36.4095H36.5928H36.7766H36.9612H37.1264H37.31H37.4936H37.6784H37.8434H38.0272L38.1009 70.1944L38.1749 70.3592L38.2478 70.5239L38.3216 70.7071L38.377 70.8717L38.4497 71.0364L38.5237 71.2012L38.5975 71.366L38.6714 71.5307L38.7441 71.7137L38.8181 71.8787L38.8921 72.0432L38.9463 72.208L39.0202 72.3728L39.0942 72.5375L39.1681 72.7205L39.2409 72.8853L39.3146 73.05L39.3886 73.2148L39.4613 73.3796L39.5167 73.5441L39.5905 73.7273L39.6634 73.8921L39.7374 74.0568L39.8112 74.2216L39.8851 74.3864L39.9578 74.551L40.0316 74.7341L40.0872 74.8989L40.16 75.0634L40.2337 75.2282L40.3077 75.3932L40.3816 75.5578L40.4544 75.7409L40.5283 75.9045L40.6021 76.0694L40.6565 76.234L40.7302 76.3988L40.8042 76.5635L40.8771 76.7283L40.9509 76.9115L41.0249 77.0762L41.0988 77.2408L41.1715 77.4056L41.227 77.5703L41.3007 77.7351L41.3737 77.9181L41.4474 78.0828L41.5214 78.2476L41.5951 78.4124L41.6681 78.5771L41.742 78.7417L41.7972 78.9249L41.8702 79.0896L41.9439 79.2544L42.0179 79.4192L42.0906 79.584L42.1646 79.7485L42.2386 79.9317L42.3125 80.0964L42.3667 80.2612L42.4407 80.4258L42.5146 80.5908L42.5874 80.7555L42.6611 80.9385L42.7351 81.1032L42.8088 81.268L42.8816 81.4328L42.9372 81.5974L43.0112 81.7621L43.0839 81.9453L43.1576 82.11L43.2314 82.2748L43.3043 82.4396L43.3781 82.6042L43.4521 82.7679L43.5077 82.9509L43.5802 83.1156L43.6542 83.2804L43.7279 83.4454H43.5446ZM27.4347 81.7438L27.287 81.8536L27.1587 81.9453L27.011 82.0551L26.8643 82.1466L26.7176 82.2564L26.5699 82.3479L26.4232 82.4396L26.2569 82.5309L26.0917 82.6225L25.9264 82.714L25.7604 82.7861L25.5951 82.8778L25.4116 82.9509L25.2465 83.0242L25.0617 83.0973L24.8967 83.1706L24.7313 83.2255L24.5652 83.2804L24.4 83.3355L24.2164 83.3902L24.0514 83.4454L23.8666 83.4819L23.7013 83.5185L23.5178 83.555L23.3332 83.5916L23.1494 83.6099L22.9473 83.6283L22.7637 83.6467L22.5616 83.6649L22.3768 83.6832L22.1749 83.7014H21.9728H21.7705H21.5686H21.3838L21.2002 83.6832L20.9981 83.6649L20.8145 83.6467L20.6309 83.6283L20.4461 83.6099L20.2626 83.5734L20.0788 83.5366L19.9138 83.5001L19.7292 83.4635L19.5639 83.4086L19.3804 83.3721L19.2141 83.3169L19.0489 83.2439L18.8836 83.1889L18.7003 83.1156L18.534 83.0425L18.3688 82.9694L18.2037 82.8961L18.0373 82.8047L17.8908 82.714L17.7256 82.6225L17.5778 82.5309L17.4311 82.4396L17.2834 82.3295L17.1367 82.2199L16.9898 82.11L16.8607 82.0002L16.7325 81.8904L16.6031 81.7621L16.475 81.6525L16.3456 81.5243L16.2174 81.396L16.1066 81.268L15.9968 81.1216L15.886 80.9934L15.7937 80.847L15.6838 80.7004L15.5917 80.5542L15.5003 80.4076L15.408 80.2428L15.3157 80.0964L15.2429 79.9317L15.169 79.7669L15.0952 79.6021L15.0223 79.4376L14.9669 79.2912L14.8929 79.1262L14.856 78.9614L14.8016 78.7968L14.7648 78.6139L14.7093 78.4489L14.6725 78.266L14.6539 78.1012L14.6168 77.9181L14.5987 77.7535L14.5799 77.5703L14.5626 77.3872L14.5443 77.2043V77.0029V76.8198V76.7832V76.6001L14.5626 76.3988V76.2158L14.5799 76.0327L14.5987 75.8314L14.6356 75.6494L14.6539 75.4663L14.6908 75.3015L14.7462 75.1186L14.7833 74.9354L14.8375 74.7706L14.8929 74.5877L14.9483 74.4229L15.0223 74.2398L15.0952 74.0752L15.169 73.9104L15.2429 73.7457L15.3157 73.5809L15.408 73.4161L15.5003 73.2697L15.5917 73.1231L15.6838 72.9767L15.7763 72.8303L15.886 72.6839L15.9968 72.5375L16.1066 72.3912L16.2174 72.2627L16.3456 72.1347L16.4564 72.0065L16.5848 71.8787L16.714 71.7502L16.8421 71.6406L16.9898 71.5124L17.1182 71.4025L17.2649 71.2927L17.4126 71.2012L17.5593 71.0914L17.7072 70.9999L17.8537 70.9084L18.0189 70.8167L18.1852 70.7253L18.3502 70.6338L18.5155 70.5605L18.6815 70.4874L18.8653 70.3957L19.012 70.341L19.1956 70.2859L19.362 70.2128L19.5271 70.176L19.6921 70.1211L19.8767 70.0845L20.0419 70.0296L20.2255 69.9931L20.4093 69.9747L20.5939 69.9382L20.7776 69.9198L20.961 69.9016L21.1448 69.8832L21.3296 69.8649H21.5317H21.7153H21.9172H22.1193L22.3226 69.8832L22.5247 69.9016H22.7083L22.8919 69.9198L23.094 69.9565L23.2602 69.9747L23.4438 70.0115L23.6276 70.048L23.7936 70.0845L23.9587 70.1211L24.1241 70.1578L24.2904 70.2128L24.4554 70.2493L24.6021 70.3042L24.7684 70.3592L24.9336 70.4323L25.0986 70.5056L25.2649 70.5789L25.4301 70.6703L25.5951 70.7436L25.7431 70.8351L25.9081 70.9266L26.0548 71.0181L26.2211 71.1097L26.3677 71.2194L26.5144 71.311L26.6622 71.4209L26.8088 71.5307L26.9566 71.6588L27.1033 71.7686L26.9924 71.9152L26.8643 72.0432L26.7534 72.1896L26.6253 72.336L26.5144 72.4826L26.4046 72.6106L26.2752 72.757L26.1656 72.9034L26.0548 73.0319L25.9264 73.1783L25.8158 73.3247L25.6874 73.4711L25.5766 73.5993L25.467 73.7457L25.3378 73.8921L25.2278 74.0385L25.0986 74.1667L24.9888 74.3131L24.8411 74.2032L24.6944 74.0752L24.5467 73.9835L24.4 73.8737L24.2533 73.7822L24.1056 73.6905L23.9587 73.5993L23.7936 73.5076L23.6459 73.4345L23.4992 73.3612L23.3515 73.3063L23.1863 73.2514L23.0213 73.1964L22.855 73.1599L22.6714 73.1231L22.4879 73.0866L22.3041 73.0684L22.102 73.05L21.8988 73.0319H21.6967H21.5131L21.3296 73.05L21.1633 73.0684L20.9797 73.105L20.8145 73.1417L20.6482 73.1964L20.4832 73.2514L20.318 73.3247L20.1528 73.3978L20.005 73.4892L19.8585 73.5809L19.7106 73.6726L19.5825 73.7822L19.4531 73.8921L19.3249 74.0019L19.2141 74.1299L19.0859 74.2582L18.9751 74.4046L18.8836 74.5328L18.7913 74.6792L18.7003 74.8439L18.6078 74.9903L18.534 75.1551L18.4786 75.3199L18.4056 75.4847L18.3502 75.6676L18.3133 75.8497L18.2765 76.0143L18.2394 76.2158L18.2211 76.3988L18.2037 76.5817V76.7832V76.8198V77.0029L18.2211 77.1859L18.2394 77.3506L18.2579 77.5338L18.2948 77.6984L18.3319 77.8633L18.3688 78.0279L18.4242 78.1927L18.4786 78.3391L18.5525 78.522L18.6263 78.687L18.7176 78.8518L18.8099 78.9982L18.9022 79.1446L19.012 79.2912L19.1228 79.4192L19.251 79.5474L19.362 79.6754L19.49 79.7853L19.6379 79.8951L19.7846 80.005L19.9311 80.0964L20.0788 80.1879L20.2442 80.2612L20.4093 80.3345L20.5753 80.4076L20.7591 80.4625L20.9427 80.5175L21.1275 80.5542L21.311 80.5908L21.4946 80.6089L21.6967 80.6273H21.8988H22.1193L22.3226 80.6089L22.5247 80.5908L22.7083 80.5724L22.8919 80.5356L23.0767 80.4991L23.2602 80.4444L23.4253 80.4076L23.5907 80.3345L23.7384 80.2612L23.9035 80.1879L24.0326 80.1148L24.1795 80.0231V79.8402V79.6573V79.4741V79.2912V79.0896V78.9067V78.7235V78.5406V78.3575H23.9958H23.8297H23.6459H23.4624H23.2788H23.1125H22.9288H22.7452H22.5616H22.3956H22.2118H22.0282H21.8444H21.6784H21.4946V78.1745V78.0097V77.8266V77.6436V77.4605V77.2957V77.1128V76.9296V76.7467V76.5817V76.3988V76.2158V76.0327V75.8679V75.686H21.6784H21.863H22.0468H22.2301H22.4139H22.5975H22.7823H22.9658H23.1494H23.3332H23.5178H23.7013H23.8849H24.0685H24.2533H24.4371H24.6206H24.8042H24.9888H25.1726H25.3562H25.5397H25.7243H25.9081H26.0917H26.2752H26.46H26.6436H26.8274H27.011H27.1956H27.3791H27.5629V75.8679V76.0508V76.234V76.3988V76.5817V76.7649V76.9478V77.131V77.3141V77.4787V77.6618V77.845V78.0279V78.2111V78.394V78.5771V78.7417V78.9249V79.108V79.2912V79.4741V79.6573V79.8402V80.005V80.1879V80.3711V80.5542V80.7372V80.9201V81.0851V81.268V81.451V81.6341L27.4347 81.7438Z" fill="white"/>
<path d="M21.5206 39.9735H29.4903V33.8641H21.5206V21.3917H29.8076V15.2822H14.7529V59.3748H29.9337V53.2651H21.5206V39.9735Z" fill="white"/>
<path d="M78.6054 41.2972V51.2497C78.6054 53.0136 77.7827 53.832 76.0758 53.832H74.81C73.0392 53.832 72.2165 53.0136 72.2165 51.2497V23.4076C72.2165 21.6439 73.0392 20.8255 74.81 20.8255H75.9487C77.6566 20.8255 78.4793 21.6439 78.4793 23.4076V32.038H85.1201V23.0296C85.1201 17.5501 82.4634 14.9043 76.9615 14.9043H73.6715C68.1693 14.9043 65.4485 17.6126 65.4485 23.0931V51.5642C65.4485 57.0449 68.1693 59.7529 73.6715 59.7529H77.0243C82.5277 59.7529 85.247 57.0449 85.247 51.5642V41.2972H78.6054Z" fill="white"/>
<path d="M55.103 59.375H61.8718V15.2823H55.103V59.375Z" fill="white"/>
<path d="M45.2819 34.8717C45.2819 36.6356 44.4605 37.455 42.7525 37.455H39.9689V21.2032H42.7525C44.4605 21.2032 45.2819 22.0218 45.2819 23.7853V34.8717ZM43.8272 15.282H33.2009V59.3748H39.9689V43.3749H43.8272C49.3303 43.3749 52.0499 40.6669 52.0499 35.1874V23.4708C52.0499 17.9903 49.3303 15.282 43.8272 15.282Z" fill="white"/>
<path fill-rule="evenodd" clip-rule="evenodd" d="M30.7193 99.2438H69.4634L49.6877 105.707L30.7193 99.2438Z" fill="white"/>
</svg>
