<svg width="100" height="134" viewBox="0 0 100 134" fill="none" xmlns="http://www.w3.org/2000/svg">
<path d="M49.8499 0.924741C50.1235 1.62662 49.6505 2.26882 49.2629 2.81157C46.5188 6.69037 44.3614 11.0278 43.5009 15.6909C43.1644 16.648 43.2387 17.361 43.5009 17.4406C48.8267 16.9745 54.8338 17.0281 60.077 18.1449C69.6173 20.0601 78.5336 24.8738 85.3868 31.7562C92.2201 38.5676 97.0159 47.3936 98.9564 56.8363C101.108 67.0604 99.9053 77.9437 95.6025 87.466C86.4782 106.911 71.0963 123.358 52.2749 133.784C51.6679 134.066 50.7931 134.077 50.3771 133.475C49.887 132.844 50.0893 131.946 50.5737 131.372C53.1127 127.84 54.8851 123.779 55.8483 119.545C56.0335 118.667 56.2871 117.777 56.2101 116.874C55.8995 116.47 55.3866 116.592 54.9506 116.607C45.8149 117.519 36.4142 115.891 28.159 111.867C19.3169 107.619 11.814 100.674 6.85287 92.2314C2.25652 84.4652 -0.159908 75.4204 0.00821629 66.3983C0.0395614 58.1178 2.30496 49.9056 6.29435 42.6566C15.5811 24.8767 30.1623 9.87297 47.7669 0.180239C48.5049 -0.228953 49.5963 0.075099 49.8499 0.924741ZM47.254 47.6948C41.8199 48.4223 36.8075 51.6049 33.7641 56.1401C31.7039 59.2545 30.4558 62.9543 30.4814 66.6995C30.3276 71.7178 32.3337 76.7446 35.8101 80.3591C38.8478 83.6213 43.068 85.7468 47.4933 86.3151C51.9985 86.909 56.7031 85.8576 60.5187 83.3883C64.3969 80.9331 67.3519 77.0572 68.6741 72.6669C71.1561 65.0457 68.1812 56.1173 61.707 51.4088C57.6406 48.3228 52.3091 46.9531 47.254 47.6948Z" fill="url(#paint0_linear_193_4423)"/>
<defs>
<linearGradient id="paint0_linear_193_4423" x1="50" y1="0" x2="50" y2="133.97" gradientUnits="userSpaceOnUse">
<stop stop-color="#FF9900"/>
<stop offset="1" stop-color="#F05A22"/>
</linearGradient>
</defs>
</svg>
