<svg width="100" height="100" viewBox="0 0 100 100" fill="none" xmlns="http://www.w3.org/2000/svg">
<g clip-path="url(#clip0_193_4433)">
<path d="M2.0992 64.382C8.27646 84.9871 27.385 100 50.0005 100C77.6142 100 100 77.6137 100 50C100 22.3858 77.6142 0 50.0005 0C23.5022 0 1.82023 20.6133 0.107788 46.6781C3.34345 52.1116 4.60607 55.4721 2.09968 64.382H2.0992Z" fill="url(#paint0_linear_193_4433)"/>
<path d="M47.4249 37.4772C47.4249 37.5613 47.4249 37.6454 47.4292 37.7244L35.194 55.4978C33.212 55.4076 31.2232 55.7553 29.3373 56.5321C28.506 56.8711 27.727 57.2875 26.9961 57.7681L0.129613 46.7081C0.129824 46.7081 -0.492061 56.9355 2.09871 64.5578L21.0919 72.3947C22.0455 76.6565 24.9691 80.3947 29.2824 82.193C36.3395 85.1415 44.4764 81.781 47.412 74.7209C48.176 72.8754 48.5322 70.9398 48.4807 69.0085L65.9871 56.4978C66.1288 56.502 66.2747 56.5063 66.4163 56.5063C76.8927 56.5063 85.4077 47.9656 85.4077 37.4772C85.4077 26.9879 76.8927 18.4548 66.4163 18.4548C55.9442 18.4548 47.4249 26.9879 47.4249 37.4772ZM44.4893 73.4935C42.2172 78.9484 35.9485 81.5364 30.4996 79.266C27.9858 78.2188 26.088 76.3003 24.9931 74.0128L31.1755 76.575C35.194 78.2488 39.8043 76.3433 41.4747 72.3261C43.1502 68.3046 41.2494 63.6866 37.2331 62.0128L30.8421 59.3647C33.3082 58.4291 36.1116 58.3948 38.7309 59.4849C41.3717 60.5836 43.4206 62.6523 44.5064 65.296C45.5923 67.9398 45.588 70.8583 44.4893 73.4935ZM66.4163 50.1544C59.4421 50.1544 53.764 44.4677 53.764 37.4772C53.764 30.4922 59.4421 24.8038 66.4163 24.8038C73.3949 24.8038 79.073 30.4922 79.073 37.4772C79.073 44.4677 73.3949 50.1544 66.4163 50.1544ZM56.9356 37.4578C56.9356 32.199 61.1931 27.9338 66.4378 27.9338C71.6867 27.9338 75.9442 32.199 75.9442 37.4578C75.9442 42.7171 71.6867 46.9784 66.4378 46.9784C61.1931 46.9784 56.9356 42.7171 56.9356 37.4578Z" fill="white"/>
</g>
<defs>
<linearGradient id="paint0_linear_193_4433" x1="50.0541" y1="0" x2="50.0541" y2="100" gradientUnits="userSpaceOnUse">
<stop stop-color="#111D2E"/>
<stop offset="0.21248" stop-color="#051839"/>
<stop offset="0.40695" stop-color="#0A1B48"/>
<stop offset="0.5811" stop-color="#132E62"/>
<stop offset="0.7376" stop-color="#144B7E"/>
<stop offset="0.87279" stop-color="#136497"/>
<stop offset="1" stop-color="#1387B8"/>
</linearGradient>
<clipPath id="clip0_193_4433">
<rect width="100" height="100" fill="white"/>
</clipPath>
</defs>
</svg>
